<?xml version="1.0" encoding="UTF-8"?><svg id="Layer_3" xmlns="http://www.w3.org/2000/svg" viewBox="0 0 569.47 299.74"><defs><style>.cls-1{fill:#7db2ad;}.cls-2{fill:#98beba;}.cls-3{fill:#98beb9;}.cls-4{fill:#97beba;}.cls-5{fill:#7cb0ab;}.cls-6{fill:#9ec2be;}.cls-7{fill:#9fc3bf;}.cls-8{fill:#9fc2be;}.cls-9{fill:#b6d1ce;}.cls-10{fill:#9dc1bd;}.cls-11{fill:#9cc0bd;}.cls-12{fill:#9cc1bd;}.cls-13{fill:#9dc2be;}.cls-14{fill:#9bc1bd;}.cls-15{fill:#9bc0bc;}.cls-16{fill:#a0c3bf;}.cls-17{fill:#b3cfcc;}.cls-18{fill:#2f5c58;}.cls-19{fill:#adccc8;}.cls-20{fill:#a5c7c3;}.cls-21{fill:#a7c8c4;}.cls-22{fill:#a7c7c3;}.cls-23{fill:#a4c6c2;}.cls-24{fill:#aac9c6;}.cls-25{fill:#a6c7c3;}.cls-26{fill:#a3c5c1;}.cls-27{fill:#a9c9c5;}.cls-28{fill:#21a598;}.cls-29{fill:#417a74;}.cls-30{fill:#417974;}.cls-31{fill:#35766f;}.cls-32{fill:#36746e;}.cls-33{fill:#3d7771;}.cls-34{fill:#a2c5c1;}.cls-35{fill:#9abfbb;}.cls-36{fill:#a1c4c0;}.cls-37{fill:#94bcb8;}.cls-38{fill:#8abab5;}.cls-39{fill:#99bfbb;}.cls-40{fill:#9ac0bc;}.cls-41{fill:#9ac0bb;}.cls-42{fill:#62938f;}.cls-43{fill:#2a534f;}.cls-44{fill:#2a524e;}.cls-45{fill:#2c5652;}.cls-46{fill:#2c5954;}.cls-47{fill:#497f79;}.cls-48{fill:#2b5450;}.cls-49{fill:#2b5551;}.cls-50{fill:#2b5550;}.cls-51{fill:#2b5652;}.cls-52{fill:#2e5b57;}.cls-53{fill:#2e5b56;}.cls-54{fill:#2e5854;}.cls-55{fill:#376560;}.cls-56{fill:#37736d;}.cls-57{fill:#3a746e;}.cls-58{fill:#34625e;}.cls-59{fill:#3c756f;}.cls-60{fill:#38726c;}.cls-61{fill:#38746e;}.cls-62{fill:#38736d;}.cls-63{fill:#38736e;}.cls-64{fill:#2d5954;}.cls-65{fill:#3b756f;}.cls-66{fill:#528580;}</style></defs><path class="cls-9" d="M291.35,97.33c.11,4.31-.19,8.44,2.05,12.69,1.99,3.78,1.83,8.7-.19,12.74-1.53,3.08-1.99,6.06-1.93,9.36,.37,21.06,.67,42.12,.99,63.18,.02,1.46,.23,3-.14,4.37-1.06,3.9-2.28,8.08-6.52,9.46-1.98,.64-6.95-7.42-6.95-10.87-.04-22.46-.05-44.93-.04-67.39,0-2.45-.34-4.6-1.64-6.9-2.26-3.98-2.25-8.67-.35-12.69,2.23-4.7,1.9-9.2,.92-13.92,2.32,.08,3.33-.95,2.79-3.29,.96-3.28,3.73-2.61,6.11-2.79,.68,.67,1.36,1.35,2.04,2.02,.18,1.89,.49,3.68,2.87,4Zm-9.81,8.79c-.13,.09-.38,.23-.36,.27,.09,.25,.24,.47,.36,.71-.33,.65-.66,1.3-.99,1.94-.1,.23-.29,.65-.27,.66,.69,.34,.99-.12,1.26-.64,.99-.65,.99-1.3,0-1.96v-.98c.13-.09,.38-.23,.37-.27-.09-.25-.24-.47-.37-.71,1.02-2.28,1.81-4.55,0-6.82-1.63,1.36-.73,3.21-.95,4.85,0,.81,.16,1.55,.96,1.97v.98Zm7.82,18.59c1.09-.64,.11-1.31,.02-1.97,1-.05,1.98-.22,2.35-1.29,.08-.22-.49-.66-.76-.99-.53,.76-1.05,1.53-1.58,2.29-.79,.42-.96,1.15-.99,1.96-1.53,2.28-1.54,4.57,0,6.86l-.97,2.93c.13,1.21-.35,2.69,1.39,3.21,.19-.74,.38-1.49,.57-2.23,0-1.31-.01-2.61-.02-3.92,0-1.63,0-3.26,0-4.9v-1.94Zm-8.8,1.96c-.98,.65-.98,1.31,0,1.97v5.72l.99-.03c0-2.22,0-4.45,0-6.67v-.99c-.11-1.36,.44-2.88-.97-3.91-.44-.83-1.64-2.06-1.89-1.57-.84,1.66,.48,2.75,1.88,3.54v1.94Zm1.96,21.52c0-.33,0-.65,0-.98v-.98c0-.32,0-.64-.01-.97,0-.33,0-.67,0-1,.01-.32,.02-.63,0-.95-.04-1.78,.31-3.71-1.94-5.21,0,3.34,0,6.22,0,9.11,0,.33,0,.65,0,.98v1.96c.15,2.63-.54,5.36,.98,7.82-1.74,1.73-.69,3.92-.96,5.89v6.85c-.01,.32-.01,.64,0,.96,0,.33,0,.67,0,1,0,1.62,0,3.24,0,4.86,.12,1.35-.46,2.88,.94,3.93-.74,2.55-1.06,5.15-.93,7.8,.1,1.22,.1,2.47,.36,3.66,.13,.6-.26,1.92,.83,1.7,1.12-.23,.61-1.54,.73-2.4,0-.32,0-.64,0-.96,0-.99-.01-1.97-.02-2.96l.02-6.83v-4.91c-.01-.65-.01-1.31-.01-1.96,0-3.26,0-6.52,0-9.78,0-1.63,0-3.27,0-4.9,0-.64,0-1.29,.01-1.93v-6.87c0-.98,0-1.95,.01-2.93Zm-.95,50.88l1.92,2.94c1.94,4.54,3.74,2.42,5.34-.2,.45-.74,.37-1.81,.53-2.73,.04-4.59,.11-9.18-.93-13.69,.85-2.94,.23-5.87-.05-8.81,0-2.94,.01-5.88,.02-8.81v-4.89c0-1.63,0-3.26-.01-4.89v-9.77c-.12-1.06,.4-2.22-.49-3.12-.09-.09-.64,.09-.8,.29-.86,1.04-.76,2.01,.35,2.82-1.1,3.26-1.39,6.52-.02,9.78-1.09,1.63-1.11,3.26,0,4.89,0,1.63,0,3.26,0,4.89,0,2.94,.01,5.87,.02,8.81,0,2.93,0,5.87,0,8.8,0,2.94,0,5.88,0,8.82,0,.81,.17,1.53,.95,1.97,0,.32,0,.63,0,.95l-.95,.98v1c-.24,1.72,.34,4.27-2.95,2.92l-1.02-2.93c-.09-.89-.1-2.14-1.15-2.11-1.3,.03-.55,1.37-.76,2.11Zm3.3-88.18c-2,.75-5.2-1.31-5.9,2.42-.4,2.15,4.34,10.16,5.68,10.1,1.16-.06,6.75-8.09,6.48-9.77-.64-3.99-3.98-2.09-6.26-2.74Zm3.1-4.88c1.82-2.39,1.66-4.15,.89-5.95-.07-.15-.75-.25-.8-.17-1.05,1.76-.75,3.58-.09,6.12Zm.18,1.45c-.12,.27-.39,.61-.31,.8,.08,.2,.5,.26,.77,.38,.12-.27,.39-.61,.32-.8-.08-.2-.5-.26-.78-.38Z"/><path class="cls-62" d="M288.48,93.33c-.68-.67-1.36-1.35-2.04-2.02,0-.27,0-.55,0-.82,.64-.33,.67-.66,0-.99-.36-.03-.73-.07-1.09-.1,.07-2.34,3.12-3.16,2.89-5.65l2.22-1.14,1.2-.82c2.84-.46,4.52-2.53,5.88-4.69,1.42-2.23,3.74-2.32,5.78-3.03,.88-.31,3.04,.01,2.11,1.41-2.17,3.27,.29,3.92,2.12,5.44,1.56,1.3,2.85,3.07,3.85,4.86,.62,1.1,1.85,2.74,.57,3.89-1.31,1.18-3.06,2.69-4.99,.61-.34-.45-.65-.4-.91,.08-1.7,1.73-3.68,2.02-5.89,1.14l-.1-.42c2.2-2.76-3.59-4.58-.87-7.39,1.43-.23,2.68,.26,3.9,.91,.21,.42,.39,.86,.62,1.26,.54,.92,.8,2.12,2.13,2.25,.23,.02,.7-.27,.71-.44,.1-1.51-1.07-2.14-2.12-2.78-.37-.23-.91-.18-1.37-.26-.89-1.96-.12-4.12-.45-6.97-1.48,2.13-2.47,3.55-3.46,4.97-.83,2.35-5.75,.42-4.83,4.6l-.14,.46c-4.17,.67-.88,3.94-1.98,5.67-1.25,.34-2.5,.75-3.74-.02Z"/><path class="cls-63" d="M285.34,89.39l1.09,.1v.99c0,.27,0,.55,0,.82-2.38,.18-5.15-.5-6.11,2.79-1.18,.06-2.36,.13-3.54,.19,.17-1.82-.99-3.57-.26-5.42-.32-.46-.63-.92-.95-1.37,.04-.31,.06-.62,.07-.93,.68-.36,.64-.68-.05-.97-1.94-.98-3.87-1.97-5.81-2.95-.26-1.76-1.57-3.29-2.94-3.28-2,.02-.07,2.09-.83,3.08-.77,.99-1.43,2.08-2.14,3.12-1.74,1.95-2.93,4.12-2.91,6.82l.03,1.15c-4.03,1.04-6.03-.75-5.11-4.53,.76-3.11,2.54-5.56,4.96-7.55,1.76-1.44,5.34-1.95,2.29-5.5-.55-.64,.72-1.65,1.35-1.58,2.23,.25,4.8-.52,6.34,2.16,1.34,2.33,2.66,4.87,5.85,5.19l-.09-.1c-.13,.78,.33,.93,.96,.9l1.2,1.24c.55,3.36,2.66,5.41,5.67,6.71l.99-1.04-.07-.03Z"/><path class="cls-28" d="M287.25,65.04v2.96c-1.17,1.29-2.33,2.58,.01,3.87,.06,.62,.11,1.24,.17,1.86l-.29,.33c-2.43-1.64-4.85-.79-7.27,.03l-.27-.33c.06-.6,.12-1.2,.17-1.81,2.79-.93,1.42-1.93,.06-2.94-.16-.98-1.26-1.93-.11-2.97,.73-.56,1.65-1,1.58-2.11,0-.07-.74-.1-1.13-.15-.62-1.51-1.31-3.01-.33-4.63,.8-.71,.72-1.37-.11-1.99-.06-.58-.11-1.17-.17-1.75l.26-.33c1.62,1.7,3.54,1.83,5.62,1.02l2,.19c0,.3-.07,.59-.19,.86-1.75,1-1.82,2,0,3,0,.64,0,1.29,0,1.93-.28,.32-.56,.64-.84,.96h0c-.71,.34-.69,.69,0,1.04l.83,.94Zm-4.23,3.68c1.51-.21,1.76-1.21,1.9-2.14,.04-.29-.56-.97-.84-.96-1.07,.05-1.79,.82-1.95,1.8-.07,.4,.62,.93,.89,1.31Zm.23-6.9c.68-.11,1.09-.42,.82-.93-.17-.32-.7-.56-1.1-.6-.42-.05-1.05,.13-.66,.79,.2,.35,.67,.55,.93,.75Z"/><path class="cls-56" d="M287.44,56.3c-.67-.06-1.33-.13-2-.19-.79-2.28-1.53-2.41-5.62-1.03l-.26,.33c-.83-1.97-3.7-3.27-2.01-6.07,3.63,1.24,7.26,1.3,11.45,.67-1.78-2.19-3.52-1.44-5.05-1.62-1.55-.19-3.33,.52-4.47-1.19,.13-.58,.26-1.16,.38-1.74,1.9-.67,3.79-1.34,5.69-2.01,6.22,5.28,6.34,6.09,1.89,12.84Z"/><path class="cls-57" d="M261,93.53c-.01-.38-.02-.77-.03-1.15,2.42-1.19,2.61-3.87,3.91-5.82l3.92-2.95,.96,.96-.94,1.01c-.01,.33-.03,.65-.04,.98-.33,.97-.66,1.95-.99,2.92-1.52,1.61-1.13,2.57,1.01,2.93,0,.26,0,.52,0,.79-2.49,2.61-5.23-.53-7.79,.34Z"/><path class="cls-59" d="M276.5,80c-2.22-3.69,2.27-4.05,3.1-6.23l.27,.33c2.44,3.38,4.85,.48,7.27-.03l.29-.33q4.5,3.23,3.94,6.08c-.02-.36-.03-.73-.05-1.09-2.24-1.66-4.48-3.76-6.81-.12l-2.94,1.14-.18-.14c.07-.28,.09-.57,.07-.86-1.61-1.5-3.22-1.44-4.83-.01-.05,.42-.09,.85-.14,1.27Z"/><path class="cls-65" d="M268.79,93.19c0-.26,0-.52,0-.79,1.08-.96-.29-1.94,.02-2.91,1.13-.7,.93-1.86,1-2.92,2.2-1.47,3.65,1.83,5.77,.92,.32,.46,.63,.92,.95,1.37-1.59-.57-2.7,.29-2.73,1.63-.09,4.08-2.36,3.61-5,2.69Z"/><path class="cls-47" d="M300.17,91.49c-4.54,2.57-4.86,2.36-5.98-3.81l.14-.46c4.19-2.1,3.11,3.63,5.74,3.85l.1,.42Z"/><path class="cls-48" d="M279.48,47.21c1.14,1.71,2.92,1.01,4.47,1.19,1.53,.18,3.28-.58,5.05,1.62-4.19,.63-7.82,.57-11.45-.67,.25-1.06,.9-1.78,1.93-2.15Z"/><path class="cls-38" d="M276.79,94.28c1.18-.06,2.36-.13,3.54-.19,.54,2.34-.47,3.37-2.79,3.29-1.69-.69-1.62-1.8-.74-3.1Z"/><path class="cls-65" d="M285.55,43.46c-1.9,.67-3.79,1.34-5.69,2.01q3.03-4.3,5.69-2.01Z"/><path class="cls-5" d="M288.48,93.33c1.24,.78,2.49,.36,3.74,.02,.21,1.44,.63,2.92-.86,3.98-2.38-.32-2.69-2.12-2.87-4Z"/><path class="cls-60" d="M276.5,80c.05-.42,.09-.85,.14-1.27,.98,.32,1.97,.64,2.95,.95l1.81-.09,.18,.15c-.63,.65-1.26,1.3-1.9,1.95h-2.14c-.31-.06-.63-.08-.95-.07l.09,.1c-.06-.57-.12-1.15-.19-1.72Z"/><path class="cls-56" d="M291.32,78.72l.05,1.09-.68,1.92-.41-.09-3.03,.06-1.06-1.88c1.77-.07,3.56-.07,5.13-1.1Z"/><path class="cls-32" d="M287.26,71.87c-2.34-1.29-1.18-2.58,0-3.87,0,1.29,0,2.58,0,3.87Z"/><path class="cls-56" d="M279.83,69.02c1.37,1.01,2.73,2.01-.06,2.94,.02-.98,.04-1.96,.06-2.94Z"/><path class="cls-56" d="M280.17,63.79c.39,.05,1.12,.08,1.13,.15,.06,1.11-.85,1.55-1.58,2.11,.15-.75,.3-1.51,.46-2.26Z"/><path class="cls-33" d="M287.25,60.17c-1.82-1-1.75-2,0-3v3Z"/><path class="cls-66" d="M279.73,57.17c.83,.62,.91,1.28,.11,1.99-.04-.66-.07-1.33-.11-1.99Z"/><path class="cls-29" d="M287.25,65.04c-.28-.31-.56-.63-.83-.94,0-.35,0-.7,0-1.05h0c.28,.01,.55,.01,.83,.01,0,.66,0,1.32,.01,1.97Z"/><path class="cls-61" d="M287.24,63.07c-.28,0-.55,0-.83,0,.28-.32,.56-.64,.84-.96l-.02,.97Z"/><path class="cls-58" d="M306.06,90.35c.27-.48,.57-.53,.91-.08l-.45,.15-.47-.08Z"/><path class="cls-37" d="M284.85,110.9c2.28,.65,5.62-1.25,6.26,2.74,.27,1.68-5.32,9.71-6.48,9.77-1.34,.07-6.08-7.94-5.68-10.1,.7-3.72,3.9-1.66,5.9-2.42Zm.96,5.16c-.27-.19-.51-.38-.77-.53-.02-.01-.29,.28-.26,.34,.12,.25,.32,.48,.49,.71l.54-.52Z"/><path class="cls-13" d="M288.39,197.11c0-.32,0-.63,0-.95-.01-.8-.17-1.53-.95-1.97,0-2.94,0-5.88,0-8.82,.33,0,.66,0,.99,.01,1.04,4.52,.96,9.11,.93,13.69-.64,0-1.27,0-1.91,0,0-.33,0-.66,0-1,.32-.33,.63-.65,.95-.98Z"/><path class="cls-6" d="M287.41,157.98c-1.37-3.26-1.08-6.52,.02-9.78,.31,0,.63,0,.94,.01,0,3.26,0,6.51,0,9.77-.32,0-.64,0-.96,0Z"/><path class="cls-26" d="M282.49,144.27c0,.33,0,.67,0,1-.12,.09-.37,.23-.35,.27,.09,.24,.23,.47,.36,.7,0,.33,0,.66,0,.98-.65,0-1.3,0-1.95,0v-9.11c2.25,1.5,1.9,3.42,1.94,5.21-.13,.09-.37,.22-.36,.26,.08,.24,.22,.46,.35,.69Z"/><path class="cls-39" d="M287.44,199.08c.64,0,1.27,0,1.91,0-.16,.92-.08,1.99-.53,2.73-1.6,2.62-3.4,4.73-5.34,.2h1.01c3.29,1.34,2.71-1.21,2.95-2.93Z"/><path class="cls-10" d="M280.57,165.82c0-.65,0-1.31,0-1.96l1.91,.96c0,3.26,0,6.52,0,9.78-.64-.65-1.27-1.29-1.91-1.94,0-.33,0-.67,0-1,.12-.09,.36-.22,.35-.27-.08-.24-.23-.46-.35-.69,0-.33,0-.67,0-1,1.35-1.3,1.35-2.59,0-3.89Z"/><path class="cls-24" d="M282.5,151.13c0,2.29,0,4.58,0,6.87-.32,0-.64,0-.97,0v-.03c-1.51-2.46-.83-5.19-.98-7.82,.65,.32,1.3,.65,1.95,.97Z"/><path class="cls-39" d="M280.58,189.27c-.13-2.65,.19-5.25,.93-7.8h.99c0,2.29-.01,4.56-.02,6.84-.63,.32-1.27,.64-1.9,.96Z"/><path class="cls-12" d="M287.95,106.02c-.65-2.54-.96-4.36,.09-6.12,.05-.08,.73,.02,.8,.17,.77,1.8,.93,3.56-.89,5.95Z"/><path class="cls-35" d="M288.42,185.39c-.33,0-.66,0-.99-.01,0-2.93,0-5.87,0-8.8h.94c.29,2.94,.91,5.87,.05,8.81Z"/><path class="cls-12" d="M289.35,126.66c0,1.63,0,3.26,0,4.9-.32,0-.65,0-.97,.01-1.53-2.29-1.52-4.57,0-6.86v.03c.02,.79,.19,1.5,.95,1.91Z"/><path class="cls-23" d="M280.58,189.27c.63-.32,1.27-.64,1.9-.96,0,.99,.01,1.97,.02,2.96-.13,.09-.37,.22-.36,.26,.09,.24,.23,.46,.36,.69-.12,.86,.38,2.18-.73,2.4-1.08,.22-.7-1.1-.83-1.7-.26-1.19-.25-2.43-.36-3.66Z"/><path class="cls-13" d="M282.48,164.82c-.64-.32-1.27-.64-1.91-.96,.27-1.97-.79-4.16,.96-5.89v.03c.02,.79,.19,1.5,.95,1.92,0,1.63,0,3.27,0,4.9Z"/><path class="cls-8" d="M288.37,176.58h-.94c0-2.94,0-5.88-.02-8.81h.97c0,2.94-.01,5.88-.02,8.81Z"/><path class="cls-34" d="M282.5,181.47h-.99c-1.39-1.06-.82-2.58-.94-3.94,.64-.32,1.27-.65,1.91-.97v4.91Z"/><path class="cls-7" d="M287.41,157.98c.32,0,.64,0,.96,0,0,1.63,0,3.26,.01,4.89-.32,0-.65,0-.97,0-1.11-1.63-1.09-3.26,0-4.89Z"/><path class="cls-12" d="M281.52,127.66v6.67l-.99,.03c0-1.91,0-3.81,0-5.72,.33-.33,.66-.65,.99-.98Z"/><path class="cls-7" d="M281.53,105.14c-.8-.43-.96-1.16-.96-1.97,1.59-1.37,.74-3.21,.95-4.85,1.81,2.27,1.03,4.55,0,6.82h0Z"/><path class="cls-35" d="M282.48,176.57c-.64,.32-1.28,.65-1.91,.97,0-1.62,0-3.24,0-4.86,.64,.65,1.27,1.29,1.91,1.94,0,.65,0,1.31,0,1.96Z"/><path class="cls-25" d="M288.37,148.21c-.31,0-.63,0-.94-.01-1.11-.82-1.21-1.78-.35-2.82,.16-.2,.72-.38,.8-.29,.89,.91,.37,2.07,.48,3.12Z"/><path class="cls-2" d="M280.55,124.73c-1.4-.8-2.72-1.88-1.88-3.54,.25-.49,1.44,.73,1.89,1.57,0,.66,0,1.32,0,1.98Z"/><path class="cls-27" d="M289.37,135.47c-.19,.74-.38,1.49-.57,2.23-1.73-.52-1.26-1.99-1.39-3.21,.65,.32,1.3,.65,1.95,.97Z"/><path class="cls-23" d="M289.37,135.47c-.65-.32-1.3-.65-1.95-.97,.32-.98,.65-1.95,.97-2.93,.32,0,.65,0,.97-.01,0,1.31,.01,2.61,.02,3.92Z"/><path class="cls-4" d="M281.52,98.32c-.21,1.64,.64,3.48-.95,4.85,.22-1.64-.68-3.49,.95-4.85Z"/><path class="cls-16" d="M284.49,202h-1.01c-.64-.97-1.28-1.95-1.92-2.93h1.91l1.02,2.93Z"/><path class="cls-16" d="M283.47,199.08h-1.91c.21-.75-.54-2.08,.76-2.11,1.05-.03,1.06,1.23,1.15,2.11Z"/><path class="cls-20" d="M282.5,151.13c-.65-.32-1.3-.65-1.95-.97,0-.65,0-1.3,0-1.96,.65,0,1.3,0,1.95,0,0,.98,0,1.95,0,2.93Z"/><path class="cls-3" d="M287.42,162.88c.32,0,.65,0,.97,0,0,1.63,0,3.26,0,4.89h-.97c0-1.63,0-3.26,0-4.89Z"/><path class="cls-8" d="M289.38,122.76c.53-.76,1.05-1.53,1.58-2.29,.27,.34,.83,.77,.76,.99-.37,1.07-1.35,1.24-2.35,1.29h.01Z"/><path class="cls-36" d="M280.55,124.73c0-.66,0-1.32,0-1.98,1.41,1.04,.85,2.56,.96,3.91-.33,0-.65,0-.98,0v-1.94Z"/><path class="cls-39" d="M288.14,107.47c.27,.12,.69,.18,.77,.38,.08,.19-.2,.53-.32,.8-.27-.12-.69-.18-.77-.38-.08-.19,.19-.53,.32-.8Z"/><path class="cls-35" d="M280.57,165.82c1.34,1.3,1.35,2.59,0,3.89,0-1.3,0-2.59,0-3.89Z"/><path class="cls-22" d="M288.39,124.71c.03-.81,.2-1.54,.99-1.96h-.01c.09,.65,1.08,1.32-.02,1.96-.32,0-.64,.01-.95,.03v-.03Z"/><path class="cls-21" d="M280.54,126.67c.33,0,.65,0,.98,0,0,.33,0,.66,0,.99-.33,.33-.66,.65-.99,.98-.97-.66-.97-1.32,0-1.97Z"/><path class="cls-19" d="M281.53,107.1c.99,.65,.99,1.3,0,1.96l-.98-.02c.33-.65,.66-1.3,.99-1.94h0Z"/><path class="cls-40" d="M288.4,124.74c.32-.02,.64-.03,.95-.03,0,.65,0,1.3,0,1.94-.76-.42-.93-1.13-.95-1.91Z"/><path class="cls-35" d="M280.55,109.05l.98,.02c-.26,.52-.57,.98-1.26,.64-.01,0,.18-.43,.27-.66Z"/><path class="cls-36" d="M282.51,148.2c-.65,0-1.3,0-1.95,0,0-.33,0-.65,0-.98h1.96c0,.33,0,.65,0,.98Z"/><path class="cls-11" d="M287.44,194.2c.78,.43,.94,1.16,.95,1.97-.78-.43-.95-1.16-.95-1.97Z"/><path class="cls-14" d="M282.49,159.93c-.76-.42-.93-1.13-.95-1.92,.32-.01,.64-.02,.97,0,0,.64,0,1.29-.01,1.93Z"/><path class="cls-15" d="M282.49,144.27c-.12-.23-.27-.45-.35-.69-.01-.04,.23-.17,.36-.26,0,.32,0,.63,0,.95Z"/><path class="cls-35" d="M280.58,170.71c.12,.23,.27,.45,.35,.69,.02,.04-.23,.18-.35,.27-.02-.32-.02-.64,0-.96Z"/><path class="cls-24" d="M281.53,107.1c-.13-.23-.28-.46-.36-.71-.01-.04,.24-.18,.36-.27h0c0,.32,0,.65,0,.98h0Z"/><path class="cls-41" d="M282.5,192.22c-.13-.23-.27-.45-.36-.69-.01-.04,.23-.17,.36-.26,0,.32,0,.64,0,.96Z"/><path class="cls-21" d="M281.53,106.13v-.98h0c.13,.24,.28,.46,.37,.71,.01,.04-.24,.18-.37,.27h0Z"/><path class="cls-15" d="M288.39,197.11c-.32,.33-.63,.65-.95,.98,.32-.33,.63-.65,.95-.98Z"/><path class="cls-36" d="M282.5,146.24c-.13-.23-.27-.45-.36-.7-.02-.04,.23-.18,.35-.27,.01,.32,.01,.64,0,.97Z"/><path class="cls-1" d="M286.19,79.82c.35,.63,.71,1.26,1.06,1.88,.33,.68,.66,1.36,.98,2.04,.23,2.49-2.83,3.31-2.89,5.65l.07,.03c-.33,.35-.66,.7-.99,1.04-3.01-1.29-5.12-3.34-5.67-6.71,.31-.69,.62-1.38,.93-2.07,.63-.65,1.26-1.3,1.9-1.95,.98-.38,1.96-.76,2.94-1.14,.56,.41,1.12,.81,1.68,1.22Zm-1.27,4.49c-.06-1.03-.39-2.18-1.41-2.14-1.29,.04-1.7,1.43-1.65,2.47,.04,.83,.84,2.34,1.2,2.31,1.4-.12,.94-1.92,1.85-2.63Z"/><path class="cls-43" d="M300.07,91.07c-2.63-.22-1.54-5.95-5.74-3.85-.92-4.18,4-2.25,4.83-4.6,.01,.35,.02,.71,.03,1.06-2.72,2.82,3.07,4.64,.87,7.39Z"/><path class="cls-50" d="M299.2,83.68c-.01-.35-.02-.71-.03-1.06,.99-1.42,1.98-2.84,3.46-4.97,.33,2.85-.44,5.01,.45,6.97l.02-.02c-1.22-.65-2.48-1.14-3.9-.91Z"/><path class="cls-44" d="M303.08,84.61c.46,.08,1,.04,1.37,.26,1.06,.64,2.22,1.28,2.12,2.78-.01,.17-.48,.46-.71,.44-1.33-.13-1.6-1.33-2.13-2.25-.24-.4-.42-.84-.62-1.26l-.02,.02Z"/><path class="cls-53" d="M288.24,83.74c-.33-.68-.66-1.36-.98-2.04,1.01-.02,2.02-.04,3.03-.06l.18,.97c-.74,.38-1.48,.76-2.22,1.14Z"/><path class="cls-30" d="M286.43,90.49v-.99c.67,.33,.64,.66,0,.99Z"/><path class="cls-48" d="M268.8,83.61c-1.31,.98-2.61,1.97-3.92,2.95l-1-1c.71-1.04,1.37-2.13,2.14-3.12,.76-.98-1.17-3.06,.83-3.08,1.37-.01,2.67,1.52,2.94,3.28-.33,.32-.66,.65-.99,.97Z"/><path class="cls-45" d="M268.8,83.61c.33-.32,.66-.65,.99-.97,1.94,.98,3.87,1.97,5.81,2.95,.02,.32,.04,.65,.05,.97-.01,.31-.03,.62-.07,.93-2.12,.91-3.56-2.38-5.77-.92-.35,0-.69-.01-1.03-.02,.01-.33,.03-.65,.04-.98,.31-.34,.63-.68,.94-1.01l-.96-.96Z"/><path class="cls-51" d="M263.88,85.56l1,1c-1.29,1.95-1.49,4.63-3.91,5.82-.02-2.7,1.17-4.87,2.91-6.82Z"/><path class="cls-54" d="M279.68,81.69c-.31,.69-.62,1.38-.93,2.07-.4-.41-.8-.82-1.2-1.24,.04-.28,.04-.55-.01-.83h2.14Z"/><path class="cls-29" d="M275.65,86.56c-.01-.33-.03-.65-.05-.97,.69,.29,.73,.61,.05,.97Z"/><path class="cls-62" d="M284.42,90.46c.33-.35,.66-.7,.99-1.04-.33,.35-.66,.7-.99,1.04Z"/><path class="cls-46" d="M287.13,74.06c-2.42,.51-4.83,3.41-7.27,.03,2.42-.82,4.84-1.67,7.27-.03Z"/><path class="cls-49" d="M279.83,55.09c4.09-1.39,4.83-1.25,5.62,1.03-2.08,.8-3.99,.67-5.62-1.03Z"/><path class="cls-31" d="M283.02,68.72c-.27-.38-.96-.9-.89-1.31,.16-.98,.87-1.75,1.95-1.8,.28-.01,.89,.67,.84,.96-.14,.93-.39,1.93-1.9,2.14Z"/><path class="cls-56" d="M283.24,61.83c-.27-.2-.73-.4-.93-.75-.39-.66,.24-.84,.66-.79,.4,.04,.93,.29,1.1,.6,.27,.51-.14,.83-.82,.93Z"/><path class="cls-56" d="M286.42,63.05c0,.35,0,.7,0,1.05-.69-.35-.7-.7,0-1.05Z"/><path class="cls-64" d="M268.81,89.49c-.31,.97,1.06,1.95-.02,2.91-2.14-.36-2.53-1.32-1-2.93,.34,0,.68,.01,1.02,.02Z"/><path class="cls-52" d="M268.81,89.49c-.34,0-.68-.01-1.02-.02,.33-.97,.66-1.95,.99-2.92,.34,0,.69,.01,1.03,.02-.07,1.06,.13,2.22-1,2.92Z"/><path class="cls-52" d="M269.75,84.56c-.31,.34-.63,.68-.94,1.01,.31-.34,.63-.68,.94-1.01Z"/><path class="cls-55" d="M286.19,79.82c-.56-.41-1.12-.81-1.68-1.22,2.34-3.63,4.57-1.53,6.81,.12-1.57,1.03-3.36,1.03-5.13,1.1Z"/><path class="cls-18" d="M279.59,79.68c-.98-.32-1.97-.64-2.95-.95,1.61-1.43,3.22-1.49,4.83,.01-.77,.02-1.47,.2-1.88,.94Z"/><path class="cls-53" d="M279.59,79.68c.41-.75,1.1-.93,1.88-.94,.02,.29,0,.58-.07,.86-.6,.03-1.2,.06-1.81,.09Z"/><path class="cls-17" d="M285.82,116.06l-.54,.52c-.17-.23-.36-.45-.49-.71-.03-.06,.24-.35,.26-.34,.26,.15,.5,.34,.77,.53Z"/><path class="cls-42" d="M284.93,84.31c-.92,.71-.45,2.51-1.85,2.63-.36,.03-1.16-1.48-1.2-2.31-.06-1.04,.36-2.42,1.65-2.47,1.02-.03,1.34,1.11,1.41,2.14Z"/></svg>