<?xml version="1.0" encoding="UTF-8"?><svg id="Layer_6" xmlns="http://www.w3.org/2000/svg" viewBox="0 0 569.47 299.74"><defs><style>.cls-1{fill:#dce686;}</style></defs><path class="cls-1" d="M379.57,210.08c22.45-37.35,44.9-74.7,67.39-112.03,14.38-23.87,28.84-47.7,43.26-71.55h0c2.58-1.6,3.29-4.27,4.01-6.93h0c-.79-3.48-3.61-4.34-6.54-4.97-3.84-.84-8.03-1.13-11.46-2.5-6.76-2.68-13.99-3.22-20.57-2.98-9.82,.35-19.64,.27-29.46,.51-1.29,.03-2.69-.28-3.62,1.03h0c-.01,.31-.04,.62-.07,.93h0c-5.05,.02-9.96,1.06-14.88,2h0c.25-3.47-2.24-3.06-4.35-2.95-3.71,.2-7.51,2.35-11.04-.86-.5-.46-2.21-.32-2.82,.19-2.79,2.35-5.28,2.58-8.19,.09-.81-.7-2.56-.5-3.85-.41-5.83,.38-11.66,.72-17.48,1.42-4.02,.49-7.18,.55-9.04,4.48h0c-3.47,3.02-7.07,5.89-10.38,9.07-19.93,19.14-39.8,38.35-59.69,57.52-18.59,17.91-37.19,35.8-55.77,53.71-20.37,19.64-40.75,39.26-61.08,58.95-16.53,16-32.98,32.09-49.47,48.13-.59,.58-1.22,1.12-1.82,1.69-15.31,14.61-30.93,28.9-45.66,44.11h0c-.65,.67-1.31,1.34-1.96,2h0c-1.15,.84-2.56,1.5-2.52,2.85,7.4,3,14.16-.72,21.19-1.28,2.49-.2,5.01-.62,7.53-.87,.71,.19,1.4,.21,2.09-.15,2.2-.1,4.41,.02,6.61,.63,.58,.55,1.13,1.52,1.76,1.57,5.23,.47,10.48,.61,15.73,1.12,6.15,.6,12.99,2.79,18.38-2.76,1.47-.24,2.74,.34,4.01,.96,3.63,1.27,6.38-2.06,9.8-1.88,.1,1.63,.37,3.17,2.12,3.92h0c3.77,2.92,8.64,3.36,12.47,2.2,3.78-1.14,6.93-1.12,10.43-.21l.04-.04h0l-.04,.04c.28,2.11,1.7,2.16,3.26,1.71,7.08-2.06,14.23-3.69,21.65-3.72h0c1.95,.02,3.91-.12,5.86-.13,4.61-.03,9.3,1.21,13.76-2.23,1.81-1.4,5.69-2.79,8.71-.06,.97,.87,2.52,.7,3.56-.52,9.06-.12,18.26,1.07,26.88-2.95h0c1.31-.34,2.61-.68,3.92-1.01h0c3.67,4.13,8.05-.21,11.96,1.01h0c2.11,1.86,4.66,.6,6.98,.96,9.96,0,19.92,1.36,29.89-.02h0c.65,0,1.31,0,1.96,0h0c2.45-1.65,4.78-3.84,7.64-.38,.51,.62,2.19,.29,3.33,.4h0c2.76,.86,4.88-.51,6.97-1.99,1.46-.02,2.49-.65,2.97-2.07h0c1.04-1.69,2.09-3.36,3.11-5.06,12.23-20.16,24.46-40.31,36.69-60.47,2.09-1.01,2.73-2.89,3.01-4.99h0c.95-1.74,1.84-3.51,2.86-5.21Zm-113.39,76.79h0Zm-8.03,1.88h0l.13,.16c-.04-.05-.09-.11-.13-.16Zm65.14,.73c.24,.08,.47,.18,.67,.38-.22-.13-.44-.26-.67-.38Z"/><path class="cls-1" d="M44.16,199.15c44.19-34.19,88.4-68.36,132.63-102.5,33.76-26.06,67.57-52.06,101.35-78.09h0c3.18-.57,4.57-3.18,6.51-5.27-1.25-1.05-2.42-.59-3.51-.69h0c-1.83-.59-2.28,1.29-3.43,1.89-3.4,1.77-1.97-3.23-2.7-2.56-2.59,2.33-5.01-.93-6.85,.01-3.3,1.69-6.61,.97-9.54,.33-3.57-.78-6.03-.17-8.33,2.33-1.22,1.26-2.06,1.14-3.03-.44-1.45-2.37-2.95-2.56-3.98,.41-.32,.34-.65,.67-.97,1.01-4.47-4.76-5.19-4.94-8.34-2.36-1.11,.91-2.4,1.58-3.62,2.36h0c-2.42-.34-4.24-2.77-6.98-1.96h0c-3.05-.47-6.14,.97-9.16-.22-4.15-1.63-7.14,.17-9.68,3.28h0c-.89,.97-1.65,2.09-2.68,2.89-28.37,21.9-56.79,43.76-85.17,65.66-20.01,15.44-39.94,30.99-59.97,46.4-16.1,12.39-32.29,24.66-48.44,36.98h0c-1.71-.11-2.56,1.45-3.92,2.02h0c-2.41,2.11-2.8,4.82-3.14,7.91-.69,6.26,2.8,11.28,4.1,16.92,1.27,1.78,2.39,3.78,3.61,5.42,2.7,3.6-.94,8.72,3.41,11.51-2.04,1.75-.72,4.35-1.63,6.49-.73,1.72-2.86,4.33-.51,5.7,1.64,.96,3.9-1.08,5.58-2.37,.62-.48,.99-1.28,1.48-1.93h0c8.96-7.05,17.87-14.15,26.89-21.13Z"/><path class="cls-1" d="M536.68,50.69c-2.43-6.29-5.3-12.19-12.64-14.1-.74-.19-1.76-.29-2.13-.81-2.51-3.48-2.56-3.5-4.78,.65h0c-18.58,44.56-37.19,89.1-55.72,133.68-13.01,31.3-25.91,62.64-38.86,93.96-3.22,7.79-6.5,15.56-9.59,23.41-.4,1.01-1.89,4.4,1.14,3.02,3.52-1.6,7.24-.36,10.5-2.13,2.16-1.17,4.46-.88,6.77-.35,6.28,1.42,7.55,.73,9.88-4.92,21.65-52.41,43.36-104.8,64.95-157.24,10.07-24.45,20.64-48.7,29.85-73.5,.6-.41,.9-.99,.64-1.67Z"/></svg>