<?xml version="1.0" encoding="UTF-8"?><svg id="Layer_5" xmlns="http://www.w3.org/2000/svg" viewBox="0 0 569.47 299.74"><defs><style>.cls-1{fill:#f3f3f3;}.cls-2{fill:#f6f6f6;}.cls-3{fill:#f2f3f3;}.cls-4{fill:#f9faf9;}.cls-5{fill:#697372;}.cls-6{fill:#ebecec;}.cls-7{fill:#f5f6f6;}.cls-8{fill:#e8e9e9;}.cls-9{fill:#edeeee;}.cls-10{fill:#e2e4e3;}.cls-11{fill:#e2e3e3;}.cls-12{fill:#eff0f0;}.cls-13{fill:#e4e6e5;}.cls-14{fill:#7e8685;}.cls-15{fill:#656f6d;}.cls-16{fill:#656f6e;}.cls-17{fill:#99a09f;}.cls-18{fill:#979e9d;}.cls-19{fill:#6c7674;}.cls-20{fill:#a0a6a5;}.cls-21{fill:#929997;}.cls-22{fill:#848c8b;}.cls-23{fill:#9da3a2;}.cls-24{fill:#66706f;}.cls-25{fill:#babebe;}.cls-26{fill:#323f3d;}.cls-27{fill:#303d3b;}.cls-28{fill:#b9bebd;}.cls-29{fill:#b7bbbb;}.cls-30{fill:#858d8c;}.cls-31{fill:#cdd0cf;}.cls-32{fill:#a4aaa9;}.cls-33{fill:#a6abaa;}.cls-34{fill:#a9aead;}.cls-35{fill:#bfc3c3;}.cls-36{fill:#bcc0c0;}.cls-37{fill:#afb4b3;}.cls-38{fill:#d8dada;}.cls-39{fill:#d8dbdb;}.cls-40{fill:#a7adac;}.cls-41{fill:#bdc1c1;}.cls-42{fill:#bdc1c0;}.cls-43{fill:#aab0af;}.cls-44{fill:#c4c8c7;}.cls-45{fill:#cccfcf;}.cls-46{fill:#cacdcd;}.cls-47{fill:#d0d3d2;}.cls-48{fill:#dee0df;}.cls-49{fill:#dee0e0;}.cls-50{fill:#dddfde;}.cls-51{fill:#cbcfce;}.cls-52{fill:#d1d3d3;}.cls-53{fill:#c6caca;}.cls-54{fill:#e1e3e2;}.cls-55{fill:#e1e3e3;}.cls-56{fill:#c8cbcb;}.cls-57{fill:#d5d8d8;}.cls-58{fill:#253331;}.cls-59{fill:#424e4c;}.cls-60{fill:#424e4d;}.cls-61{fill:#434f4d;}.cls-62{fill:#404c4a;}.cls-63{fill:#374442;}.cls-64{fill:#44504e;}.cls-65{fill:#a3a9a8;}.cls-66{fill:#717a78;}.cls-67{fill:#6f7877;}.cls-68{fill:#a2a8a7;}.cls-69{fill:#959c9b;}.cls-70{fill:#465150;}.cls-71{fill:#646e6d;}.cls-72{fill:#283634;}.cls-73{fill:#2a3836;}.cls-74{fill:#2a3735;}.cls-75{fill:#5c6665;}.cls-76{fill:#5c6765;}.cls-77{fill:#293735;}.cls-78{fill:#4a5654;}.cls-79{fill:#485452;}.cls-80{fill:#2c3937;}.cls-81{fill:#2f3c3b;}.cls-82{fill:#2e3b39;}.cls-83{fill:#384543;}.cls-84{fill:#34413f;}.cls-85{fill:#3d4947;}.cls-86{fill:#576260;}.cls-87{fill:#3c4947;}.cls-88{fill:#2e3c3a;}.cls-89{fill:#4b5755;}.cls-90{fill:#4b5655;}.cls-91{fill:#747d7c;}.cls-92{fill:#757e7d;}.cls-93{fill:#616b6a;}.cls-94{fill:#788180;}.cls-95{fill:#5e6867;}.cls-96{fill:#727b79;}.cls-97{fill:#4c5856;}.cls-98{fill:#525d5c;}.cls-99{fill:#273533;}.cls-100{fill:#455150;}</style></defs><path class="cls-4" d="M148.93,299.74H76.11c.66-4.37,4.23-3.85,7.15-4.01,2.93-.16,5.9,.3,8.68-1,.4-.31,.82-.58,1.26-.82,2.26-1.32,4.51-1.02,6.43,.52,2.57,2.05,5.7,2.28,8.37,1.57,5.66-1.5,11.03-.48,16.49,.51,6.44,1.05,12.92,.54,19.39,.61,2.01,.02,4.91-1.18,5.05,2.63Z"/><path class="cls-1" d="M526.01,278.82c-4.3,1.98-8.13,4.66-12.04,7.3-5.16,3.48-10.57,6.87-17.19,6.6-3.03-.12-4.52,2.43-6.95,3.41-4.46,1.8-9.53,.97-13.69,3.6h-2c-1.94-2-4.15-2.64-6.98-2.1-1.6,.31-3.58,.74-5-.89,.16-.17,.31-.33,.46-.5,1.22-.7,2.62-.59,3.93-.89,2.05-.66,3.99-2.32,6.28-.69,.35,.23,.68,.5,1,.78,1.08,1.15,2.15,.68,3.21-.06,5.81-.73,11.63-1.42,16.45-5.23,3.4-3.31,8.32-1.2,12.1-3.42,1.66-.97,3.73-1.26,5.25-2.63,.35-.33,.74-.61,1.14-.87,.63-.38,1.3-.67,1.99-.91,2.06-.93,3.83-2.36,5.81-3.43,2.03-1.1,4.13-1.94,6.23-.09Z"/><path class="cls-2" d="M148.93,299.74c-.47-.9-1.08-2.01-2.17-1.67-5.62,1.77-11.37-.9-16.99,.62-2.01,.55-3.86-.68-5.81-.95-.31-.53-.24-.99,.22-1.4,1.89-1.2,4.04-.76,6.09-.97,5.33-2.01,10.96-.08,16.36-1.27,.97,.2,1.81,.66,2.6,1.24,2.91,3.14,6.69,.23,9.89,1.38,.51,.05,1,.16,1.49,.28,2.3,.66,4.54,.23,6.84-.16,2.37-.41,4.95-1.1,6.78,1.41,.14,.56,.02,1.06-.37,1.5h-24.94Z"/><path class="cls-9" d="M93.08,295.79c-2.79,1.33-5.69,1.65-8.76,1.21-3.15-.46-6.12-.07-8.21,2.75h-11.97c-.5-2.08-3.04-1.51-3.96-3.05,1.37-2.39,3.38-2.23,5.34-1.07,1.96,1.16,3.81,1.53,5.84,.35,1.59-.52,3.24-.45,4.87-.53,2.88-.35,5.35-1.88,8.03-2.82,.41-.19,.84-.3,1.29-.35,1.57,.08,3.09,.37,4.57,.92,1.27,.54,2.05,1.65,2.97,2.6Z"/><path class="cls-7" d="M206.82,292.76c1.45,.78,2.41,1.86,1.55,3.56-.71,1.4-2,1.07-3.38,1.11-5.78,.18-11.55,.65-17.15,2.31h-8.98c-.24-.25-.35-.52-.34-.81,0-.3,.04-.45,.1-.45,1.36-2.01,3.37-2.27,5.56-2.06,1.81,.17,3.57,.13,4.9-1.39,.56-.44,1.18-.72,1.9-.75,5.23-.98,10.76,1.12,15.84-1.51Z"/><path class="cls-55" d="M178.87,298.76c0,.33,0,.65,0,.98h-4.99v-1c.38-.39,.82-.67,1.32-.87,1.37-.31,2.66-.27,3.68,.89Z"/><path class="cls-58" d="M34.33,216.07c1.66,.31,1.45,2.44,3.83,3.43-1.77-10.05-4.25-19.42-4.01-29.13,.24-9.63,1.07-19.06,5.18-28.01,1.36,12.11,3.11,23.91,8.37,34.99,5.25,11.06,12.4,20.84,19.32,31.19,5.75-18.51,15.23-35.4,13.41-55.17,5.53,5.19,5.71,11.98,6.31,18.41,.58,6.23,2.47,12.28,1.72,18.74-.66,5.7-.14,11.55-.14,18.96,6.09-7.51,12.54-12.84,19.5-17.03,7.06-4.25,14.03-9.6,24.36-10.54-9.83,10.18-16.48,20.88-23.58,32.77,6.17-3.13,11.43-5.6,16.27-8.95,4.39-3.03,9.03-5.71,13.46-8.68,7.36-4.95,14.23-10.45,18.47-18.49,.71-1.34,1.92-3.3,2.66-2.81,1.35,.9,1.4,2.68,.49,4.65-5.9,12.73-13.52,24.27-23.31,34.34-1.23,1.26-1.3,3.4-3.41,4.01,5.81-.33,10.88-2.74,16.12-4.52,2.12-.72,4.21-1.76,6.39-2.03,1.1-.14,2.62-1.76,3.45-.14,.64,1.26-.27,2.75-1.42,3.59-9.07,6.67-15.05,16.27-23.04,23.96-1.02,.98-2.31,1.67-3.24,2.94,6.17-.42,10.94-3.7,15.44-7.6,3.37-2.92,7.69-4.8,9.75-9.14,.51-1.07,1.86-1.12,2.64-.62,1.11,.71,.77,2.21,.52,3.21-2.03,7.96-4.2,15.88-12.34,21.29,5.91,.33,10.28-2.45,15.08-3.19,1.1-.17,2.4-1.12,3.1-.09,.83,1.22-.13,2.46-1.17,3.41-1.82,1.67-3.61,3.37-6.32,5.91,6.77,.25,12-1.33,17.23-3.03,1.63-.53,3.54-2.73,4.99-.59,1.17,1.74,.83,4-1,5.83-1.63,1.63-2.88,3.63-5.21,6.64,5.69-2.66,11.3-.71,15.18-5.35,.89-1.07,3.37-1.21,3.55,1.93,.14,2.52-1.12,5.01-.03,7.5,.63,1.44,.77,2.83-.38,4.1-1.32,1.07-2.69,.6-4.06,.12-.43-.12-.86-.27-1.29-.39-2.73-.27-4.83,2.53-7.69,1.58-1.57-.2-3.18-.07-4.73-.46-.43-.14-.82-.36-1.18-.64-.32-.32-.6-.67-.86-1.02-2.73-1.7-4.22,1.89-6.62,1.57-.47,.16-.95,.27-1.44,.35-4.17,.73-8.13-.87-12.22-1.02-.99-.2-1.88-.64-2.67-1.26-2.16-2.46-4.39-3.21-6.82-.33-1.04,1.23-2.41,1.51-3.94,1.22-.97-.21-2.14-.8-2.9-.39-7.12,3.86-14.78-.58-21.98,1.55-3.68-2.22-7.44,.32-11.14-.18-3.08,.28-5.34-3.38-8.7-1.77-2.72,1.27-5.11-2.69-7.89-.48-.43,.18-.87,.28-1.33,.32-.46,.01-.92-.04-1.38-.12-3.51-.45-6.96-.65-9.85,1.97-1.85,1.68-3.69,.87-5.53-.03-1.22-1.11-2.23-2.87-4.31-1.43-.43,.18-.87,.28-1.32,.31-1.63-.11-3.04-1.09-4.69-1.15-5.47-.96-10.51-2.69-13.74-7.66-.18-.69-.26-1.4-.32-2.11,.1-2.8-2.25-3.55-4.04-4.77-1.2-1.01-2.48-1.93-3.56-3.08-1.42-1.52-3.19-2.93-1.82-5.7-1.7,3.91-3.8,2.68-5.97,.83-.51-.48-.87-1.05-1.06-1.72-.55-2.95,2.27-4.56,2.81-7.08,4.63,2.52,9.14,5.32,14.76,5.77-13.64-9.57-22.62-22.76-29.87-37.31-2.32-5.22-4.39-10.48-2.96-16.38,.79-3.55-.9-6.76-1.92-9.86-1.27-3.89-1.53-7.58-.92-11.49,.41-1.28,.76-2.59,1.95-3.43,2.66,.97,4,3.62,5.76,5.4,4.95,5.02,8.93,11,13.29,16.59-1.17,1.41-2.56,2.23-1.08,4.83,2.24,3.91-1.75,5.95-3.97,8.35-.35,.47-.38,.9,.19,1.26,3.1-.15,4.73-1.9,5.52-4.74,.45-1.6,.46-3.95,3.32-2.73Z"/><path class="cls-88" d="M364.29,280.87c1.88-.48,2.89,1.18,4.35,1.73,4.39,1.65,8.57,5.1,13.68,1.61,.61-.42,2.13,.48,3.23,.77-2.77,4.43-5.02,4.97-12.53,3-4.33-1.15-8.59-1.86-13.22-1.5-3.8,.3-7.77-.93-11.37-2.67,.14-1.29,.16-2.61,.44-3.86,.66-2.94,1.82-4.71,4.65-1.59,2.35,2.59,6.61,2.15,8.67,5.39,.26,.4,1.86-.04,2.83-.09-.24-.93-.49-1.86-.73-2.79Z"/><path class="cls-3" d="M390.35,293.77c-8.22,2.93-15.65,.28-23.1-2.99-4.08-1.79-8.63-1.3-12.98-1.34-2.75-.03-5.19-.14-6.75-2.76,3.49-1.53,7-2.08,10.54-.13,5.01,.06,10.08-.4,14.75,2.06,3.72,2.55,7.49,4.18,12.22,2.48,2.18-.78,5.02-1.08,5.34,2.69Z"/><path class="cls-77" d="M34.33,216.07c-2.1,.18-1.92,1.73-2.15,3.25-.69,4.59-4.28,6.44-8.93,4.75,.82-.67,.76-1.33-.01-1.98,2-1.09,3.53-2.7,4.95-4.45,.91-1.12,1.58-2.54,.32-3.45-5.73-4.09-.73-4.11,1.84-5.08,2.39,1.72,2.6,4.67,3.99,6.96Z"/><path class="cls-48" d="M390.35,293.77c-1.3-2.49-3.53-2.54-5.54-1.53-4.89,2.45-8.63,.15-12.38-2.5,.64-.56,1.39-.7,2.21-.63,4.36,.81,8.69,.18,13.02-.33,1.01,.09,1.92,.47,2.78,.97,2.1,1.24,4.69,.05,6.78,1.36,4.11,2,8.44,1.24,12.7,.94,1.81-.13,3.6-.73,5.3,.39,.43,.42,.45,.86,.07,1.32-6.99,.68-13.93,3.88-21.03,.27-1.07-.54-2.59-.19-3.91-.25Z"/><path class="cls-56" d="M11.19,222.12c-1.47-1.73-2.09-3.79-1.72-5.96,.67-3.87-1.38-7.4-2.41-10.63-1.01-3.18-1.6-6.15-1.71-9.36,.44-.33,.91-.41,1.43-.24,3.21,1.56,3.89,5.16,4.52,7.77,.69,2.85,1.92,5.92,1.45,9.08-.03,3.2,.05,6.41-1.56,9.35Z"/><path class="cls-66" d="M12.18,212.08c-1.96-4.22-1.26-9.19-3.79-13.31-.6-.98-1.32-1.77-1.99-2.64-1.78-1.95,2.09-5.14-1.49-6.71-.26-.42-.44-.86-.53-1.33,.07-1.97-.74-4.07,.94-5.77,1.53-.31,2.03,.51,2.05,1.86-.27,1.51,.44,2.4,1.75,3.04,1.27,.62,2.15,1.48,1.15,3.01-.71,6.25,.87,12.12,3.31,17.76,.71,1.64,.29,2.79-.35,4.11-.35,.48-.7,.47-1.04-.02Z"/><path class="cls-6" d="M564.91,193.26c.32-.8,.83-1.73,1.74-1.38,1.54,.6,1.44,2.17,1.2,3.43-.67,3.48-.62,7.63-1.76,10.35-2.79,6.67-4.92,13.35-6.14,20.4-3.06-5.02-1.69-9.82,.74-14.56,1.96-4.17,1.73-8.7,2.18-13.12,.43-1.81,.64-3.7,2.04-5.13Z"/><path class="cls-13" d="M526.01,278.82c-5.12-1.03-7.92,3.61-12.07,4.93-2.07-3.78,.39-5.43,3.31-6.64,3.62-1.5,7.81-1.65,9.81-6.2,.93-2.12,4.2-1.09,6.39-1.58,.5,0,.97,.1,1.41,.32-2.29,3.69-5.79,6.22-8.85,9.17Z"/><path class="cls-12" d="M434.23,291.78c-3.69,0-7.23,1.61-10.97,.98-.38-.48-.48-1.01-.32-1.59,.43-.83,1.17-1.22,2.02-1.47,10.13,0,20.3-1.56,30.36,.86,1.98,.81,4.1,1.32,5.91,2.54,.65,.52,1.11,1.16,1.21,2.02-.16,.55-.52,.91-1.08,1.08-.33,.03-.72,.18-.98,.05-8.29-3.98-17.36-3.47-26.16-4.47Z"/><path class="cls-54" d="M29.23,274.85c-1.18,.05-2.26,0-3.04-1.17-5.53-8.26-11.84-16.06-14.88-25.75,.31-.32,.68-.41,1.11-.3,.58,.26,1.07,.65,1.51,1.1,.45,.45,.83,.95,1.15,1.49,.84,1.45,1.18,3.12,1.96,4.6,.94,1.96,2.69,3.3,3.88,5.08,1.84,3.29,4.23,6.25,5.92,9.64,.65,1.84,3.06,2.89,2.4,5.31Z"/><path class="cls-33" d="M357.31,286.89c-3.24-1.66-6.57,1.12-9.81-.21-.86-1.33-.96-2.42,.93-2.86,8.27,1.38,16.82,.42,24.94,3,.32,.62,.17,1.1-.46,1.42-5.2-.41-10.39-1.06-15.6-1.35Z"/><path class="cls-74" d="M30.25,259.8c3.05,3.43-3.04,4.26-2.03,7.11-2.76-3.11-5.68-6.11-7.64-9.84-.41-2.09-2.91-3.76-1.29-6.26,2.03,.15,2.51,2.32,4.06,3.09,.38,1.61,1.74,2.24,2.98,3,1.31,.97,2.62,1.93,3.92,2.9Z"/><path class="cls-1" d="M434.23,291.78c9.57-.43,18.95,.45,27.96,3.96,.12,.17,.24,.34,.37,.51-.13,.17-.25,.33-.38,.5h0c-1.13,.1-2.54,.68-3.34,.22-7.32-4.2-15.46-3.68-23.39-4.38-.42-.04-.8-.52-1.2-.8Z"/><path class="cls-27" d="M195.99,289.72c-.18-2.65,.3-6.18,2.55-6.54,2.61-.41,3.25,3.3,4.34,5.52-1.61,4.98-4.34,2.42-6.89,1.02Z"/><path class="cls-45" d="M206.82,292.76c-.18,1.03,.37,2.62-1.39,2.62-4.92-.02-9.84-.19-14.76-.3,.13-1.07,1.12-1.25,1.8-1.75,.37-.23,.77-.42,1.18-.57,2.37-1.36,5.11,.23,7.51-.92,1.09-.67,2.33-1.02,3.37-1.78,1.53,.25,1.6,1.75,2.31,2.7Z"/><path class="cls-47" d="M561.86,212.05c-3.11,4.34-2.05,9.24-1.92,14.02-.33,1.33-.66,2.66-.99,3.99-.79,1.13-1.66,2.04-3.18,1.1-.63-1.04-.31-1.92,.48-2.71,1.56-2.05,1.39-4.3,.84-6.63-.42-1.78-.55-3.6-.12-5.42,1.09-1.63,1.36-3.85,3.47-4.74,.53-.08,1.01,.06,1.42,.4Z"/><path class="cls-8" d="M556.1,231.08c.95-.34,1.9-.68,2.85-1.02-1.36,4.23-3.81,8.05-4.46,12.58-.27,1.87-1.58,3.56-3.64,4.25-.5-.59-.51-1.26-.33-1.96,1.53-4.3,2.55-8.78,4.66-12.88,.21-.42,.52-.74,.93-.97Z"/><path class="cls-71" d="M564.91,193.26c.1,1.72-.03,3.39-1.1,4.85-.88,2.12,.28,5.1-2.69,6.34-.51,.09-.96-.03-1.37-.34-.25-3.22,2.32-5.77,2.17-8.97,.49-1.42,1.76-1.62,2.98-1.88Z"/><path class="cls-78" d="M12.18,212.08c.35,0,.7,.01,1.04,.02,.02,2.29,.26,4.6-.01,6.85-.25,2.06-.53,3.79,1.7,4.99,2.27,1.22,.05,2.87,.23,4.32-1.32-2.04-2.64-4.09-3.96-6.13l1-10.04Z"/><path class="cls-30" d="M534.86,269.66c-.38,.03-.75,.07-1.13,.1-4.15,.3-8.05,1.57-11.86,3.15-1.41-3.19,.25-4.48,3.12-4.98,2.07-.36,4.21,.31,6.26-.38,.41-.28,.77-.61,1.08-1,1.29-.88,1.54-3.21,3.81-2.77,.51,.58,.68,1.26,.63,2.01-.3,1.19-.93,2.2-1.73,3.11-.1,.24-.16,.5-.19,.76Z"/><path class="cls-53" d="M51.1,292.8c-1.1,.02-2.26,.27-2.96-.95-.65-.99-.5-2.03-.22-3.09,3.66-.76,6.71,2.63,10.42,1.55,1.14,.14,1.75,.96,2.32,1.81,.27,.72,.28,1.45,.03,2.18-.23,.44-.59,.69-1.09,.72-2.3-2.75-5.66-1.5-8.5-2.22Z"/><path class="cls-32" d="M29.23,274.85c-.77-1.81-2.99-2.69-3.12-4.91,.3-.35,.68-.56,1.13-.63,.45,.01,.86,.13,1.26,.35,1.14,1.32,2.65,2.14,4.14,2.97,1.75,2.13,5.69,2.49,5.23,6.41-.16,.45-.47,.77-.9,.98-1.53-3.29-4.88-3.87-7.74-5.17Z"/><path class="cls-59" d="M19.3,250.8c-.13,2.29,2.48,3.65,2.04,6.05-.18,.13-.37,.26-.55,.4-.46,.03-.89-.09-1.29-.32-1.82-1.24-2.23-3.35-3.19-5.13-.65-2.31-3.77-3.9-2.04-6.9,1.9,1.78,4.66,2.83,5.03,5.91Z"/><path class="cls-66" d="M204.51,290.06c1.03,2.82-2.25,1.36-2.71,2.71-2.74,1.21-5.18-1-7.85-.68-.47-.45-.5-.92-.07-1.41,.95,.22,1.75,.12,2.1-.96,2.22-.85,5.13,2.91,6.89-1.02,.54,.45,1.09,.91,1.63,1.36Z"/><path class="cls-65" d="M46.2,287.77c-3.47-2.12-7.59-3.46-9.23-7.75,.17-.14,.35-.27,.52-.4,4.87,.81,7.58,4.23,9.9,8.14-.39,.4-.78,.4-1.18,.01Z"/><path class="cls-46" d="M51.1,292.8c3.24-.36,6.85-2.46,9.04,1.97,.21,.24,.28,.47,.2,.71-.08,.23-.15,.35-.22,.35l-9.02-3.03Z"/><path class="cls-53" d="M60.12,295.83c0-.35,.01-.7,.02-1.06l.06-.06c4.52-3.97,7.37,.88,10.92,2.05-1.71,3.22-4.19,1.45-5.64,.25-1.97-1.63-3.49-1.1-5.3-.31-.03-.29-.05-.58-.06-.87Z"/><path class="cls-25" d="M12.27,247.95c-.32-.01-.65-.02-.97-.02-.45-3.07-2.64-5.39-4.12-8.26,3.1-.74,3.12,1.69,4.13,2.87,1.74,1.55,2.65,3.25,.97,5.41Z"/><path class="cls-49" d="M535.05,268.9l.91-3.09c1.6-2.07,2.97-4.5,6.24-3.95,.31,.71,.35,1.4-.22,2.02-2.31,1.67-4.62,3.35-6.93,5.02Z"/><path class="cls-37" d="M5.35,189.16c6.01,1.47,.87,4.62,1.06,6.97-.35,.01-.7,.03-1.06,.04-.09-.29-.13-.58-.12-.88-.4-2.05-1.49-4.12,.12-6.13Z"/><path class="cls-62" d="M10.27,190.23c-.05-1.55-1.22-2.1-2.37-2.71-1.62-.86-2.07-1.95-.53-3.33,.47,2.09,2.86,1.63,3.92,2.93-.07,1.13,.18,2.36-1.02,3.12Z"/><path class="cls-50" d="M548.12,253.08c-1.05,2.28-2.09,4.56-3.14,6.84-.45,.4-.88,.39-1.32-.02-1.64-3.17-.39-5.35,2.39-7.02,.46-.24,.95-.32,1.47-.26,.2,.15,.4,.31,.6,.46Z"/><path class="cls-21" d="M14.27,244.89c-.16,2.85,2.56,4.46,3.04,7.03-.21,.08-.42,.17-.64,.25-1.27-.21-1.63-1.52-2.6-2.1l-.88-1.01c-.22-1.78-1.61-3.8,1-5.02,.1,.28,.13,.56,.08,.86Z"/><path class="cls-35" d="M5.35,189.16c-.04,2.04-.08,4.08-.12,6.13-2.22-3.04-2.01-6.55-1.93-10.04,2.9,.17,.43,3.12,2.05,3.95v-.04Z"/><path class="cls-11" d="M423.22,291.7c.01,.35,.03,.71,.04,1.06-2.42,2.28-5.55-1.23-7.98,.99-.02-.36-.03-.73-.05-1.09-.25-.55-.13-1.01,.36-1.38,.46-.29,.95-.48,1.48-.6,2.13-.16,4.31-.61,6.14,1.02Z"/><path class="cls-37" d="M5.35,189.2c-1.73-.78-.41-3.13-2.05-3.95-1.32-2.34-.22-3.03,2.02-2.93,0,2.3,.02,4.59,.03,6.89Z"/><path class="cls-40" d="M14.19,244.04c-1.72,1.4-.6,3.36-1,5.02-.31-.37-.61-.74-.92-1.11,.23-1.9-.37-3.65-.97-5.41,1.29-.15,2.58-.28,2.88,1.49Z"/><path class="cls-99" d="M26.33,256.9c-1.64-.36-3.63-.38-2.98-3,.99,1,1.98,2,2.98,3Z"/><path class="cls-10" d="M543.84,259.87c.38,.02,.76,.03,1.14,.05-1,1.32-2,2.64-3,3.96,0-.64,0-1.29,.01-1.93-.47-1.66,.36-2.16,1.85-2.07Z"/><path class="cls-50" d="M549.9,247.92c.27,2.02,.21,3.92-1.79,5.15-.14-.12-.28-.25-.42-.38-.77-1.76,.02-3.22,.91-4.66,.41-.31,.84-.35,1.29-.11Z"/><path class="cls-36" d="M549.9,247.92c-.31,.04-.63,.05-.95,.05-1.09,.2-1.52-.48-1.33-1.33,.32-1.47,1.5-1.93,2.9-1.93,.21,.15,.42,.3,.64,.45-.11,.58-.21,1.16-.32,1.73-.31,.34-.63,.69-.94,1.04Z"/><path class="cls-46" d="M46.2,287.77l1.09-.12c.77-.1,1.1,.22,.93,1-.03,1.07-.06,2.14-.08,3.21-.65-1.36-1.29-2.72-1.94-4.08Z"/><path class="cls-61" d="M193.89,290.68l-.03,1.13c.32,.89-.18,1.24-.93,1.42-.49,.04-.89-.13-1.18-.52,.89-1.21,1.17-2.59,1.15-4.05,1.06,.31,.89,1.24,1,2.02Z"/><path class="cls-55" d="M123.99,296.75c0,.33,0,.66-.01,.99-5.11-.8-10.06-2.03-15.43-.52-2.92,.82-6.69,1.18-9.44-1.77-1.7-1.82-3.83-1.47-5.92-.61,.47-4.41,3.59-3.43,5.99-2.49,1.9,.75,3.57,1.34,5.54,.74,1.24,.4,2.48,.84,3.83,.48,2.17-.35,4.29,.08,6.42,.38,2.92,1.21,6.87-.89,9.03,2.79Z"/><path class="cls-44" d="M104.97,293.83c-1.89,.45-3.63,.74-5.59-.28-2.17-1.13-4.7-1.81-6.19,1.29-.04,.31-.07,.63-.11,.94-1.48,.08-2.46-.61-3.07-1.92-1.45-.98-3.38-.67-4.8-1.75-.24-.24-.33-.49-.26-.75,.06-.26,.13-.39,.21-.39,.3-.1,.6-.2,.9-.28,1.2-.76,2.34-.84,3.58,.04,1.41,1.01,2.93,1.36,4.39,0,3.79-3.09,5.82,1.82,8.91,1.94,1.18-.5,2.21-.76,2.03,1.14Z"/><path class="cls-69" d="M521.91,272.78c3.04-4.53,7.78-2.44,11.82-3.02-.95,1.75-2.61,.84-3.96,1.03-.97,.13-2.4,.09-2.4,1.19,0,6.09-5.36,4.49-8.45,5.68-3.13,1.21-5.29,2.43-4.98,6.1-.57,.08-1.15,.16-1.72,.24-2.16-1.39-3.14-3.15-1.82-5.65,1.42-2.8,4.4-2.41,6.75-3.32,1.66-.6,2.62-2.68,4.76-2.24Z"/><path class="cls-17" d="M492.85,289.66c.75-.62,1.5-1.24,2.25-1.86,1.06-.67,2.03-1.44,3.07-2.14,4.4-2.97,8.92-4.22,13.74-.93-3.9,3-8.11,5.04-13.23,4.41-1.77-.22-3.12,.86-4.53,1.7-.38,.35-.78,.39-1.22,.11-.27-.41-.3-.84-.08-1.29Z"/><path class="cls-42" d="M492.97,290.69c.39,.05,.79,.1,1.18,.15-4.07,3.27-8.53,5.5-13.93,5.05-1.2-.1-2.3-.21-3.16,.83-1.65,1.1-2.89,.47-3.95-.93h0c-.25-.27-.33-.55-.26-.83,.08-.28,.15-.42,.23-.42,3.73-2.2,8.47,.07,12.06-2.72l-.06-.09c2.54-.98,5.16-1.39,7.87-1.03Z"/><path class="cls-24" d="M511.91,284.73c-4.86-.96-9.57-.79-13.89,2-.77-3.51,2.16-3.82,4.22-4.89,1.67-.79,3.62-.94,5.09-2.21,1.17-.7,2.22-2.01,3.77-.75-1.49,2.11,1.27,3.3,1.12,5.12-.06,.26-.16,.51-.31,.73Z"/><path class="cls-31" d="M473.3,294.5c-.06,.43-.12,.85-.19,1.28-2.29-1.82-4.08-.42-5.87,.92-1.53-1.14-3.54,.23-5.06-.97h0c-.02-.32-.03-.64-.03-.96,1.59-1.78,3.96-1.04,5.86-1.83,1.58-.34,3.15-.54,4.67,.26,.54,.27,.75,.7,.61,1.29Z"/><path class="cls-12" d="M462.18,295.74c1.7,.23,3.6-.56,5.05,.97-1.69,.01-3.37,.03-5.06,.04,0-.34,0-.67,0-1.01Z"/><path class="cls-31" d="M473.11,295.78c1.24,.62,2.51,1.14,3.95,.94-1.75,1.5-3.18,1.69-3.95-.94Z"/><path class="cls-29" d="M159.85,297.86c-.32-.02-.63-.05-.94-.11-2.51-1.63-5.99,1.02-8.22-1.85-.15-.57-.02-1.07,.38-1.5,1.49-1.02,3.19-1.06,4.8-.65,3.98,1,7.85,.61,11.84-.08,2.59-.45,5.77-1.55,7.37,2.1,.13,.58-.06,1.04-.55,1.37-3.2-.34-6.35-.78-9.48,.74-1.57,.76-3.46,.63-5.2,0Z"/><path class="cls-57" d="M151.03,294.62l-.03,1.11c-.7,.58-1.42,.62-2.17,.08-.79-.03-1.5-.21-1.91-.99-4.37-.04-8.87,1.51-13.05-.99,.47-2.88,2.63-1.81,4.32-1.85,1.7,.78,3.28,1.05,4.97-.26,1.57-1.22,3.5-1.59,5.5-1.34,1.4,1.07,2.88,2.09,2.37,4.22Z"/><path class="cls-57" d="M159.85,297.86c2.3-.12,4.57-.17,6.71-1.37,2.72-1.53,5.45-.6,8.1,.44,.69,.49,.8,1.07,.28,1.75-.36,.02-.71,.04-1.07,.05-2.21-1.76-4.61-1.03-6.98-.5-2.39,.54-4.78,1.22-7.04-.39Z"/><path class="cls-39" d="M133.86,293.73c4.24,1.75,8.77,.05,13.06,1.1-3.66,.52-7.25,2.29-11.02,.44-2.06-1.01-3.01,1.9-4.93,1.47-.33-.34-.43-.73-.3-1.19,.75-1.15,1.53-2.26,3.19-1.83Z"/><path class="cls-44" d="M130.95,295.72c0,.34,.01,.68,.02,1.03-2.33,0-4.65,0-6.98,0-2.75-1.97-6.34,.13-9.09-1.86,.18-.2,.36-.41,.54-.61,2.33-1.06,4.77-.84,7.21-.66,.54,.07,1.05,.22,1.55,.43,2.07,1.26,4.84-.25,6.75,1.67Z"/><path class="cls-38" d="M148.83,295.82c.72-.03,1.44-.06,2.17-.08,2.31,1.97,5.67-.18,7.92,2.01-2.26,.15-4.58,.04-6.78,.5-2.29,.48-2.94-.62-3.3-2.43Z"/><path class="cls-65" d="M85.16,290.99c.09,.29,.16,.59,.21,.89,.25,.39,.18,.72-.21,.97h-.03c-2.52,1.63-5.93,1.42-8.07,3.85-1.97,.02-3.95,.04-5.92,.06-2-.11-4.07,.51-5.58-1.74-1.43-2.14-3.57,.32-5.34-.31,0-.66-.02-1.32-.03-1.98,.84-.88,1.91-.55,2.91-.53,.66,.01-.08-.39,.45-.1,6.97,3.77,13.23,0,19.69-1.73,.29-.08,.61,.12,.9,.3l1.03,.32Z"/><path class="cls-52" d="M77.05,296.7c1.73-3.29,5.18-2.99,8.07-3.85-2.09,2.54-5.45,2.43-8.07,3.85Z"/><path class="cls-52" d="M85.16,292.85c.07-.32,.14-.65,.21-.97,1.64,.47,3.48,.46,4.65,2-1.68-.05-3.36-.11-4.86-1.02Z"/><path class="cls-29" d="M174.94,298.69c-.09-.59-.18-1.17-.27-1.75l.25-.25c.99-1.1,2.49-1.22,3.68-1.94,2.26-.93,4.58-.87,6.92-.47,1.49,.31,3.38-.53,4.29,1.46-1.15,2.58-3.53,2.18-5.47,1.81-2.14-.41-3.79,.19-5.48,1.2-1.31-.02-2.62-.05-3.93-.07Z"/><path class="cls-34" d="M189.82,295.75c-1.36-1.01-2.75,.11-4.12-.08-.16-1.74-.5-3.58,2.11-3.79l-.04-.03c1.42,1.27,3.3,1.28,4.99,1.83-.36,.97-1.29,1.09-2.09,1.39-.28,.22-.56,.45-.85,.67Z"/><path class="cls-58" d="M561.92,195.14c-.94,1.62-2.93,1.4-4.36,2.41-6.45,4.54-9.96,11.27-13.4,17.69-6.21,11.62-11.79,23.52-20.1,33.91-3.35,4.19-9.63,10.52-14.14,12.47,7.57-8.39,12.91-16.94,17.08-26.25,2.83-6.33,6.31-23.99,5.12-28.01-7.38,11.18-15.85,21.27-25.88,29.89-10.87,9.35-29.25,17.33-36.34,15.81,6.88-2.71,12.01-7.21,17.43-11.1,13.85-9.96,25.77-21.88,33.17-37.67,2.74-5.85,4.8-14.82,3.87-19.44-9.89,19.28-13.16,21.21-27.78,30.54-8.57,5.48-18.72,8.96-28.31,13.04-13.51,5.74-26.51,12.99-38.22,22.13-1.03,.8-1.76,2.57-3.93,1.22,15.22-16.3,31.46-30.73,53.95-36.31-12.7-2.72-23.79,2.58-35.04,6.37-11.79,3.97-20.68,12.36-29.55,22.34-.14-3.29,1.05-4.5,1.93-5.76,7.21-10.37,16.89-18.24,27.3-25,8.63-5.6,17.81-10.29,24.35-19.06-5.82,.33-6.86-4.33-8.83-7.89-2.06-3.72-2.29-8.44-6.15-11.19-.69-.49-2.01-.65-1.3-1.99,1.15-2.17,3.03-2.2,4.64-2.27s3.57,.16,5.13,.58c3.52,.96,6.66,1.63,8.83,4.36,1.2,1.51,7.47,.87,7.57-.61,.14-2.17,.99-4.54-.88-6.61-1.93-2.14-4.74-2.14-6.35-1.05-5.81,3.93-11.7-.16-17.54,1.11,.69-1.45,1.77-2.28,2.34-3.38,1.78-3.42,3.89-7.08,3.36-10.86-.33-2.34-4.16-1.7-6.96-2.82,4.77-2.88,7.28-7.89,13.38-8.15,2.71-.12,3.7-3.5,3.37-5.92-.44-3.24-3.49-2.21-5.58-2.14-2.97,.11-3.72,1.64-2.15,4.26,.5,.84-.09,1.56-.76,2.11-5.21,4.25-9.97,9.38-15.82,12.4-3.36,1.74-7.26,2.5-10.04,5.46-.47,.5-1.13,.84-1.7,.31-.3-.27-.37-.9-.36-1.37,.08-3.43,6.94-12.93,10.28-12.79,2.58,.11,2.66-1.36,3.23-3.35,.35-1.24,.41-1.87-.84-2.71-1.03-.7-2.48-1.5-3.71-1.21-1.05,.24-3.05,1.19-2.76,2.36,.51,2.05-1.18,4.17-2.62,5.82-1.02,1.17-2.16,2.27-3.04,3.56-.78,1.14-1.08,2.49-1.82,3.64-1.15,1.81-2.89,.6-3.89-.68-1.34-1.71-2.51-3.55-3.5-5.48-.62-1.21-1.21-4.4-2.81-4.45-1.74-.05-1.72,1.42-2.12,2.27-2.46,5.23-4.31,10.74-5.17,16.42-.32,2.12-1.22,5.06,1.74,6.93,.84,.53,2,2.68-.92,3.41-1.95,.49-3.71,1.85-5.45,2.99-2.46,1.6-4.57,7.14-3.06,7.74,3.67,1.45,5.92,5.21,10.29,5.41-15.7,17.77-25.15,37.58-25.76,61.82-2.94-4.91-1.65-9.56-2.04-13.99-.1-1.14,.91-2.86-1.07-3.29-1.49-.32-2.09,.85-2.96,1.96-2.7,3.46-3.24,7.49-4.51,11.47-1.59,4.99-2.35,9.57-1.36,14.54,.38,1.91,1.77,3.62,1.2,5.75-3.27-.38-4.67-3.93-7.99-4.38-1.45-.2-3.02-1.13-4.05,.1-.95,1.13,.28,2.61,.93,3.57,2.45,3.57,2.7,7.81,3.86,11.76,.16,.54,1.52,1.29,.12,1.85-.52,.21-1.52,.1-1.86-.27-1.54-1.67-2.92-3.49-4.37-5.24-.95-1.14-2.31-2.22-3.61-1.86-1.8,.5-1.86,3.02-1.71,4.08,.21,1.44,.08,3.8,2.36,4.44,5.46,3.84,10.87,7.78,18.17,4.87,.57-.23,1.29,.19,1.95,.28,.91,.18,1.77,.54,2.63,.87,2.68,1.86,5.28,3.54,8.85,1.84,1.42-.68,3.16,.21,4.71,.7,1.29,.42,2.22,1.53,3.57,1.82,.46,.03,.92,.02,1.38-.06,4.11-.03,8.01-1.21,11.93-2.24,7.34,.45,14.69-1.09,22.02,.07,.5-.04,.99-.11,1.47-.24,.48-.14,.92-.33,1.34-.59,.88-.76,1.48-1.8,2.39-2.53,7.12-1.7,13.85,.73,20.69,1.99,.63,.3,1.27,.6,1.95,.8,1.45,.62,2.75-.59,4.18-.38,.78,1.48,.22,3.24,1.15,4.61,3.95,2.17,7.92,.98,11.88,.07,.43-.16,.86-.33,1.26-.54,2.26-1.43,4.65-2.42,7.41-1.96,1.01-.56,2.04-1.09,2.84-1.96,1.75-2.23,3.16-4.65,3.93-7.38,.39-1.37,.8-2.58,2.62-2.09,.96,.17,1.93,.29,2.92,.27,2.89,.03,4.97-1.1,5.8-4.04,.39-2.56,3.57-4,3.24-6.54-.58-4.47,3.62-3,5.32-4.39,1.85-1.51,1.86,1.84,2.86,2.89,.37,.3,.78,.52,1.25,.64,3.3,.11,6.76,.95,9.42-1.99,1.77-2.13,4.52-3.2,6.08-5.56,.85-2.07,1.91-4,3.3-5.76,.42-.55,.82-1.1,1.16-1.7,1.41-4.96,5.19-8.7,6.96-13.48,1.58-4.91,5.44-8.82,6.17-14.1-.02-.74-.13-1.48-.31-2.2-.7-2.63-.87-5.15,1-7.48,1.08-1.34,1.49-3,1.04-4.66-.73-2.67,.15-4.8,1.86-6.74,.34-2.97,3.34-5.56,1.26-8.87Zm-161.76,41.57c-.28,.84-.58,1.92-1.89,2.29-2.29-1.51-.09-3.14,.09-4.62,1.13-9.23,5.95-17.18,9.14-25.7,2.5-6.68,7.98-11.39,12.02-17.05,1.29-1.81,2.37-1.59,3.39,.57,1.59,3.37,4.96,5.35,7.1,8.3,1.26,1.74,3.09,1.4,4.5,1.44,1.76,.05,1.69-2.06,1.95-3.46,.5-2.69,2.29-5.17,.73-8.8,9.15,5.02,18.07,7.43,27.94,5.94-3.82,1.52-6.47,4.47-9.9,6.15-6.34,3.09-13.06,5.16-19.52,7.83-6.38,2.64-13.12,5.02-18.8,8.83-6.89,4.61-13.9,9.69-16.74,18.29Z"/><path class="cls-85" d="M511.09,278.87c-1.48-.08-2.42,.7-3.05,1.95-1.24,.72-2.7,.93-3.7,0-1.12-1.04,.02-2.07,.71-2.97,2.85,.16,5.25-.26,5-3.98,1.57-.87,3.29-1.76,3.94-3.44,1.48-3.83,4.46-4.21,7.87-3.9,.05,1.26-1.96,6.07-3.87,9.25-1.8,2.14-5.61-.19-6.91,3.08Z"/><path class="cls-72" d="M522.1,266.97c-3.3,.91-7.03,.95-8.21,5.37-.39,1.45-2.3,1.61-3.83,1.54,.96-1.31,1.94-2.61,2.89-3.94,.36-.5,.78-1.03,.92-1.61,.41-1.68-3.98,.04-1.96-2.37,1.6-1.91,4.7-1.4,6.93-3.39,1.45-1.29,5.33,.21,4.19,4.27-.27,.35-.57,.39-.93,.13Z"/><path class="cls-95" d="M416.16,291.68c-.28,.04-.56,.09-.84,.13-3.49,.56-6.97,1.27-10.52,.42-.62-.33-.78-.81-.48-1.44h0c4.3-1.08,9.12,.09,12.93-3.03,7.63,.04,15.26-1.08,22.89-.03,.11,2.87-2.14,1.83-3.52,2.01-3.62,.47-7.26-.77-10.88,.06-.46,.07-.91,.18-1.35,.33-2.48,1.88-5.64,.22-8.22,1.56Z"/><path class="cls-86" d="M443.29,284.88c1.32-1.9,3.33-1.11,4.99-1.07,6.09,.14,12.09,.94,17.86,3.04,.55,.55,.6,1.18,.35,1.88-1.41,1-3.25,1.16-4.6,2.31-1.86-.49-3.06-3.46-5.62-1.4-.54,.43-1.35,.12-1.73-.48-2.28-3.58-6.2-2.37-9.41-3.25-.72-.15-1.37-.43-1.84-1.02Z"/><path class="cls-71" d="M559.75,204.11l1.18,.06c1.08,2.64,1.73,5.27-.14,7.85-1.33,1.11-2.22,2.51-2.84,4.1-1.34,2.15-.12,5.07-2.08,7.04-.23-.23-.61-.42-.67-.69-1.2-5.79,4.17-10.72,2.27-16.68-.09-.29,1.48-1.11,2.28-1.68Z"/><path class="cls-51" d="M456.07,291.95c-10.51-2.57-21.19-.66-31.77-1.13-.35-.22-.47-.46-.38-.72,.1-.26,.2-.39,.31-.39v.02c3.99-1.54,8.1-.06,12.15-.43,1.73-.16,3.7,.53,4.85-1.48,.24-.16,.5-.22,.78-.19,.9-.56,1.85-.85,2.91-.62,2.3,.87,4.61,1.7,7.13,1.62,1.81,.28,3.25,1.17,4.33,2.64-.11,.23-.21,.46-.32,.68Z"/><path class="cls-76" d="M556.1,231.08c-.14,.26-.23,.53-.28,.81-2.67,3.71-3.02,8.34-4.94,12.35-.58,.13-1.03-.06-1.33-.57-.04-1.59-.4-3.21,.37-4.73,1.01-5.13,5.25-8.84,6.18-14,3.93,.68,.66,2.67,.74,4.04-.83,.49-.88,1.26-.73,2.1Z"/><path class="cls-86" d="M522.1,266.97c.31-.03,.62-.08,.93-.13,.32,.04,.65,.07,.98,.08,2.87,1.13,6-.3,8.86,.89-1.89,2.11-4.37,.98-6.55,1-2.88,.02-4.4,1.03-4.41,3.98-1.3,1-2.6,2-3.9,3.01,.49-3.35,.75-6.8,4.1-8.82Z"/><path class="cls-82" d="M503.04,282.78c-1.68,1.3-4.89,.67-5.03,3.94-.97,.36-1.95,.72-2.92,1.07,1.76-2.84,3.87-5.46,4.09-9.07,.12-2.08,1.39-2.36,2.9-.86,1.08,1.49,2.06,3,.96,4.92Z"/><path class="cls-60" d="M390.26,290.86c-.55-.42-1.11-.83-1.66-1.25-.97-.26-1.69-.8-1.94-1.82-.08-.74,.1-1.4,.64-1.93,2.88,1.37,5.42,3.91,9.16,1.42,.77-.52,3.53,.12,4.98,1.45-.85,1.46-2.24,1.85-3.79,1.94-2.5-1.66-4.9,1.25-7.39,.19Z"/><path class="cls-98" d="M549.92,238.94c0,1.65,.01,3.3,.02,4.96-1.03,1.6-3.27,2.44-2.54,5.15,.35,1.3-.69,2.8-1.99,3.71-.39,.25-.81,.43-1.26,.55-.48,.03-.89-.12-1.24-.45,.75-5.44,4.65-9.29,7.01-13.92Z"/><path class="cls-20" d="M556.83,228.98c-.54-1.29,1.95-3.14-.74-4.04-.08-.6-.15-1.19-.23-1.78,.17-2.5,.23-5.03,2.08-7.04-.12,2.62,.22,5.16,.81,7.74,.43,1.87,.12,3.95-1.93,5.13Z"/><path class="cls-15" d="M387.3,285.86c0,.67,.01,1.33,.02,2-.59,.57-1.32,.87-2.1,1.07-3.36,1.28-6.8,.99-10.25,.55-.78-.32-1.39-.8-1.64-1.64l.05-1.01c4.34,1.29,8.55,1.69,12.17-1.83,.59,.29,1.17,.58,1.75,.87Z"/><path class="cls-41" d="M441.23,287.82c-.36,2.39-2.24,1.96-3.8,1.97-4.4,.02-8.81-.03-13.21-.05,2.28-1.75,4.7-1.75,7.47-1.19,2.79,.56,5.84,1.45,8.46-.82,.36,.03,.72,.06,1.09,.1Z"/><path class="cls-5" d="M473.3,294.5c-.05-.23-.13-.44-.25-.64-.29-.27-.4-.6-.3-.99,.13-.14,.26-.28,.38-.42,4.04,.52,8.02-.18,12.02-.64-.08,1.04-.4,1.96-1.6,2.04-3.41,.25-6.83,.44-10.25,.65Z"/><path class="cls-84" d="M467.15,287.81c2.29,.4,3.71-1.17,5.09-3.15,1.43,3.06,.7,5.48,.9,7.8-.04,.18-.04,.35,0,.53-.41,.21-.8,.19-1.19-.04-.93-1.04-1.23-2.68-2.91-3-.88-.49-2.31-.51-1.89-2.14Z"/><path class="cls-89" d="M536.04,264.07c-1.8,.15-1.76,2.18-2.99,2.91-.69-.68-.6-1.39-.08-2.11,1.29-2.47,3.95-3.33,5.92-4.99,.68-.62,1.19-1.76,2.39-.76,.22,3.72-2.86,3.97-5.24,4.95Z"/><path class="cls-61" d="M417.25,287.76c-3.53,4.31-8.48,2.62-12.93,3.03,4.31-1.01,8.62-2.02,12.93-3.03Z"/><path class="cls-97" d="M492.97,290.69c-2.5,1.3-5.19,1.15-7.87,1.03,2.36-1.55,4.4-4.27,7.76-2.06,.04,.34,.08,.68,.12,1.02Z"/><path class="cls-100" d="M503.04,282.78l-.96-4.92c.99,0,1.99,0,2.98-.01-1.14,3.13,.84,3.13,2.98,2.96-1.32,1.54-3.52,.84-5,1.96Z"/><path class="cls-17" d="M445.21,287.87c-1.07-.08-2.14-.16-3.2-.24,.43-.92,.85-1.83,1.28-2.75,.64,0,1.27,0,1.91-.01,1.12,1.24,4.65-.23,3.74,3.3-1.29,.54-2.52,.24-3.72-.3Z"/><path class="cls-61" d="M397.3,289.79c1.38-.36,2.76-.71,4.15-1.07,1.49-.04,1.86,1.46,2.88,2.07,0,.34,0,.67,0,1.01-2.04,1.74-3.98,.2-5.95-.2-.74-.38-1.32-.85-1.08-1.81Z"/><path class="cls-85" d="M532.98,264.87c.03,.7,.05,1.41,.08,2.11-.03,.29-.09,.56-.19,.83-2.97-.19-6.07,.95-8.86-.89,2.93-.95,6.54,1.09,8.97-2.05Z"/><path class="cls-90" d="M467.15,287.81c.72,1.21,1.93,.92,3.02,1,.05,2.28-1.9,3.16-3.17,4.52-1.2,.48-2.39,.52-3.56-.08-.38-.31-.58-.71-.59-1.2,.71-1.48,2.38-2.01,3.31-3.29,0-.64-.02-1.28-.03-1.92,.34,.32,.67,.64,1.01,.96Z"/><path class="cls-64" d="M541.07,258.96c-.72,.31-1.45,.61-2.17,.92-.06-2.54,1.51-4.23,3.06-5.94,1.37,1.41,1.09,3,.52,4.63-.36,.53-.83,.66-1.41,.4Z"/><path class="cls-22" d="M541.91,258.9c.02-1.65,.04-3.31,.06-4.96,.32-.36,.63-.71,.95-1.07,.35,.03,.71,.05,1.06,.08-.89,1.92,.93,4.77-2.07,5.95Z"/><path class="cls-96" d="M178.83,295.74c-.96,1.73-2.52,1-3.91,.95-1.13-2.47-3.18-2.53-5.38-1.95-6.19,1.64-12.35,.65-18.52-.11-.75-1.25-1.49-2.5-2.24-3.75,.38-.56,.85-.65,1.41-.27,.58,.39,1.16,.77,1.75,1.16,4.6,1.36,9.23,2.23,14.02,1.11h0c1.43-1.16,3.31-.18,4.8-1.05,1.21-.24,2.23,.17,3.15,.9h.02c.41,.53,1.06,.69,1.62,.98,1.14,.61,2.46,.92,3.27,2.04Z"/><path class="cls-19" d="M48.23,288.64c-.31-.33-.62-.66-.93-.99-2.57-3.53-6.6-5.28-9.81-8.03,.35-3.97-4.64-3.61-5.42-6.67,.36-.34,.79-.5,1.29-.49,5.63,1.56,7.53,7.3,11.74,10.45,3.51,4.57,8.34,6.53,13.92,6.98,.55,.37,.54,.73-.02,1.08-3.73-.15-7.61,.43-10.78-2.33Z"/><path class="cls-75" d="M84.13,290.67c-4.27,2.55-9.05,3.31-13.84,4.29-3.13,.64-4.3-3.17-7.15-2.2-.33-.22-.45-.45-.35-.68,.1-.24,.2-.36,.31-.36h.01c1.99-1.18,3.74-1.09,5.09,1,2.19,.08,3.95,1.07,6.23-1.57,1.67-1.93,6.31-2.36,9.69-.48Z"/><path class="cls-72" d="M49.39,258.7c4.65-1.42,6.26,1.19,8.38,2.45,.67,.4,1.2,1.22-.12,1.79-2.05,.88-3.07,2.85-4.52,4.37-.79,.83-1.57,2.77-3.02,1.64-1.74-1.36,.42-2.18,1.05-3.07,1.82-2.54,3.88-4.99-1.78-7.17Z"/><path class="cls-16" d="M123.98,294.81c-.31-.03-.61-.07-.91-.11-2.48-1.81-5.19,.21-7.74-.45-.47,0-.91-.09-1.34-.26-.28-.42-.27-.83,.05-1.23,3.91-1,7.7-2.64,11.71,.29,.92,.67,3.47,.63,5.08-.71,2.55-2.14,5.37-2.02,8.26-.69-.21,.18-.41,.35-.62,.53-2.4,.09-4.61,.09-6.68,2.01-2.15,2-5.12,1.21-7.8,.62Z"/><path class="cls-16" d="M150.19,290.61c-.47,.09-.94,.18-1.41,.27-3.47,.15-6.11,4.3-10.06,2.07-.26-.32-.25-.64,.02-.95l.34-.35c1.34,.2,2.37,.1,3.38-1.2,2.76-3.54,4.65-3.42,7.72,.16Z"/><path class="cls-87" d="M45.1,282.91c-5.56-1.48-7.11-7.7-11.95-10.03-.28-.44-.25-.85,.11-1.23,1.49-.16,2.74,.45,3.94,1.22l3.01,2.97c1.22,2.09,4.03,2.62,4.96,5l-.07,2.07Z"/><path class="cls-79" d="M178.83,295.74c-1.72,.12-3.21-.21-4.03-1.95,1.51-1.22,3.53,.19,5.05-.99,1.71,.9,3.05,.06,4.36-.93,1.2-.9,2.4-1.82,3.59,.01-.7,1.26-1.4,2.53-2.11,3.79-2.29-.42-4.59-1.42-6.86,.07Z"/><path class="cls-74" d="M37.2,272.88c-1.36-.31-2.72-.63-4.08-.94-1.74-.01-3.61,.25-4.38-1.95-.27-.78-.13-1.48,.43-2.08,1.1-.47,3.01,4.55,3.55-.59,.14-1.38,1.9-1.58,3.8-1.14-1.8,2.45-1.8,4.79,.67,6.7Z"/><path class="cls-59" d="M29.18,267.9l.09,1.91c-.32,.57-.72,.63-1.19,.18-.26-.04-.52-.1-.77-.16-.76-.47-1.51-.96-1.84-1.85-.12-2.03-.79-3.72-2.85-4.55-.79-.59-.96-1.5-1.26-2.35-.15-1.35-1.36-2.64-.21-4.05l.18-.18c2.4,3.28,6.3,5.54,6.88,10.05,.32,.33,.64,.67,.96,1Z"/><path class="cls-23" d="M114.03,292.76c0,.31,.02,.63,.07,.94-1.87,1.37-4.22-.19-6.11,1.01-1.08-.04-2.25,.23-3.02-.87-.68-.38-1.35-.76-2.03-1.14,3.7,.53,7.42-3.34,11.1,.07Z"/><path class="cls-61" d="M165.96,292.87c-2.93,3.33-6.3,.21-9.44,.47-1.31,.11-4.17,1.93-4.58-1.57,4.67,.37,9.35,.74,14.02,1.11Z"/><path class="cls-75" d="M94.03,290.75c-.63,1.69-1.73,2.35-3.38,1.34-1.43-.87-2.95-1.27-4.59-1.39,1.24-1.73,2.34-3.84,4.41-.66,.82,1.27,2.36,.51,3.56,.71Z"/><path class="cls-61" d="M170.87,292.71c-1.64,.05-3.28,.1-4.91,.16,.95-1.67,3.28-1,4.47-3.09,.88-1.54,2.99-.04,3.45,2-.95,.48-2.25-.15-3.01,.93Z"/><path class="cls-73" d="M144.69,277.71c-3.15-.02-3.26-2.65-5.35-3.38,3.41-1.18,3.9,1.26,5.35,3.38Z"/><path class="cls-74" d="M45.17,280.85c-1.67-1.65-4.76-1.9-4.96-5,2.36,.97,4.95,1.71,4.96,5Z"/><path class="cls-70" d="M68.2,292.72c-1.6-.84-3.31-1.1-5.09-.99,2.25-2.51,4.25-3.7,5.09,.99Z"/><path class="cls-80" d="M32.75,225.66c1.13-1.97,2.4-1.45,3.91-1.47-.89,2.2-2.2,1.95-3.91,1.47Z"/><path class="cls-70" d="M63.1,291.72c.01,.35,.03,.69,.04,1.04-.99,0-1.98-.02-2.96-.03-.39-.59-.78-1.17-1.17-1.76,0-.36,.01-.72,.02-1.08,1.36,.61,2.72,1.22,4.08,1.82Z"/><path class="cls-81" d="M37.39,231.68c1.92,.36,1.79,1.69,2.39,3.12-2.29-.41-2.55-1.51-2.39-3.12Z"/><path class="cls-79" d="M192.75,293.69c-2,.31-3.85,.2-4.98-1.83,1.32,.29,2.65,.57,3.97,.86,.36,.02,.72,.04,1.08,.06,.35,.23,.46,.45,.32,.65-.13,.19-.26,.28-.39,.28h0Z"/><path class="cls-61" d="M179.85,292.8c-1.42,1.64-3.36,.71-5.05,.99-.29-.36-.58-.72-.87-1.08,1.97,.03,3.94,.05,5.91,.08Z"/><path class="cls-26" d="M52.93,229.13l-1.04-.8c.3-.31,.56-.77,.91-.87,.25-.07,.63,.38,.96,.59l-.83,1.08Z"/><path class="cls-83" d="M23.23,222.08c.91,.1,2.19,.11,2.17,1.19-.02,1.36-1.4,.57-2.16,.79,0-.66,0-1.32-.01-1.98Z"/><path class="cls-79" d="M170.87,292.71c.3-2.57,1.76-1.43,3.01-.93,.02,.31,.03,.63,.03,.94-1.01,0-2.03,0-3.04-.01Z"/><path class="cls-28" d="M373.32,287.82l1.15,.84c.3,.23,.4,.52,.29,.88-.14,.1-.28,.2-.42,.3-.64-.03-1.28-.06-1.92-.09-3.18-1.35-6.49-1.99-9.95-1.94-1.76,.02-3.65,.54-5.16-.92,5.39-.6,10.68,.48,16.01,.94Z"/><path class="cls-20" d="M398.3,290.72c2.19-.68,3.85,1.66,6.03,1.08,3.67,0,7.33,.01,11,.02,0,.28-.04,.56-.08,.84-6.35,.26-12.8,2.78-18.98-.81,.39-.89,1.52-.46,2.04-1.13Z"/><path class="cls-28" d="M385.38,287.95c.65-.03,1.3-.06,1.94-.09,.43,.59,.85,1.17,1.28,1.76-4.74,.86-9.47,2.4-14.26,.23l.12-.14c3.53-1.25,7.6,.83,10.91-1.76Z"/><path class="cls-92" d="M398.3,290.72c-.68,.37-1.36,.75-2.04,1.13-1.8-1.55-4.38,1.67-6-.99,2.4,.03,4.32-3.13,7.03-1.06,.33,.31,.67,.62,1,.93Z"/><path class="cls-43" d="M560.79,212.01c.86-2.6-1.44-5.26,.14-7.85,2.07-1.49,1.24-4.36,2.88-6.05,.47,4.8,.18,9.5-1.95,13.94-.36-.01-.71-.03-1.07-.04Z"/><path class="cls-69" d="M463,291.88c.04,.29,.1,.58,.18,.87,1.42,1.1,3.11,.21,4.62,.6,.15,.17,.3,.34,.45,.52-1.85,1.52-4.08,.52-6.1,.91-.35-.32-.71-.64-1.06-.96-.56-.63-1.53-1.06-1.06-2.18,.56-.51,1.23-.44,1.9-.37,.48-.01,.84,.19,1.07,.61Z"/><path class="cls-41" d="M424.22,289.72c.02,.37,.05,.74,.07,1.1-.36,.29-.71,.58-1.07,.87-2.35,0-4.71-.01-7.06-.02,2.24-2.46,5.57-.49,8.06-1.96Z"/><path class="cls-51" d="M460.17,291.78c.31,.68,.62,1.36,.93,2.04-1.68-.62-3.35-1.25-5.03-1.87l.24-.4c1.4-1.9,2.69-1.78,3.86,.23Z"/><path class="cls-21" d="M17.3,251.92l2.92,5.04c.75,.58,.44,1.46,.61,2.21-.11,.41-.35,.7-.73,.87-1.52-1.51-3.51-2.66-3.89-5.05-.81-1.28-.29-2.18,.82-2.92l.27-.15Z"/><path class="cls-21" d="M22.15,260.95l1.08,2c2.24,.92,2.48,2.98,2.84,4.97,.41,.64,.82,1.28,1.24,1.92-.4,.04-.79,.07-1.19,.11-2.09-3.25-4.83-6.1-6.01-9.9l.34-.27c1.04-.28,1.29,.57,1.71,1.17Z"/><path class="cls-40" d="M17.03,252.07c-.27,.97-.55,1.95-.82,2.92-.71-1.64-1.42-3.29-2.14-4.93,.99,.67,1.97,1.34,2.96,2Z"/><path class="cls-34" d="M192.74,293.7c0-.31,.03-.62,.07-.93,.35-.32,.69-.64,1.04-.96,2.78-.74,5.24,1.14,7.95,.96-2.85,1.97-6.12-.2-9.06,.93Z"/><path class="cls-36" d="M550.81,243.9c1.32-4.15,.67-9.11,5.01-12.01-1.2,4.54-2.02,9.22-4.66,13.26l-.28-.23c-.31-.21-.42-.43-.34-.67,.08-.24,.17-.36,.27-.36Z"/><path class="cls-18" d="M541.91,258.9c1.99-1.53,.45-4.29,2.07-5.95h0c.95-.64,1.91-.75,2.89-.05-1.76,2-3.52,4-3.02,6.97-.89,.45-1.56,1.09-1.85,2.07-2.01,1.29-4.03,2.58-6.04,3.87,.03-.58,.06-1.16,.09-1.74,1.69-1.69,4.6-2.19,5.03-5.11,.28-.01,.56-.03,.83-.06Z"/><path class="cls-93" d="M28.07,270c.4-.06,.79-.12,1.19-.18,1.29,.7,2.57,1.41,3.86,2.12,.03,.32,.03,.63,.03,.95-.36,.02-.72,.04-1.08,.07-2.02-.05-3.58-.73-3.99-2.95Z"/><path class="cls-91" d="M22.15,260.95c-.57-.39-1.14-.78-1.71-1.17-.07-.94-.14-1.87-.21-2.81,.31,0,.62,.02,.93,.06,.33,1.31,.66,2.61,1,3.92Z"/><path class="cls-22" d="M546.86,252.9l-2.89,.05c1.45-1.17,2.91-2.96,2.53-4.46-.87-3.4,1.59-3.61,3.43-4.59,.29,.02,.59,.02,.88,0,.02,.34,.05,.69,.07,1.03-.67,.99-3.61,.57-1.93,3.04,.31,1.77-.97,3.11-1.26,4.72-.27,.1-.55,.17-.84,.21Z"/><path class="cls-44" d="M107.99,294.7c1.8-1.75,4.08-.63,6.11-1.01,.28,.07,.55,.15,.81,.24,.38,.11,.52,.27,.44,.46-.09,.22-.19,.32-.3,.32l-.15,.16c-2.31-.06-4.61-.12-6.91-.18Z"/><path class="cls-69" d="M472.34,292.62c.28,.1,.54,.22,.8,.36-.01,.29-.04,.59-.08,.88-1.6,0-3.2,0-4.8,0l-.24-.25c-.21-.44-.15-.85,.13-1.24,1.47-1.25,2.86-1.09,4.19,.24Z"/><path class="cls-23" d="M138.74,292c.12,.32,.11,.63-.02,.95-1.68-.13-3.44-.71-4.86,.78-.97,.66-1.94,1.33-2.91,1.99-2.32-.31-4.82,.73-6.97-.91,3.33-.23,6.72,.24,9.56-2.51,1.2-1.16,3.42-.56,5.2-.3Z"/><path class="cls-23" d="M115.05,294.72c-.06-.26-.1-.52-.14-.79,1.79-.22,3.62,.08,5.35-.75,1.51-.72,2.56-.28,2.8,1.51-2.67,0-5.34,.02-8.01,.03Z"/><path class="cls-14" d="M460.17,291.78c-1.25-.77-2.53-.96-3.86-.23-1.34-.61-2.69-1.21-4.03-1.82-.73-1.16-3.19,.59-3.15-1.86-1.31-1-2.62-2.01-3.93-3.01,3.28,1.07,7.85-1.56,9.8,3.39,.13,.34,.42,1.06,1.02,.37,3.89-4.46,4.37,.67,6.14,2.17,.25,.2,.34,.4,.28,.62-.07,.22-.14,.33-.22,.33-.68,0-1.36,.02-2.05,.03Z"/><path class="cls-63" d="M462.21,291.75c-.02-.32-.04-.64-.06-.95-.29-3.87,2.22-2.24,4.01-2.03,.31,2.42-1,3.2-3.16,3.12-.27-.03-.53-.07-.79-.13Z"/><path class="cls-41" d="M449.13,287.87c1.05,.62,2.1,1.24,3.15,1.86-2.55,.12-5.12,.3-7.06-1.87,1.31,0,2.61,0,3.92,0Z"/><path class="cls-68" d="M385.38,287.95c-3.15,3.58-7.27,1.18-10.91,1.76,0-.35,0-.7,0-1.04,3.67,.26,7.33,.41,10.9-.71Z"/><path class="cls-67" d="M472.34,292.62c-1.41-.67-2.75,.02-4.12,.19-.43,.47-.82,.43-1.16-.11,.02-2.1,2.01-2.65,3.11-3.9,1.85,.63,1.88,2.3,2.17,3.81Z"/><path class="cls-94" d="M467.06,292.71c.39,.03,.77,.07,1.16,.11-.04,.28-.11,.54-.2,.81-1.65-.08-3.48,.81-4.84-.87,1.29-.02,2.59-.03,3.88-.05Z"/><path class="cls-91" d="M26.06,267.91c-.95-1.66-1.89-3.31-2.84-4.97,3.5,.2,2.95,2.71,2.84,4.97Z"/></svg>