<?xml version="1.0" encoding="UTF-8"?><svg id="Layer_1" xmlns="http://www.w3.org/2000/svg" viewBox="0 0 569.47 299.74"><defs><style>.cls-1{fill:#f3f6f6;}.cls-2{fill:#f3f5f5;}.cls-3{fill:#f2f4f4;}.cls-4{fill:#f9fbfa;}.cls-5{fill:#eef3f3;}.cls-6{fill:#ebefee;}.cls-7{fill:#ebeeee;}.cls-8{fill:#f0f2f2;}.cls-9{fill:#eaeded;}.cls-10{fill:#e6eeed;}.cls-11{fill:#e6eaea;}.cls-12{fill:#fcfcfc;}.cls-13{fill:#e3eceb;}.cls-14{fill:#e3e9e8;}.cls-15{fill:#e3e8e8;}.cls-16{fill:#edf2f2;}.cls-17{fill:#f1f3f3;}.cls-18{fill:#e5eae9;}.cls-19{fill:#e5edec;}.cls-20{fill:#e5e9e9;}.cls-21{fill:#e2ebea;}.cls-22{fill:#eff2f1;}.cls-23{fill:#7da7a3;}.cls-24{fill:#7d9593;}.cls-25{fill:#7fa8a5;}.cls-26{fill:#80a9a5;}.cls-27{fill:#738c8a;}.cls-28{fill:#809694;}.cls-29{fill:#819896;}.cls-30{fill:#728b89;}.cls-31{fill:#678280;}.cls-32{fill:#738d8a;}.cls-33{fill:#98bab7;}.cls-34{fill:#6b8683;}.cls-35{fill:#7c9492;}.cls-36{fill:#7c9391;}.cls-37{fill:#6a8583;}.cls-38{fill:#a0b1b0;}.cls-39{fill:#a0b1af;}.cls-40{fill:#849a98;}.cls-41{fill:#9eafae;}.cls-42{fill:#c2d6d4;}.cls-43{fill:#8a9f9d;}.cls-44{fill:#b8cfcd;}.cls-45{fill:#b8c4c3;}.cls-46{fill:#b8c5c4;}.cls-47{fill:#8bb1ad;}.cls-48{fill:#9cbcb9;}.cls-49{fill:#9caead;}.cls-50{fill:#9bbbb8;}.cls-51{fill:#8ca19f;}.cls-52{fill:#8ca09f;}.cls-53{fill:#b6c3c2;}.cls-54{fill:#c1cccb;}.cls-55{fill:#b3c1c0;}.cls-56{fill:#b3cbc9;}.cls-57{fill:#65807e;}.cls-58{fill:#728e8b;}.cls-59{fill:#bac6c5;}.cls-60{fill:#b9cfce;}.cls-61{fill:#8eb0ad;}.cls-62{fill:#92a6a4;}.cls-63{fill:#ced6d6;}.cls-64{fill:#ced7d6;}.cls-65{fill:#cdd6d5;}.cls-66{fill:#cddddc;}.cls-67{fill:#cdd5d5;}.cls-68{fill:#abbab8;}.cls-69{fill:#abbab9;}.cls-70{fill:#adbebd;}.cls-71{fill:#a8b8b6;}.cls-72{fill:#a5b5b4;}.cls-73{fill:#a5b5b3;}.cls-74{fill:#aac5c3;}.cls-75{fill:#a6c3c0;}.cls-76{fill:#a6b6b4;}.cls-77{fill:#adbcbb;}.cls-78{fill:#adbbba;}.cls-79{fill:#d8dfde;}.cls-80{fill:#bfd4d2;}.cls-81{fill:#b2c9c7;}.cls-82{fill:#b2c0bf;}.cls-83{fill:#aebdbb;}.cls-84{fill:#becac9;}.cls-85{fill:#bbc7c6;}.cls-86{fill:#aab9b8;}.cls-87{fill:#bec9c8;}.cls-88{fill:#ccd5d5;}.cls-89{fill:#ccd5d4;}.cls-90{fill:#cad3d2;}.cls-91{fill:#cad4d3;}.cls-92{fill:#c9d2d1;}.cls-93{fill:#c9d2d2;}.cls-94{fill:#c7d1d0;}.cls-95{fill:#dde8e7;}.cls-96{fill:#dde3e2;}.cls-97{fill:#c8d9d8;}.cls-98{fill:#cbd4d3;}.cls-99{fill:#d1d9d8;}.cls-100{fill:#c3cecd;}.cls-101{fill:#c3d6d4;}.cls-102{fill:#c4cfce;}.cls-103{fill:#c4cece;}.cls-104{fill:#d6e3e2;}.cls-105{fill:#d3dcdb;}.cls-106{fill:#dbe1e1;}.cls-107{fill:#d4dbda;}.cls-108{fill:#dae1e0;}.cls-109{fill:#dae0e0;}.cls-110{fill:#d4e2e0;}.cls-111{fill:#d4dcdb;}.cls-112{fill:#dfe5e4;}.cls-113{fill:#d7dede;}.cls-114{fill:#acbbb9;}.cls-115{fill:#cadbd9;}.cls-116{fill:#c5cfce;}.cls-117{fill:#e1e6e5;}.cls-118{fill:#e0e6e5;}.cls-119{fill:#e0eae9;}.cls-120{fill:#c8d1d1;}.cls-121{fill:#c8d2d1;}.cls-122{fill:#d5e2e1;}.cls-123{fill:#a7b7b6;}.cls-124{fill:#a7b7b5;}.cls-125{fill:#416360;}.cls-126{fill:#416561;}.cls-127{fill:#426461;}.cls-128{fill:#436864;}.cls-129{fill:#436562;}.cls-130{fill:#446663;}.cls-131{fill:#3d605d;}.cls-132{fill:#93b6b3;}.cls-133{fill:#6d8784;}.cls-134{fill:#6e8886;}.cls-135{fill:#95a8a6;}.cls-136{fill:#718b88;}.cls-137{fill:#718a88;}.cls-138{fill:#95b7b4;}.cls-139{fill:#53726f;}.cls-140{fill:#89afac;}.cls-141{fill:#87adaa;}.cls-142{fill:#9aacab;}.cls-143{fill:#9badac;}.cls-144{fill:#6f8987;}.cls-145{fill:#6f8986;}.cls-146{fill:#647f7d;}.cls-147{fill:#637f7c;}.cls-148{fill:#637f7d;}.cls-149{fill:#577572;}.cls-150{fill:#5a7875;}.cls-151{fill:#5a7c79;}.cls-152{fill:#567d79;}.cls-153{fill:#587673;}.cls-154{fill:#567572;}.cls-155{fill:#4c6d6a;}.cls-156{fill:#627e7c;}.cls-157{fill:#496e6a;}.cls-158{fill:#607c7a;}.cls-159{fill:#5f7c79;}.cls-160{fill:#5f7b79;}.cls-161{fill:#496a67;}.cls-162{fill:#748d8b;}.cls-163{fill:#758e8c;}.cls-164{fill:#617d7b;}.cls-165{fill:#78a39f;}.cls-166{fill:#78908e;}.cls-167{fill:#5e7b78;}.cls-168{fill:#52716e;}.cls-169{fill:#52716f;}.cls-170{fill:#768e8c;}.cls-171{fill:#829896;}.cls-172{fill:#4d6d6a;}.cls-173{fill:#4d726f;}.cls-174{fill:#749f9b;}.cls-175{fill:#778f8d;}.cls-176{fill:#51706d;}.cls-177{fill:#7b9290;}.cls-178{fill:#507672;}</style></defs><path class="cls-12" d="M97.15,0c.09,1.87,1.57,2.65,2.97,2.75,2.91,.2,4.52,.99,5.53,4.21,.75,2.41,4.1,1.96,6.5,1.49,2.08-.41,4.13-1.19,6,.51-3.77,2.5-8.15,2.12-12.34,2.56-1.53,.16-2.16-1.09-2.88-2.26-2.95-4.8-4.91-5.46-10.07-3.58-.78,.19-1.55,.18-2.33,0-.51-.14-.99-.37-1.43-.65-2.52-1.22-5.21-.52-7.82-.72-1.79-.13-3.69,.2-5.11-1.33C77.16,1.99,78.16,1,79.16,0c6,0,12,0,17.99,0Z"/><path class="cls-1" d="M92.13,5c4.89-3.1,9.75-1.83,11.86,3.44,.7,1.75,1.04,2.19,2.99,1.82,3.67-.7,7.44-.89,11.17-1.29,9.03-1.34,18.09-.11,27.08-.36,8.17-.22,16.39-.09,24.57-.43,7.63-.32,15.42-.74,23.04,.81,4.2,.85,8.17-.58,12.15-1.19,5.88-.91,11.6-1.36,17.59-.97,9.35,.6,18.79-.25,28.15,.29,8.15,.47,16.38,.76,24.37,2.87,.33,.42,.35,.85,.06,1.3-1.48,1.37-3.11,1.18-4.8,.47-2.11-.83-4.33-.35-6.49-.58-.78-.05-1.54-.18-2.29-.37-3.93-.95-7.93-.22-11.88-.52-.77-.03-1.52-.15-2.26-.33-2.81-.89-5.59-1.12-8.29,.4-.5,.08-.98,.03-1.46-.12-1.33-.82-3.11-1.44-4.23-.65-6.3,4.44-12.37,.26-18.52-.18-2.21-.1-4.42-.33-6.57,.43-1.46,.38-2.9,.86-4.37,1.19-3.05,.17-6.04,1.4-9.14,.51-4.12,.14-8.27-.89-12.35,.42-8.9-.33-17.84-.7-26.71-.41-8.47,.28-16.85,.36-25.31-.24-4.01-.28-8.2,.86-12.26,1.69-4.59,1.07-9.24-.35-13.95,.51-3.16,.57-2.77-3.91-4.62-5.61-1.2-1.32-2.63-1.54-4.37-1.27-1.27,.19-3.05,.74-3.15-1.61Z"/><path class="cls-22" d="M133.14,296.82c-.33,0-.66,0-.99,0-1.67,.74-3.34,.74-5.01,0-1.67,0-3.33,0-5,0-.33-.53-.25-1.01,.22-1.42,6.02-.1,11.38-4.13,17.62-2.97,5.47-1.31,10.39,.88,15.49,2.26,4.27,1.16,8.64,2.31,13.09,.13,1.43-.7,3.28-.35,4.93-.09,.95,.17,1.81,.55,2.65,1.01,2.14,1.48,4.04,.17,5.99-.53,.65-.16,1.3-.17,1.95-.06,2.24,.75,4.23,.34,5.96-1.28,1.03-.7,2.17-1.08,3.4-1.25,6.06-.62,12.13-.06,18.19-.1,1.8-.01,3.62,.09,5.35-.61,2.57-.63,5.23-.82,7.74-1.76,3.66,.19,7.32,.88,10.98-.04,.5-.12,1.01-.16,1.53-.13,1,.24,2.14,.35,1.87,1.86-1.45,.33-2.9,.96-4.35,.93-5.64-.08-11.13,.33-16.63,1.99-7.13,2.15-14.71,.7-22,1.91-10.59,1.75-21.29,2.5-31.97,1.98-4.99-.24-10.09,.53-15.02-.84-.53-.83-1.16-1.97-2.13-1.8-4.6,.8-9.31-.5-13.86,.81Z"/><path class="cls-2" d="M563.16,129.44c4.48,.38,3.59,4.71,3.5,6.6-.27,5.91,.84,11.75,.39,17.64-.46,5.98-.65,11.98-.91,17.97-.03,.79,0,1.74,.39,2.38,4.78,7.63,2.47,15.73,1.75,23.74-.88,9.84-5.92,18.62-7.21,28.35-.13,.98-.05,1.98-.06,2.97-.5,.38-.95,.34-1.38-.11-.64-.91-.81-1.94-.87-3.01-.16-5.12-.92-10.35,2.43-14.9,3.22-4.17,2.14-9.32,3.22-13.98,2.02-4.01,1.51-8.27,1.3-12.51,.19-6.41-2.62-12.42-2.51-18.83,.02-1.13-.24-2.27,.08-3.4,1.01-1.73,1.54-3.6,1.34-5.61-.66-6.63-.82-13.3-1.51-19.93-.3-2.45-1.07-4.91,.05-7.36Z"/><path class="cls-8" d="M344.09,288.86c-9.36,4.03-19.21,3.61-28.99,2.72-5.52-.5-11.34,1.69-16.5-.84-8.21-4.03-16.64,.4-25.11-1.24-4.44-.86-10.35-1.95-15.4,.33-.33-.37-.49-.79-.47-1.29,.12-.46,.36-.87,.67-1.22,3.2-2.32,7.12-1.01,10.58-2.06,2.3,1.42,5.22,.11,7.49,1.67,1.12,.63,2.35,.78,3.62,.74,2.65-.04,5.23-.47,7.73-1.37,.5-.04,1,0,1.49,.08,9.54,1.36,19.04,3.41,28.73,1.86,3.27-.52,6.26-.29,9.2,1.11,3.68,.4,7.16-.83,10.73-1.35,.52-.16,1.05-.25,1.59-.31,1.67-.07,3.36-.22,4.64,1.19Z"/><path class="cls-95" d="M410.06,8.95c3.68,1.06,6.69-1.35,10-2.08,5.49-1.21,10.84-.24,16.26,.04,9.97,.51,19.88-1.76,29.86-.93,6.26,.52,12.14,2.49,17.87,4.95-.29,.38-.65,.68-1.08,.9-2.94,1.28-5.71,.83-8.36-.83-1.67-1.04-3.36-2.05-5.47-1.32-.69,.11-1.38,.09-2.07-.05-3.23-1.06-6.67-.6-9.94-1.38-.46,.01-.91,0-1.36,0-1.42-.06-2.74,.27-3.97,1-4.7,.79-9.39,1.4-14.17,.49-4.56-.87-9.17-.83-13.76-.21-4.02,.05-7.83,1.08-11.58,2.41-1.15,.5-2.3,.98-3.47,.08-.63-1.44-.2-2.45,1.25-3.05Z"/><path class="cls-17" d="M426.05,291.84c-7.47,1.29-14.92,2.72-22.42,3.83-5,.74-9.7-.25-13.57-3.83,.36-.37,.8-.6,1.31-.7,5.58-.65,10.89,2.22,16.66,.93,3.18-.71,6.49-.88,9.57-2.18,9.4-2.26,19.09-.82,28.61-2.18,3.37-.48,7.09,1.12,10.66,1.76,2.79,.4,5.6,.78,6.72,3.98,.04,.56-.1,1.07-.41,1.53-4.12,1.36-6.79-1.95-10.12-3.15h0c-4.38,.26-8.73,.13-13.01-.99-2.99,0-5.98,0-8.97,0-1.51,1.16-3.52-.24-5.01,.99Z"/><path class="cls-9" d="M3.19,192.23c-2.49-6.33-.94-13.02-1.46-19.51-.81-10.27-2.28-20.59-1.51-30.95,.58-7.76,1.32-15.5,1.99-23.25,.46-.35,.94-.39,1.45-.12,.69,.46,1.15,1.09,1.42,1.86,.51,1.87,.4,3.73-.14,5.57-.44,1.4-1.37,2.66-1.3,4.2,.54,11.49-.84,22.99,.35,34.47-.39,3.11-.38,6.17,.82,9.14,.43,1.07,.86,2.32,.49,3.35-1.77,4.94,.75,10.03-.66,14.96-.4,.51-.89,.6-1.45,.28Z"/><path class="cls-17" d="M97.15,293.83c-4.49,3.61-9.82,2.96-15.05,3.01-4.6,.05-8.77,2.7-13.6,2.03-7.76-1.08-14.82-3.77-21.32-8.05,.34-.31,.73-.55,1.17-.69,1.43-.23,2.66,.44,3.94,.88,3.17-.1,5.69,1.97,8.67,2.52,1.38,.09,2.76,.1,4.05,.67,4.27,2.2,8.56,.91,12.85,.08,4.28-1.51,8.61-2.57,13.17-1.29,.81,.41,1.52,.12,2.2-.34,1.44-.84,2.87-2.51,4.34-.05,.01,.47-.12,.88-.43,1.23Z"/><path class="cls-113" d="M3.15,118.55c-.32-.01-.63-.02-.95-.03-.54-8.87-.14-17.77-.48-26.63-.2-5.09-.29-10.04,.45-15.05,.17-1.12-.08-2.33,.99-3.15,.43,.23,.79,.54,1.08,.93,2.29,3.08-1.04,7.07,1.64,10.09,.35,.91,.48,1.86,.53,2.83,.03,1.64,.07,3.28,.24,4.92-.57,3.25-3.29,6.45-.22,9.79,.19,.42,.29,.86,.32,1.32-.04,1.44,.01,2.94-1.01,4.08-1.94,2.17-1.3,4.4-.3,6.67,.1,.43,.09,.86,0,1.29-.7,1.03-1.21,2.21-2.3,2.95Z"/><path class="cls-3" d="M12.17,250.01c-6.3-9.64-9.64-19.78-5.08-31.15,1.31-3.26,.2-6.45,.06-9.67,.25-.06,.5-.13,.75-.19,3.23,1.34,3.74,3.89,3.11,6.95-1.31,4.02-2.98,8-1.07,12.3,.07,6.75,.56,13.43,3.22,19.77-.08,.79-.35,1.48-.98,2Z"/><path class="cls-1" d="M76.16,2.99c3.41,0,6.82-.02,10.22,0,1.56,.02,3.41-.42,3.8,1.93-.11,.12-.23,.35-.34,.35-9.52,.06-17.23,6.26-26.34,7.69-1.45,.23-2.93,.81-4.36-.1,.04-2.06,1.95-2.01,3.15-2.57,4.74-2.23,9.64-4.14,13.87-7.32Z"/><path class="cls-95" d="M367.07,7.96c8.44-2.75,17.05,1.89,25.54-.6,2.08-.61,4.07,2.49,6.46,.65,.82,.9,.88,1.89,.34,2.95-.77,.82-1.75,1.01-2.82,.96-2.39-.84-4.79-1.92-7.21-.06-.67,.06,.12,.28-.48,.1-8.95-2.73-17.92-.17-26.88-.22-1.03,0-1.97-.35-2.16-1.6,1.92-2.32,4.92-1.07,7.21-2.18Z"/><path class="cls-4" d="M540.01,42.83c2.92,1.77,3.96,3.95,3.93,7.7-.03,2.94,3.35,5.49,4.47,8.74,1.52,4.42,3.42,8.69,3.6,13.45-.42,.31-.86,.32-1.31,.06-1.59-4.4-5.04-8.1-5.41-12.93-.3-3.9-4.43-4.22-5.86-6.96-.33-.67-.5-1.39-.57-2.13,.25-2.66-.18-5.42,1.16-7.93Z"/><path class="cls-104" d="M483.01,10.98c.35-.01,.7-.03,1.05-.04,8.35,2.33,16.7,4.71,25.07,6.96,2.82,.76,4.32,2.89,5.94,4.96-.36,.35-.78,.54-1.28,.59-1.72-.21-3.11-1.34-4.79-1.69-8.02-1.85-15.34-5.71-23.23-7.94-1.36-.38-2.96-.82-2.77-2.84Z"/><path class="cls-111" d="M59.14,12.88c5.61-1.67,11.9-2.29,16.64-5.31,4.87-3.11,9.5-2.41,14.39-2.63l-.04,.07c.33,.52,.26,.98-.2,1.39-.7,.47-1.49,.72-2.32,.79-3.21,.25-6.64-.4-8.77,3.2-.61,1.03-2.42,.85-3.74,.94-1.65-.11-2.81,.92-4.05,1.77-3.49,1.6-7.18,2.16-10.99,2.14-1.13-.12-2.22-.36-2.96-1.33,.44-.8,1.22-.93,2.03-1.01Z"/><path class="cls-3" d="M453.04,291.84c3.66-.01,6.3,3.44,10.1,2.94,5.03-3.3,10.17-1.63,15.31-.36,2.56,.3,5.36-.68,7.58,1.41-4.8,.72-9.3,3.34-14.54,.59-2.44-1.28-5.88,.15-9.01-.25-3.87-.49-6.84-1.69-9.44-4.33Z"/><path class="cls-7" d="M5.22,63.79c2.34-6.59,2.38-14.18,8.77-19.02,1.46-1.11,2.12-3.27,3.15-4.95,.37,.31,.62,.69,.75,1.15,.23,1.45-.34,2.75-.74,4.08-.15,.44-.35,.85-.58,1.24-2.22,3.64-6.32,6.41-5.37,11.53-.12,.93-.46,1.75-1.18,2.38-1.07,.75-2.1,1.54-2.72,2.74-.24,.38-.53,.7-.88,.99-.43,.22-.83,.16-1.2-.14Z"/><path class="cls-19" d="M289.07,9.94c6.6-3.53,13.54-.81,20.25-.66,2.95,.07,5.81-.55,8.71-.34,1.26-.34,1.18,.34,.92,1.18-1.78,1.53-3.72,2.72-6.15,2.85-4.38-.44-8.7-1.54-13.15-1.11-3.57-.38-7.23-.32-10.58-1.92Z"/><path class="cls-16" d="M551.04,72.68c.32,.01,.64,.02,.97,.03,4.16,9.19,5.89,18.96,6.99,28.89-.5,.33-.98,.3-1.45-.08-2.22-2.17-1.73-5.17-2.29-7.81-.78-3.68-1.78-7.26-3.08-10.78-.63-3.01-2.87-5.66-2.05-8.99,.17-.51,.48-.93,.91-1.26Z"/><path class="cls-84" d="M39.13,282.93c-2.65-6.26-9.42-7.84-13.84-12.09-1.07-1.34-2.19-2.65-1.55-4.56,3.37-1.11,3.66,2.97,6.04,3.54,1.01,.6,2.06,1.14,2.99,1.88,4.58,2.26,6.14,7.61,10.45,10.19,.73,.44,.52,1.47,0,2.22-1.75,.93-2.77-.64-4.09-1.18Z"/><path class="cls-89" d="M17.21,40.81c0-.33-.02-.66-.07-.99-.1-1.72,1.45-2.57,2.08-3.9,1.29-.86,2.34-2.03,3.67-2.83,2.07-1.37,4.8-.29,6.82-1.85,.79-.51,1.6-.95,2.58-.92,.48,.09,.89,.31,1.23,.67,.19,.45,.25,.91,.2,1.39-1.05,2.44-2.9,4.13-5.48,4.47-3.96,.51-6.48,2.91-8.76,5.8-2.02,.93-1.49-1.24-2.25-1.84Z"/><path class="cls-102" d="M560,226.1l-.06,2.97c-1.94,3.04-2.93,6.46-3.97,9.84-.69,2.22-1.48,4.32-3.04,6.08-2.82,1.09-1.03,4.98-3.75,6.13-.18-.15-.35-.29-.53-.44-1.22-3.43,.3-6.18,2.21-8.83,1.03-5.92,3.23-11.32,7.01-16.04,.77-.32,1.49-.28,2.14,.29Z"/><path class="cls-20" d="M372,288.93c-4.72-.55-9.46-.93-14.14-1.69-4.33-.7-8.43,1.4-12.71,.71-.09-.25-.18-.49-.27-.74,.32-1.15,1.1-1.75,2.25-1.93,7.15-2.46,14.27,.16,21.4,.2,1.66,0,3.86,.13,3.9,2.79-.15,.22-.29,.43-.44,.65Z"/><path class="cls-119" d="M517.09,23.85c5.31,1.22,7.84,6.25,12.17,8.84,1.62,.97,2.48,3.11,4.74,3.19,1.37,1.8,2.04,3.84,2.11,6.08-2.9,1.11-2.98-1.6-4.06-2.95-2.03-2.99-6.32-3.41-7.91-6.89-.35-.25-.69-.5-1.04-.73-1.93-.67-2.92-2.5-4.51-3.59-1.27-1.03-2.9-1.93-1.49-3.95Z"/><path class="cls-22" d="M97.15,293.83l.02-1.04c.39-.3,.79-.74,1.27-.67,6.28,.93,12.7,.18,18.94,1.47,1.29,.27,3.14,.24,2.64,2.51-4.99-.36-9.88,1.39-14.88,.73-1.66,0-3.33,0-4.99,0-.73-1.26-1.71-2.28-3-2.99h0Z"/><path class="cls-11" d="M24.18,265.94c.37,1.64,.74,3.27,1.11,4.91-5.25-6.4-9.76-13.25-13.11-20.83,.01-.68,.02-1.36,.03-2.05,1.11-.43,1.84,.19,2.53,.9,2.28,4.76,4.4,9.62,8.14,13.51,.96,.99,2.55,1.77,1.3,3.56Z"/><path class="cls-82" d="M57.11,13.89l3.06,.06c-.08,2.66-2.28,2.7-4.04,3.14-2.33,.58-4.82,.77-6.16,3.2-1.57,2.55-4.23,3.35-6.84,4.25-.78,.11-1.52,0-2.16-.5-.38-4.25,2.91-5.2,5.85-6.47,2.31-2.3,5.44-2.7,8.36-3.59l1.93-.08Z"/><path class="cls-46" d="M535.03,269.77c-.3,.12-.61,.22-.93,.3-2.64,.62-4.35,2.22-5.13,4.81-.33,.33-.66,.66-.99,.98-2.63,1.37-5.63,.82-8.37,1.65-.53-.21-.85-.6-.95-1.17,.09-.83,.55-1.43,1.19-1.91,3.75-.39,4.73-3.72,6.55-6.16,2.37-.93,4.78-.8,7.21-.29,.79,.35,1.52,.74,1.41,1.79Z"/><path class="cls-21" d="M367.07,7.96c-2.07,1.66-4.82,.99-7.07,2.04-1.19,1.29-2.94,1.31-4.4,1.98-2.36,1.02-5.06-.45-7.36,1.02-2.14,1.16-4.24,.93-6.31-.19-.64-.45-1.15-.95-.85-1.83,4.77,0,9.35-1.2,14-2.04,3.93-.71,8-.67,12-.97Z"/><path class="cls-20" d="M391.03,291.86c-.32,0-.65-.01-.97-.01-4.45-.8-8.73,2.37-13.39,.22-1.82-.84-3.58-1.37-4.66-3.14l.21-.24c.59-.46,1.27-.56,1.99-.48,3.3,.62,6.51,2.06,9.99,1.07,.44-.15,.89-.25,1.35-.34,1.42-.23,2.82-.27,4.2,.21,.69,.29,1.21,.77,1.57,1.41,.16,.48,.07,.91-.29,1.29Z"/><path class="cls-80" d="M517.09,23.85c-.06,1.99,.98,2.94,2.91,3.06,.27,2.4,1.03,4.31,4.03,3.96h.01c1.39,1.85,.73,3.45-.61,4.97-3.19,.65-5.14-1.43-5.98-3.76-1.02-2.79-2.94-5.02-3.96-7.74-.03-.53,.14-.99,.51-1.37,.36-.03,.72-.06,1.08-.09,.81,.06,1.58,.17,2.02,.99Z"/><path class="cls-109" d="M518.99,276.86c3.02-.16,5.91-1.46,8.99-1-.89,3.01-3.7,1-5.28,1.99-2.99,1.87-5.82,3.98-8.71,5.99-.66-5.12,.57-6.84,5-6.99Z"/><path class="cls-15" d="M258.08,288.8c0,.35,0,.69,.01,1.04-2.24,.37-4.76,.22-6.66,1.23-4.11,2.19-8.14,1.77-12.32,.78-.44-.81-1.21-.98-2.04-1.02-.3-.5-.24-.94,.18-1.34,1.34-.9,2.84-.82,4.29-.5,3.84,.84,7.52,.33,11.13-1.11,1.91-.31,3.81-.57,5.4,.93Z"/><path class="cls-6" d="M47.15,17.9c-2.29,1.72-5.79,2.29-5.85,6.12,.16,.5,.05,.94-.33,1.3-1.3,.83-2.78,.73-4.22,.86-1.89-.02-3.48,1.21-5.35,1.3-.23-.05-.46-.1-.68-.15-.18-.15-.36-.29-.55-.44,.55-.6,.98-1.5,1.66-1.75,4.67-1.71,9.17-3.6,12.48-7.58,.49-.59,1.85-.47,2.8-.68,.34,.21,.46,.44,.36,.67-.1,.24-.21,.36-.32,.36Z"/><path class="cls-5" d="M536,41.85c-.67-1.99-1.34-3.98-2.01-5.97,2.66,1.76,2.65,5.8,6.01,6.95,1.33,2.7-.2,5.37-.06,8.06-.44,.25-.88,.26-1.34,.04-.83-.57-1.28-1.39-1.58-2.32-.27-2.26-1.99-4.31-1.03-6.76Z"/><path class="cls-14" d="M558,101.6c.33,0,.67,0,1,0-.12,6.33,2.44,12.24,2.98,18.46,.16,1.81,.02,3.64,.01,5.46-.48,.32-.92,.28-1.33-.13-1.4-2.17-.59-4.83-1.55-7.09-.7-2.43-.52-5.1-2.11-7.28-.38-.66-.53-1.37-.49-2.13,.53-2.42-.51-5.17,1.5-7.29Z"/><path class="cls-63" d="M511.13,284.99c-2.76,3.81-6.93,4.58-11.17,4.76-1.6,.07-3.23-.4-4.82,.22-.44,.28-.85,.27-1.26-.07-.24-1.72,1.05-2.53,2.09-3.49,.63-.35,1.31-.51,2.03-.54,1.58-.01,3.08,.7,4.69,.53,1.74-.36,3.49-.72,5.17-1.33,1.08-.29,2.16-.97,3.27-.07Z"/><path class="cls-2" d="M552.92,244.99c1.37-4.08,2.83-8.14,4.06-12.26,.51-1.71,1.5-2.81,2.95-3.66,.36,0,.71,.01,1.07,.02-2.4,3.44-3.09,7.58-4.61,11.38-.77,1.91-1.38,3.72-3.47,4.53Z"/><path class="cls-21" d="M319.11,9.88c-.36-.32-.72-.63-1.07-.95,.4-.27,.88-.86,1.19-.78,6.85,1.75,14.25-.55,20.88,2.77-1.21,1.37-2.85,1.25-4.45,1.27-.76-.02-1.51-.14-2.24-.3-4.65,.06-9.24-.56-13.78-1.53-.17-.16-.34-.32-.51-.49Z"/><path class="cls-3" d="M3.19,192.23h1.01c1.32,.41,1.82,1.49,2.19,2.67,.74,2.86-.44,6.01,2.72,8.56,1.84,1.48,.38,4.27-1.89,5.68l-.08,.04c-3.39-5.17-2.48-11.34-3.96-16.96Z"/><path class="cls-110" d="M289.07,9.94c3.35,.16,6.82-.79,10.01,1.01,1.18-.31,1.27,.41,1.2,1.28-1.45,2.41-3.3,3.31-5.84,1.52-3.27-2.95-7.4-.74-10.99-1.79-.48-.14-.92-.36-1.32-.66-.32-.43-.34-.87-.02-1.32h0c1.66-.78,3.33-.75,4.99-.03h1.97Z"/><path class="cls-142" d="M518.99,276.86c-4.05,.64-4.13,4.09-5,6.99l-.44,.07h-.45c-.42,.38-.87,.4-1.33,.06-.34-.39-.58-.83-.73-1.31-.55-2.06-.71-4.08,.74-5.9,2.18-2.25,4.56-2.89,7.25-.85,0,.32-.02,.63-.04,.95Z"/><path class="cls-118" d="M493.89,289.77c.42,.07,.83,.13,1.25,.2-1.05,5.02-6.41,3.39-9.11,5.86-2.66,0-5.32,0-7.99,0-.42-2.13,1.09-2.84,2.57-2.55,4.16,.82,7.28-1.74,10.82-2.9,.37-.26,.76-.5,1.16-.71,.44-.18,.87-.13,1.29,.09Z"/><path class="cls-6" d="M32.16,30.85l-1.96,1.04c-2.08,1.6-5.18-.47-7.02,1.95-1.38,.58-2.23,2.15-3.95,2.07,1.59-2.59,3.53-4.83,6.7-5.4,2.21-.39,3.22-1.98,4.25-3.63l.03,.02c.89,1.2,3.48,1.55,1.96,3.94Z"/><path class="cls-17" d="M133.14,296.82c.56-1.08,1.27-2.03,2.66-1.6,3.09,.95,6.09,.78,9.17-.14,2.25-.67,3.9,.13,4.16,2.73-5.24-1.86-10.68-.45-16-.99Z"/><path class="cls-54" d="M549.17,251.12c-1.74,3.26-3.48,6.53-5.22,9.79-.51,.75-.95,1.67-2.14,1.05-.44-3.47,2.35-6.04,2.65-9.31,1.2-1.19,2.48-2.19,4.34-1.79l.37,.25Z"/><path class="cls-113" d="M399.05,10.95c0-.98,0-1.96,.02-2.94,1.42-1.03,2.77-.11,4.14,.14,1.73,1.22,3.51,2.41,2.09,4.95-1.15,.87-2.32,.72-3.5,.07-.96-.68-2.07-1.18-2.75-2.22Z"/><path class="cls-108" d="M39.13,282.93l4.12,.89c.42-.28,.87-.35,1.35-.19,1.93,1.05,3.9,2.06,4.45,4.48,.16,1.04-.15,1.93-.85,2.71-.34,0-.68,.01-1.01,.02,.06-1.96-.44-3.46-2.66-4.02-2.26-.57-4.21-1.73-5.4-3.87Z"/><path class="cls-17" d="M105.14,296.82c4.97-.9,9.98-1.19,15.03-1.01,.66-.6,1.32-.51,1.97,.01,0,.33,0,.66,0,.99-4.29,.15-8.61-.42-12.85,.88-1.32,.4-3.01,.53-4.15-.87Z"/><path class="cls-3" d="M440.03,290.85c4.3,.77,8.78-.69,13.01,.99-4.52,2.07-8.77,.61-13.01-.99Z"/><path class="cls-98" d="M561.05,125.46c.31,.03,.62,.05,.93,.06-.07,1.45,.33,2.75,1.17,3.93,1.1,2.21,.87,4.59,.91,6.93,.45,.52,.38,.95-.22,1.29-4.03-2.31-2.79-6.62-3.84-10.06,.08-.85,.36-1.6,1.05-2.15Z"/><path class="cls-92" d="M5.22,63.79c.31-.03,.61-.07,.92-.11,1.68,1.46,2.02,3.36,1.85,5.44-.33,1.44-1.13,2.65-1.96,3.84-.77,.81-1.24,2.11-2.76,1.75-.03-.34-.06-.69-.1-1.03,1.68-3.09,2.83-6.3,2.05-9.89Z"/><path class="cls-112" d="M528.98,274.88c-.58-4.02,1.04-5.72,5.13-4.81-1.15,2.2-3.51,3.11-5.13,4.81Z"/><path class="cls-18" d="M541.99,261.93c.66-.34,1.32-.67,1.97-1.01-.44,3.52-3.32,4.64-5.95,6-1.37-2.42,.83-3.27,2.03-4.56,.59-.43,1.19-.77,1.95-.44Z"/><path class="cls-96" d="M47.15,17.9c-.01-.34-.03-.68-.04-1.02,2.07-2.68,5.03-2.91,8.08-2.91-2.36,1.95-5.82,1.68-8.04,3.93Z"/><path class="cls-143" d="M511.94,283.82c.39,.03,.77,.05,1.16,.08-.66,.36-1.31,.73-1.97,1.09-1.03,.3-2.07,.61-3.1,.91-1.35-.4-2.32-1.11-2.21-2.7,2.3-2.28,4.21-.82,6.13,.62Z"/><path class="cls-70" d="M404.84,12.8c1.07-2.12-1.73-2.88-1.64-4.65,.6-.01,1.19-.03,1.78-.04,.98,.88,2.97-.39,3.42,1.61-1.29,.9,.02,4.8-3.56,3.09Z"/><path class="cls-112" d="M541.02,262.99c-1.01,1.31-3.2,1.71-3.02,3.93-.64,.35-1.27,.7-1.91,1.06-1.29-1.35-.48-2.74-.07-4.13,.2-.47,.49-.87,.85-1.23,.43-.29,.89-.47,1.4-.57,1.07-.13,2.02,.1,2.75,.94Z"/><path class="cls-19" d="M282.11,9.98c0,.32-.02,.64-.04,.96-2.32,3.04-4.64,2.98-6.97,.02,0-.33,0-.66,0-.99,2.34,.09,4.67,1.17,7.01,.01Z"/><path class="cls-20" d="M344.09,288.86c-1.67,0-3.35-.01-5.02-.02-.34-.37-.55-.81-.65-1.31,2.25-4.29,4.35-.7,6.51,.13l.23,.29c-.35,.3-.71,.61-1.06,.91Z"/><path class="cls-39" d="M536.99,263.93c-.3,1.35-.59,2.7-.89,4.04-.18,.7-.09,1.56-1.06,1.8-.35-.3-.69-.61-1.04-.91-.33-.37-.52-.79-.56-1.29,.48-1.9,.89-3.86,3.56-3.64Z"/><path class="cls-113" d="M408.03,9.96c-1.01-.62-2.03-1.24-3.04-1.86,1.75-.06,3.6-.7,5.07,.85-.33,.94-.65,1.89-.98,2.83-1.8,.23-1.7-.64-1.06-1.82Z"/><path class="cls-66" d="M335.04,11c1.69-.02,3.38-.04,5.06-.07,.32,0,.65,.02,.97,.03,.35,.34,.69,.68,1.04,1.02-2.77,2.23-4.4,2-7.07-.99Z"/><path class="cls-3" d="M426.05,291.84c1.41-1.66,3.32-.76,5.01-.99-1.41,1.64-3.32,.75-5.01,.99Z"/><path class="cls-19" d="M287.1,9.95c-1.66,0-3.33,.01-4.99,.02,1.66-1.51,3.32-1.46,4.99-.02Z"/><path class="cls-17" d="M97.15,293.83c1.91,.09,2.91,1.08,3,2.99-1.34-.66-2.35-1.65-3-2.99Z"/><path class="cls-17" d="M127.14,296.82c1.67,0,3.34,0,5.01,0-1.67,1.46-3.34,1.47-5.01,0Z"/><path class="cls-106" d="M90.15,5.99c0-.33,0-.66,0-.98,.66,0,1.32,0,1.98,0,1.06,1.39,2.25,.75,3.51,.31,1.92-.67,3.54-.33,4.52,1.65-.3,.37-.67,.65-1.12,.83-1.36,.4-2.77,.54-4.16,.83-2.08,0-3.87-.49-4.73-2.64Z"/><path class="cls-115" d="M117.14,11.94c6.73-1.51,13.52-3.04,20.41-1.61,2.99,.62,6.04,1.05,8.85,.51,8.52-1.62,16.97,.04,25.41-.25,3.79-.13,7.48,.24,11.22,.25,.11,.25,.22,.5,.34,.75-.22,.53-.59,.91-1.1,1.15-9.57,1.32-19.18,1.71-28.79,.51-2.24-.28-4.22,.28-6.29,.72-8.5,.55-17.02-2.22-25.53,.16-1.41,.39-2.97,.12-4.3-.75-.5-.42-.57-.9-.21-1.44Z"/><path class="cls-50" d="M238.13,9.85c.32,.04,.64,.04,.96,0,.55-.43,1.17-.7,1.88-.66,.44,.07,.86,.23,1.23,.48,.85,1.53,.63,3.34,1.3,4.93-.11,.47-.33,.86-.67,1.2-.14,.1-.33,.3-.41,.26-4.63-2.05-8.84-.69-13.03,1.43-1.02,.52-2.29,.36-3.38-.14-8.02-3.7-16.17-3.84-24.46-.98-.52,.03-1-.1-1.43-.39-.53-.63-.61-1.34-.33-2.1,1.37-1.46,2.99-2.58,4.82-3.42,6.5-2.61,12.86-.22,19.27,.52,3.27,3.54,6.62,2.96,10.02,.19,.89-.73,1.7-1.59,2.93-1.77,.47,.02,.9,.17,1.29,.45Z"/><path class="cls-13" d="M224.09,12.01c-6.64-.05-13.15-3.02-19.89-.88-.27-.24-.38-.5-.31-.76,.07-.27,.15-.41,.23-.41,1.24-.68,2.54-1.15,3.99-1.01,2.21-1.26,4.82,.36,7.01-.98,3.4,1.28,7.23,.68,10.53,2.61,1.83,1.07,3.29-.39,4.9-1.38,2.5-1.54,5.35-2.8,7.58,.65-.34,.04-.68,.08-1.03,.12-.69-.39-1.28-.16-1.73,.37-3.27,3.9-7.06,4.25-11.29,1.66Z"/><path class="cls-105" d="M117.14,11.94l.03,1.07c.07,2.61-1.8,2.53-3.39,2.09-2.82-.77-5.32-.61-8.12,.47-3.72,1.43-4.99,.23-7.34-5.63-.21-1.09,.05-2.07,.75-2.93l1.09-.05c2.3,5.05,5.73,6.57,11.14,4.34,1.45-.6,3.61,2.27,5.85,.63Z"/><path class="cls-110" d="M275.1,10.96c2.33,1.34,4.65,1.37,6.97-.02l.13,.13c.34,.48,.47,1.01,.39,1.59-.11,.26-.22,.52-.33,.77-.19,.21-.38,.42-.56,.63-8.15,1.98-15.87,.3-23.44-2.71-.41-.47-.49-.98-.23-1.55,1.38-.41,2.75-.61,4.08,.15l1.99,.02c2.2,1.31,4.8-.26,7.02,.95,1.32,1.03,2.66,.07,3.98,.04Z"/><path class="cls-10" d="M204.12,9.96c.03,.39,.05,.78,.08,1.17-.43,2.27-2.25,2.4-4.03,2.6-1.97,.14-4.24,1.83-5.6-1.1-.32-.97-.18-1.85,.51-2.62,3.02,1.91,6.03-.77,9.05-.04Z"/><path class="cls-115" d="M195.07,10l.13,2.88c-.2,.15-.4,.29-.6,.44-.24,.04-.49,.07-.73,.11-.25-.02-.49-.04-.74-.05-3.31-.73-6.84-.58-9.91-2.34l-.18-.21c3.87-2.28,8.08,.26,12.04-.84Z"/><path class="cls-13" d="M262.11,9.95l-4.03,.03c-.9,.9-2.04,1.12-3.24,1.2-1.6,.06-3.23,.48-4.81-.19-.42-.2-.79-.47-1.11-.8-.23-.44-.15-.85,.18-1.21,4.32,.54,8.81-1.17,13.01,.98Z"/><path class="cls-13" d="M241.12,9.9c-.68-.01-1.35-.03-2.03-.04,2.31-3.49,5.2-1.98,8.04-.92-1.72,2.12-4.04,.42-6.01,.96Z"/><path class="cls-110" d="M241.12,9.9c1.78-1.72,4.02-.59,6.01-.96,.66,.01,1.32,.02,1.97,.03,0,.32,.01,.65,.02,.97-2.34,1.87-4.69,1.67-7.07,.08-.31-.02-.63-.06-.94-.12Z"/><path class="cls-10" d="M215.12,7.97c-2.11,1.91-4.68,.62-7.01,.98,2.12-1.87,4.68-.61,7.01-.98Z"/><path class="cls-13" d="M271.11,10.92c-2.34-.35-4.89,.95-7.02-.95,2.33,.37,4.89-.9,7.02,.95Z"/><path class="cls-120" d="M174.23,295.75c-3.31,.02-6.44,.54-9.69,1.56-3.78,1.19-7.94-.66-11.51-1.89-4.34-1.5-8.4-2.48-12.88-1.61-.36-.44-.36-.89-.03-1.35,2.86-2.25,6.06-3.43,9.75-3.09,.48,.22,.87,.54,1.19,.95,4.08,3.69,9.07,3.34,13.97,2.88,2.13-.2,4.26-.81,6.41-.74,2.02,.06,3.68,.68,2.78,3.31Z"/><path class="cls-99" d="M140.13,292.91c0,.3,.01,.6,.02,.9-2.93-.27-5.55-1.08-8.5,1.37-2.37,1.97-6.29,.35-9.51,.65-.66,0-1.32,0-1.97-.01-5.3-2.91-11.21-.65-16.7-1.95-2.07-.49-4.2-.72-6.3-1.08-1.92-2.02-2.64,1.01-4.08,.97,.25-4.23,2.16-5.75,5.77-4,2.49,1.21,4.98,1.57,7.61,1.67,1.02,.07,2.03,.08,3.05,.09,1.3,0,2.61,0,3.91,.12,3.27,1.03,6.72,.66,10.05,1.17,2.31,.59,4.61,1.25,6.95,.1,1.27-.72,2.4-1.67,3.86-2.02,1.53-.3,3.04-.31,4.51,.25,.73,.37,1.2,.94,1.33,1.77Z"/><path class="cls-166" d="M174.23,295.75c-1.31-4.52-5.13-2.16-6.95-1.6-4.97,1.54-9.57-.09-14.31-.34-2.29-.12-2.89-1.91-2.86-3.95,1.04-.5,1.84,.06,2.67,.56,3.87,1.97,8.02,1.12,12.08,1.2,1.56-.58,3.15-1,4.83-.99,1.18-.01,2.35,.04,3.5,.28,.45,.11,.87,.28,1.27,.5,1.47,1.34,3.36,2.09,4.89,3.35,.14,.45,.1,.88-.1,1.3-.92,.74-1.94,1.15-3.15,.9l-1.88-1.22Z"/><path class="cls-116" d="M218.07,292.81c-6.09,2.4-12.41,.4-18.61,.78-2.07,.13-4.23,.65-6.35,.22-.12-.21-.23-.41-.35-.62,.17-.46,.45-.82,.86-1.09,1.72-.87,3.51-1.34,5.46-1.02,5.42-.66,11.06,1.34,16.31-1.34,.43-.19,.88-.25,1.34-.19,.92,.4,1.41,1.16,1.74,2.04,.1,.48-.05,.88-.4,1.21Z"/><path class="cls-55" d="M193.05,292.76c.02,.35,.04,.7,.06,1.06-.97,.37-1.94,.74-2.91,1.1-2.03,.42-3.85,2.2-6.15,.97l-1.82,.04c-1.1,.44-2.2,.75-3.22-.18,.03-.32,.04-.64,.04-.96,3.66-2.97,10.12-3.91,14-2.04Z"/><path class="cls-88" d="M237.13,289.89c-.02,.31-.04,.62-.06,.93-.32,.02-.64,.04-.96,.06-3.66,.77-7.29,.88-10.85-.53-.57,.03-1.02-.18-1.36-.63,.11-2.03,1.42-2.61,3.2-2.63,2.14,.58,4.16,1.73,6.5,1.49,1.31,.09,2.62,.17,3.53,1.31Z"/><path class="cls-15" d="M224.13,289.87c3.95,.86,7.94,1.27,11.98,1.01-4,1.99-8,.91-11.99-.02l-.26-.5,.27-.49Z"/><path class="cls-116" d="M179.01,295.75c1.07,.06,2.15,.12,3.22,.18-1.89,1.26-3.69,3-6.13,1.04,.97-.41,1.94-.81,2.91-1.22Z"/><path class="cls-15" d="M218.07,292.81c.02-.32,.03-.65,.03-.98,1.44-3.53,3.71-2.27,5.98-1.03l.04,.04c-1.46,2.35-4.08,1.17-6.05,1.96Z"/><path class="cls-116" d="M184.05,295.89c2.22,.77,3.8-2.52,6.15-.97-1.72,2.36-3.81,2.47-6.15,.97Z"/><path class="cls-65" d="M564.07,162.45c.26,7.7,3.27,15.05,2.91,22.83-.35,.32-.74,.39-1.17,.15-.49-.46-.84-1.03-1.18-1.6-1.15-1.58-3.3-2.52-3.25-4.89,.09-.63,.37-1.2,.7-1.73,.53-.91,.37-1.94,.51-2.93,.27-2.87,.57-5.73-1.29-8.27-.51-1.89-.37-3.59,1.43-4.79,.96-.16,1.53,.11,1.34,1.21Z"/><path class="cls-99" d="M564.07,162.45c-.3-.36-.6-.73-.91-1.09-1.23-.99-1.24-2.37-.63-3.51,1.59-3.01,.66-5.97,.16-8.97,.29-3.73-1.06-7.63,1.15-11.15,.07-.45,.15-.89,.22-1.34,1.38,7.71,1.89,15.5,1.86,23.32,0,1.26-.82,2.1-1.85,2.74Z"/><path class="cls-82" d="M565.1,197.32c-.33,4.8,1.08,9.96-2.91,14.02-.2-.15-.41-.29-.61-.44-1.25-3.08-2.15-6.15,.16-9.17,1.4-1.28,.71-3.77,2.72-4.7,.21,.09,.43,.19,.64,.29Z"/><path class="cls-77" d="M566.02,185.23c.32,.02,.64,.04,.96,.05-.06,4.1,1.33,8.43-1.88,12.04l-.31-.31c-1.36-3.02-.34-6.65-2.44-9.48-.33-3.22,1.77-2.58,3.66-2.3Z"/><path class="cls-55" d="M560,226.1l-1.86,.04c-.71-.74-.48-1.66-.5-2.53,.04-1.8-.79-3.47-.76-5.27-.02-1.65,.36-3.22,1.11-4.69,.21-.42,.48-.81,.77-1.17,.83-.86,1.68-1.67,3.03-1.48,.13,.11,.27,.23,.4,.35-3.15,4.56-2.07,9.75-2.2,14.76Z"/><path class="cls-107" d="M327.1,290.85c-5.4-3.44-11.24-.92-16.76-.79-7.7,.18-14.92-1.77-22.33-2.98,.15-.21,.3-.43,.45-.64,1.15-.76,2.45-.82,3.76-.85,6.82,.02,13.67,3.73,20.32,1.03,4.48-1.82,8.16-1.5,12.17,.38,1.2,.52,2.35,1.09,2.82,2.44,.08,.54-.06,1.01-.43,1.41Z"/><path class="cls-100" d="M288.01,287.08c-.28-.09-.57-.14-.86-.15-2.93-1.49-4.62,1.55-7.05,1.92-1.42-.1-2.96,.35-4.12-.91,.11-.72,.53-1.23,1.1-1.64,.58-.38,1.19-.68,1.81-.98,4.87-4.58,7.03-4.28,9.3,1.29-.05,.16-.12,.32-.2,.48Z"/><path class="cls-86" d="M268.96,285.95c-3.27,2.08-7.36,.1-10.63,2.15-.16-.22-.32-.44-.48-.66,0-.86,.32-1.59,.84-2.25,4.75-2.52,9.74-1.5,14.67-.86,.74,.1,1.27,1.03,.46,1.9-1.64,.25-3.29,.72-4.86-.28Z"/><path class="cls-109" d="M339.01,287.7c.02,.38,.04,.76,.06,1.14-.33,.01-.65,.02-.98,.04-2.42,.86-4.94,.33-7.4,.55-.58-.22-.89-.64-.93-1.27,.33-1.23,1.24-1.85,2.37-2.24,2.55-.4,5.13-.86,6.89,1.79Z"/><path class="cls-107" d="M280.1,288.85c2.21-1.13,3.77-4.66,7.05-1.92-1.69,3.02-4.78,.98-7.05,1.92Z"/><path class="cls-20" d="M330.22,288.88c2.62,0,5.25,0,7.87,0-3.55,1.31-7.21,1.98-10.99,1.98,0-.32,0-.64-.02-.97,.81-1.07,1.93-1.17,3.14-1.01Z"/><path class="cls-45" d="M268.96,285.95l5.19-.12c1.57-.94,2.47-.29,2.97,1.26-.38,.28-.76,.56-1.14,.84-1.85-2.4-5.45,1.37-7.02-1.98Z"/><path class="cls-86" d="M258.08,288.8l-5.96,.09c-.35-.46-.47-.97-.36-1.53,2.17-2.32,4.24-2.21,6.2,.27,.11,.17,.23,.33,.36,.49-.11,.22-.2,.45-.25,.69Z"/><path class="cls-165" d="M467.04,8.97l1.99,.14c1.78-.72,2.63,.53,3.55,1.65,1.14,2.9,3.45,4.1,6.33,3.61,5.15-.87,9.13,1.58,13.53,3.6,5.2,2.39,10.68,4.55,16.59,4.83,.46,.1,.9,.23,1.34,.39,2.15,.71,3.75,1.96,4.25,4.3,1.01,4.68,5.16,8.25,10.15,8.75,1.4,.5,2.25,1.66,3.2,2.7,3.91,2.55,4.92,7.44,8.41,10.38,.74,.63,.39,1.83-.03,2.74-.19,.37-.39,.74-.58,1.09-.21,2.17,2.05,2.29,2.97,3.51,1.07,1.11,1.55,2.53,1.41,3.97-.27,2.72,1.27,3.62,3.55,3.98,3.2,3.28,4.97,7.24,6.36,11.58,2.27,7.09,4.5,14.36,5.32,21.56,.79,6.93,2.52,13.63,3.37,20.5,.24,1.31-.09,2.57-.32,3.84-.26,2.53-1.07,4.96-1.21,7.51-1.66,6.64-4.37,12.86-7.91,18.69-7.41,12.19-14.75,24.39-19.16,38.08-.63,1.95-1.37,5.06-3.66,4.64-2.42-.44-1.8-3.61-1.7-5.64,.73-15.22,5.11-28.95,16.67-39.63,.21-.18,.46-.64,.36-.69-.78-.39-1.27,.35-1.91,.59-9.49,4.78-16.42,12.27-22.46,20.77-1.28,1.8-2.72,4.88-5.15,3.59-2.13-1.13-.16-3.91,.36-5.9,2.79-10.61,7.57-20.48,11.84-31.76-4.8,5.45-8.16,10.69-11.66,15.77-4.7,6.83-9.02,13.93-12.99,21.23-.85,1.56-1.45,4.59-3.77,3.49-1.97-.93-.76-3.61-.16-5.47,3.44-10.6,7.91-20.8,13.01-30.67,5.63-10.92,12.5-21.12,20.62-30.38,.21-.18,.45-.36,.68-.53-.32-.01-.6,.08-.88,.32-24.75,18.71-39.75,44.13-50.54,72.46-.24,.62-.41,1.28-.75,1.84-1.18,2.02-.88,5.7-3.91,5.63-2.7-.05-3.29-3.39-4.49-5.5-4.27-7.56-5.93-15.78-5.97-24.36-.13-23.01,1.52-46,1.01-69.02-.11-4.79-.15-9.61-.25-14.4-.29-13.46,1.83-26.75,2.29-40.14,.2-5.98,2.72-11.62,2.7-17.63-.66-2.67-2.61-2.41-4.69-2.18-1.85,.2-4.03,.94-4.9-1.74,1.08-1.48,3.03-1.48,4.36-2.53,.99-.14,1.98-.2,2.84,.45Z"/><path class="cls-97" d="M471.99,11.07c-.99-.66-1.97-1.31-2.96-1.97,1.6-2,3.22-1.14,4.72,.06,2.79,2.23,5.87,2.73,9.26,1.81,7.07,2.83,14.07,5.87,21.4,8.01,1.9,.55,3.74,1.28,5.61,1.93,.2,1.54-.9,1.61-1.96,1.73-7.96-.94-14.99-4.71-22.27-7.59-3.47-1.37-6.9,.55-10.18-1.2-1.43-.76-3.1-.94-3.62-2.79Z"/><path class="cls-114" d="M464.16,9.06c-.51,2.48-2.54,1.66-4.09,1.89-8.46,1.08-16.95,1.03-25.41,.23-3.48-.33-6.89-.17-10.32,.29-.26-.02-.51-.05-.77-.08-.54-.15-.87-.5-1.01-1.04-.07-.54,.1-1,.5-1.37,4.91-2.44,9.99-1.11,14.95-.44,4.75,.63,9.36,.27,14-.59,1.19-.98,2.93,.42,4.04-.93,.32,0,.63,0,.95,.02,2.25,1.14,4.58,2,7.15,2.03Z"/><path class="cls-114" d="M408.03,9.96c.12,.74,.18,1.52,1.06,1.82,1.2,.31,2.05-.47,2.99-.95,2.21,.11,4.41,.2,6.46-.87,1.54,.04,3.15-.28,4.44,.92l.13,.15c.03,1.45-1.05,2.11-2.14,2.34-6.6,1.36-13.22,2.67-20.01,1.65-1-.15-1.85-.67-2.24-1.71,.27-2.45,1.74-2.02,3.3-1.36,.7,1.09,1.79,.88,2.82,.85,2.56,.73,.66-3.53,3.19-2.84Z"/><path class="cls-113" d="M417.99,10.93c-1.99,1.14-3.96,1.27-5.92-.09,3.61-.93,6.98-3.25,10.99-1.86,0,.33,0,.67-.01,1-1.53,1.14-3.53-.21-5.06,.95Z"/><path class="cls-102" d="M464.16,9.06c-3.09,1.8-5.08-.25-7.15-2.03,3.2,1.38,7.05-.57,10.03,1.93-.96,.03-1.92,.06-2.88,.1Z"/><path class="cls-102" d="M456.06,7.01c-.88,2.32-2.61,.99-4.04,.93,1.1-1.37,2.64-.86,4.04-.93Z"/><path class="cls-93" d="M457.01,290.87c-13.28-3.12-26.55-.54-39.82,.09-.48,.36-.93,.32-1.35-.1-.15-.52-.05-.98,.31-1.39,5.84-.66,11.15-4.95,17.44-2.59,1.59,.62,3.21,.98,4.9,.35,.78-.29,1.52-.66,2.23-1.08,.75-.45,1.54-.8,2.43-.89,4.71-.28,8.76,1.95,13.01,3.45,.41,.24,.76,.55,1.06,.92,.21,.46,.15,.88-.22,1.25Z"/><path class="cls-102" d="M492.92,290.69c-4.03,1.84-7.56,5.37-12.69,3.49-1.02-.38-1.73,.73-2.19,1.65-4.81-2.59-9.91-1.15-14.91-1.05,0-.34,0-.68,0-1.02,2.13-1.69,4.94-1.35,7.27-2.47,.7-.2,1.41-.27,2.13-.2,.47,.07,.93,.2,1.37,.36,3.19,1.68,6.39-.2,9.58-.02,3.13-.51,6.07-3.28,9.44-.75Z"/><path class="cls-64" d="M416.09,290.85c.37,.03,.73,.07,1.1,.1-5.14,3.44-11.12,2.55-16.69,2.52-3-.01-6.35-.83-9.47-1.62,0-.32,0-.63,.01-.95,.83-1.21,2.12-1.55,3.45-1.81,6.46,.48,12.86,2.13,19.41,.82,.8-.16,1.56,.39,2.18,.94Z"/><path class="cls-72" d="M471.12,291.94c-2.4,1.74-5.15,1.98-7.98,1.83-1.53-2.03-3.61-2.91-6.12-2.9,0-.34,.02-.68,.03-1.02,1.63-3.39,3.21-3.87,5.41-1.37,1.33,1.51,2.27,3.3,4.73,2.57,.95-.18,1.89-.25,2.83,.02,.46,.18,.83,.47,1.11,.88Z"/><path class="cls-53" d="M3,164.52c-1.13-1.45-.78-3.16-.79-4.79-.04-9.47,0-18.93-.06-28.4-.01-2.22,.25-4.28,1.92-5.92,.52-.32,1-.27,1.44,.15,1.86,5.49-.45,10.89-.35,16.34-.65,1.92-.79,3.85-.07,5.8,.29,1.26,.41,2.54,.42,3.83,.14,4.01-.89,7.87-1.45,11.79-.22,.52-.57,.91-1.05,1.19Z"/><path class="cls-59" d="M5.25,195.18c-.35-.98-.71-1.97-1.06-2.95-2.23-7.31,1.21-15.06-1.77-22.4-.59-1.46,.35-3.53,.58-5.32,.13-.12,.26-.24,.39-.36,1.54,.24,1.85,1.47,1.68,2.6-.47,3.13,.78,5.84,1.77,8.64-.42,4.85-1.77,9.66,1.73,14.23,1.43,1.87-.35,4.05-1.96,5.62-.47,.32-.93,.29-1.36-.07Z"/><path class="cls-53" d="M3.15,118.55c.07-1.41-.06-2.95,2.03-3.01,1.16,1.17,1.13,2.47,.39,3.83-.43,.47-.93,.54-1.48,.22l-.94-1.05Z"/><path class="cls-116" d="M4.09,119.59l1.13-.08c1.8,1.39,1.99,3.09,1.03,5.04-.26,.4-.61,.72-1.02,.96-.39-.03-.77-.07-1.16-.1,0-1.94,.01-3.88,.02-5.82Z"/><path class="cls-123" d="M106.18,292.75c-2.67-.47-5.35-.14-7.91-2-3.03-2.2-4.3,.5-5.18,3.02-.55,.29-1.1,.57-1.65,.86-.96-1.1-1.54-2.32-1.27-3.83,5.71-5.94,11.03-1.98,16.4,.65,.07,.49-.06,.93-.38,1.3Z"/><path class="cls-79" d="M90.19,290.8c.41,1.27,.82,2.55,1.24,3.82-4.43-2.85-8.74,.21-13.12,.26-.11-.23-.22-.47-.33-.7,3.08-3.66,7.05-4.69,11.64-3.91,.19,.18,.38,.36,.56,.54Z"/><path class="cls-94" d="M48.2,290.8v-3.02c3.29-.44,6.32,1.42,9.6,1.02,.48,.1,.93,.26,1.37,.47,.86,.52,1.44,1.28,1.89,2.16,.36,.88,.77,1.77,.05,2.68-.44,.14-.9,.19-1.36,.12-1.92-2.75-4.75-2.6-7.6-2.37-1.31-.35-2.63-.7-3.94-1.06Z"/><path class="cls-94" d="M78.31,294.88c-3.2,2.38-10.9,2.41-13.2,.05-.35-.5-.28-.94,.2-1.32,4.17,1.1,8.69-1.52,12.72,1.16l.28,.11Z"/><path class="cls-99" d="M52.14,291.86c3.17-1.33,6.05-1.53,8.02,1.98,.33,.22,.44,.43,.34,.65-.11,.22-.22,.33-.33,.33l-8.03-2.96Z"/><path class="cls-90" d="M60.17,294.82c0-.33,0-.65,0-.98,.36-.01,.71-.02,1.07-.04,1.33-1.12,2.64-1.12,3.93,.05-.02,.36-.03,.72-.05,1.08-1.65-.04-3.3-.08-4.95-.11Z"/><path class="cls-175" d="M5.15,72.71l2.02-3.02c1.25-2.55-.82-5.49,.95-7.97,.2-.75,.57-1.39,1.23-1.84,.81-.42,.86-1.2,.94-1.97,1.68-4.17,2.87-8.57,5.87-12.1,.12-.25,.16-.52,.11-.79,.52-.87,.89-2.11,2.27-.94,.69,1.68,.12,3.3-.53,4.77-5.5,12.34-9.22,25.2-11.37,38.52-.4,.5-.83,.53-1.3,.1l-.33-2.78c-2.2-4.02,.73-7.97,.15-11.97Z"/><path class="cls-171" d="M5.51,124.57c.95-1.75-.02-3.38-.29-5.06-.01-1.32-.02-2.65-.04-3.97l-.05-.04c-.6-3.01-2.88-6.15,1.06-8.74,1.03-.68-.62-2.07-.11-3.17,.03-.31,0-.62-.09-.93-.22-.57-.07-.99,.47-1.28,1.88,.4,2.3,1.96,2.77,3.48,.88,5.58-1.93,11.12-.13,16.71,.02,.51-.06,1-.2,1.49-.27,.72-.73,1.28-1.37,1.7-.71,.31-1.39,.33-2.02-.2Z"/><path class="cls-103" d="M6.09,103.59c.29,.58,.97,1.33,.8,1.71-1.43,3.27-2.5,6.57-1.76,10.2-1.86-2.8-3.7-5.64-.07-8.45,1.25-.97-.48-2.66,1.03-3.46Z"/><path class="cls-85" d="M6.28,101.53c-.09,.38-.19,.76-.28,1.14-4.31-3.3-2.12-6.6,0-9.89,.21-.11,.41-.22,.62-.34,2.65,3.13-.55,6.05-.34,9.09Z"/><path class="cls-87" d="M5.15,72.71c2.14,4.02-1.44,7.96-.15,11.97-2.04-1.22-2.21-2.99-1.32-4.94,.82-1.79,.33-3.4-.42-5.02,.63-.67,1.26-1.33,1.89-2Z"/><path class="cls-85" d="M5.33,87.46c.25,.13,.51,.21,.79,.25,1.46,1.56,1.46,3.18,.18,4.84l-.3,.22c-1.35-1.63-.75-3.5-.67-5.31Z"/><path class="cls-68" d="M14.03,249.08c-.61-.37-1.21-.74-1.82-1.12-3.38-6.26-3.93-12.95-3.04-19.86-.58-.74-.54-1.47,.04-2.19,3.92,1.25,4.32,4.27,3.9,7.7-1.1,2.71-1.31,5.11,.49,7.91,1.33,2.07,2.17,4.81,1.73,7.56-.43,.33-.87,.31-1.3,0Z"/><path class="cls-67" d="M5.25,195.18h1.02c3.95,.3,2.83,4.37,4.68,6.24,.75,3.63-.02,7.42,1.27,11.04,.47,1.32,.13,2.95-1.42,3.83-.25-.08-.5-.16-.75-.24,.69-2.97-.58-5.13-2.83-6.91,.53-2.22,3.39-4.3-.85-6.49-2.3-1.19-.36-4.97-1.12-7.48Z"/><path class="cls-67" d="M9.26,226.08c-.03,.67-.06,1.35-.09,2.02-3.17-4.27-.82-8.13,.89-12.05l.28,.19c1.05,1.14,.91,2.48,.69,3.84-.8,1.93-.07,4.32-1.77,5.99Z"/><path class="cls-75" d="M355.08,10.96c1.51-1,3.21-1.04,4.93-.96,4.09,.37,8.23,1.02,12.25-.03,4.24-1.1,8.28-1.98,12.36,.62,1.58,1,3.56,.33,5.37,.25,.3,.34,.41,.74,.28,1.18-.3,.32-.65,.56-1.05,.72-1.2,.35-2.49,.32-3.62,.95-.55,.32-1.11,.61-1.72,.78-2.18,.43-2.36-2.21-4.02-2.59-.43-.14-.84-.29-1.27-.42-.83-.07-1.79-.32-2.44,.13-6.8,4.78-14.18,.72-21.24,1.47-.47-.74-.36-1.43,.17-2.09Z"/><path class="cls-138" d="M390.06,11.95c-.03-.37-.05-.75-.08-1.12,2.12-3.46,4.08-1.13,6.06,.17,.31,.4,.32,.8,0,1.2-2.02,.66-4.01,.35-5.98-.24Z"/><path class="cls-70" d="M396.03,11.99c0-.33,.01-.66,.01-.99,1-.02,2.01-.03,3.01-.05,1.09,.05,2.27-.2,2.97,1.01-1.12,.03-2.32-.16-2.98,1.09-.32,.3-.7,.46-1.14,.47-.91-.16-1.58-.61-1.87-1.53Z"/><path class="cls-10" d="M551.04,72.68c-.03,.38-.06,.75-.09,1.13-2.55-.14-2.66-2.58-3.5-4.07-1.18-2.11-2.43-4.11-4.04-5.89-1.55-2.66-1.11-6.18-3.8-8.42-.72-.6-.42-1.86,.42-2.65,4.25,1.96,6.31,4.74,7.15,9.85,.5,3.02,3.02,6.46,3.85,10.05Z"/><path class="cls-101" d="M540.03,52.78c1.46,3.61,4.13,6.78,3.98,10.97-.41,.38-.89,.52-1.44,.41-3.54-3.06-5.42-10.35-3.46-13.42,.28,.05,.56,.1,.85,.15,.03,.63,.05,1.26,.08,1.89Z"/><path class="cls-56" d="M508.02,21.92c.82-.04,1.57-.2,2.01-1,1.74-.12,2.62,1.4,3.97,2.04,0,.33,0,.67,0,1-1.33,.94-2.65-.04-3.97-.04-.31-.03-.62-.05-.94-.06-.62-.5-1.68-.76-1.07-1.94Z"/><path class="cls-150" d="M71.16,11.95c.37-1.56,1.53-1.95,2.95-1.95,2.23,1.59,5.05,1.31,6.37-.36,4.2-5.27,8.68-1.72,13.1-1.05,3.37,.49,6.18,1.56,6.15,5.68-.15,.46-.44,.81-.87,1.04-3.21,1.02-3.76-2.83-6.14-3.32-.41-.14-.82-.29-1.23-.44-2.09-.54-4.18-.78-6.23,.16-.32,.31-.62,.62-.89,.97-2.7,4.21-6.49,1.03-9.76,1.47-.74-.06-1.46-.22-2.14-.5-.7-.36-1.17-.9-1.32-1.69Z"/><path class="cls-144" d="M71.16,11.95l1,1c-1.19,3.4-3.53,5.09-7.17,4.49-3.19-.53-5.39,2.46-8.46,2.21-2.5-1.11-4.91,.7-7.39,.27,.35-3.7,3.6-3.23,5.88-3.77,1.9-.45,3.83-.51,5.15-2.2,3.74-.27,7.49-.43,10.99-1.99Z"/><path class="cls-78" d="M93.17,8.97c-2.93-1.53-6.54,1.21-9.35-1.51-.29-.28-.89,.6-1.2,1.25-1.68,3.41-5,3.88-8.5,1.3,2.17-.24,4,.14,5.77-2.54,2.24-3.4,6.78-.93,10.27-1.48,1.65,.63,3.29,1.26,4.94,1.9,.08,.21,.17,.42,.25,.63-.54,1.06-1.28,1.14-2.18,.45Z"/><path class="cls-121" d="M16.16,45.81c-2.32,3.86-2.18,8.9-5.87,12.1-1.86-5.87,2.82-8.59,5.87-12.1Z"/><path class="cls-87" d="M9.16,61.76c-1.49,2.44-.11,5.6-1.99,7.94-.35-2-.69-4.01-1.04-6.01,.02-.31,.05-.61,.08-.92,.93-.48,1.63-1.64,2.94-1.01Z"/><path class="cls-117" d="M18.28,44.03c-.67,.33-1.34,.66-2.01,.99,.31-1.4,.63-2.81,.94-4.21,.54,.7,1.09,1.4,1.63,2.1l.45,.48c-.21,.43-.55,.63-1.02,.64Z"/><path class="cls-121" d="M9.16,61.76c-.98,.34-1.96,.67-2.94,1.01,.7-1.33,1.01-3.09,3.13-2.88-.06,.63-.13,1.25-.19,1.88Z"/><path class="cls-75" d="M313.14,12.03c2.19-.15,3.55-2.6,5.97-2.14l-.03,.08c1.93,1.11,4.54-.79,6.24,1.39,0,.55-.23,.96-.71,1.23-2.56,1.19-5.46,.15-8.04,1.22-.76,.32-1.68,.47-2.21,1.06-3.39,3.76-6.55,2.81-9.67-.34-.63-.77-1.11-1.59-.8-2.65,3.1-.88,6.17,.41,9.26,.15Z"/><path class="cls-66" d="M313.14,12.03c-3.03,1.38-6.04,.32-9.06-.06-1.36,1.12-2.7,1.18-4.01-.1-.33-.31-.66-.61-1-.92,4.82-1.33,9.41,.21,14.06,1.07Z"/><path class="cls-74" d="M542.98,63.78l1.03-.03c4.36,1.95,4.09,7.07,6.94,10.06-.61,3.25,2.25,5.68,2.1,8.82,1,6.46,3.47,12.59,4.1,19.14,.25,2.64,.61,5.23,0,7.85l.86,.99c1.28,2.13-.25,5.07,2,6.92,1.53,2.49,.7,5.28,1.05,7.92-.02,.69-.05,1.37-.07,2.06-.43,.37-.92,.49-1.47,.35-1.43-.71-1.53-2.01-1.5-3.36-.45-1.97,1-3.94,.01-5.92-2.02-2.68-1.13-5.98-1.89-8.96-3.01-11.74-3.71-24-8.04-35.47-1.28-3.39-3.43-6.22-5.16-9.32-.27-.24-.35-.48-.25-.71,.1-.23,.19-.34,.29-.34Z"/><path class="cls-42" d="M557.14,109.62c-.34-7.48-1.13-14.89-4.39-21.76-.92-1.94,.72-3.47,.3-5.23,3.48,5.85,3.3,12.65,4.95,18.97-.42,2.66,.95,5.51-.86,8.03Z"/><path class="cls-176" d="M32.11,271.96l-2.92-1.05c-3.12-2.83-3.85-7.46-7.56-9.85-.23-.45-.38-.91-.48-1.41-.2-1.27-.12-2.5,.61-3.62,5.8-1.43,7.06-.69,6.91,4.88-.12,4.6,2.31,7.2,6.12,8.57,4.93,1.77,7.08,6.26,10.35,9.66,.7,.72,.8,1.8,.18,2.77-3.63-.62-6.72-1.75-7.97-5.84-.71-2.32-3.97-2.12-5.26-4.11Z"/><path class="cls-35" d="M32.11,271.96c2.77,1.28,5.54,2.24,6.71,5.74,.85,2.53,4.52,2.28,6.28,4.26,.6,.61,.62,1.29,.24,2.02-.45,.38-.88,.36-1.29-.06-.27,0-.55-.03-.81-.1-3.71-3.95-7.43-7.9-11.14-11.86Z"/><path class="cls-51" d="M22.23,260.9c4.63,1.74,4.54,6.74,6.97,10.01-2.36-.97-3.32-3.34-5.01-4.97,.05-1.48-1.33-1.98-2.03-2.96-.58-.71-.51-1.41,.07-2.08Z"/><path class="cls-156" d="M18.84,42.91c.6-4.17,3.79-6.38,7.22-6.86,3.32-.47,5.34-1.84,7.07-4.29,.6-.63,1.04-1.5,2.12-1.42,.46,.08,.84,.28,1.15,.64,.21,1.55-.91,2.5-1.65,3.62-1.1,1.48-2.02,3.14-3.82,3.95-1.3,.51-2.69,.47-4.05,.58-3.04-.13-3.8,3.34-6.33,3.99-.46,.09-.86-.01-1.21-.32l-.22,.16-.27-.06Z"/><path class="cls-91" d="M34.93,30.75c-.6,.33-1.2,.67-1.79,1,.01-.32,.01-.63,0-.95,.46-1.86-2.32-2.1-1.96-3.91,1.67-.68,3.08-2,5.03-1.96,.84,1.24,3.22,.81,3.23,2.95-.81,2.05-2.81,2.21-4.51,2.86Z"/><path class="cls-117" d="M23.17,33.84c1.67-3.07,4.59-1.63,7.02-1.95-1.57,3.41-5.04,.01-7.02,1.95Z"/><path class="cls-117" d="M31.18,26.9c.62,1.32,3.63,1.45,1.96,3.91l-.49,.05h-.49c-.65-1.32-1.31-2.63-1.96-3.94,.33-.01,.66-.02,.99-.01Z"/><path class="cls-32" d="M558.93,224.21c-.26,.64-.53,1.29-.79,1.93-1.96,5.65-6.06,10.52-6.21,16.83-.54,.37-1,.3-1.4-.22-.91-1.49-.81-3.14-.81-4.78,.08-1.68,.55-3.25,1.47-4.65,2.78-4.21,4.89-8.51,3.63-13.85-.37-1.59-.36-3.73,1.93-4.53,1.17,.69,.58,1.84,.74,2.79-.32,2.33,.63,4.39,1.44,6.47Z"/><path class="cls-62" d="M550.94,242.94c.33,.03,.66,.04,.99,.03-2.76,1.96-2.17,5.23-3.12,7.9-1.27,.7-2.54,1.41-3.81,2.11-.92,.38-1.24-.21-1.5-.91-.03-.47,.05-.92,.24-1.34,1.01-1.42,2.19-2.69,2.4-4.62,.3-2.81,2.08-3.79,4.79-3.17Z"/><path class="cls-69" d="M374.06,288.84c-.62-.05-1.23-.1-1.85-.15-.37-1.69-1.72-1.9-3.07-1.82-6.82,.41-13.6-3.23-20.48-.22-.4,.17-1.14-.44-1.73-.69,.36-1.06,1.13-1.77,1.99-2.41,2.25-1.28,4.66-1.02,7.08-.79,5.81,1.43,12.04-.31,17.71,2.25,3.34,1.93,6.85,2.09,10.43,.84,2.17-.75,4.16-1.04,5.81,.99,.13,.21,.25,.43,.37,.64,.13,.47,.12,.95-.06,1.41-1.6,1.13-3.78-.99-5.24,.92h.03c-3.83,1.53-7.34-.46-10.99-.97Z"/><path class="cls-38" d="M349.04,284.8c-.39,.93-1.25,1.03-2.09,1.16-.67,.57-1.34,1.14-2.01,1.71-1.96,1.42-3.97-2.79-5.92,.04-2.21-1.22-4.69-.54-7.01-.98,0-1.91,1.73-1.83,2.84-2.48,.44-.17,.9-.29,1.36-.38,3.1-.56,6.21,.28,9.31-.09,1.29-.06,2.55,.02,3.52,1.03Z"/><path class="cls-60" d="M527.05,39.73c-.7-.94-1.39-1.89-2.09-2.83-.23-.26-.31-.53-.25-.81,.06-.28,.13-.42,.2-.42,3.28-1.38,5.32,1.75,8.09,2.21,1.12,1.24,.46,3.8,3,3.98,.9,2.26,2.14,4.41,1.99,6.97-.41,.29-.82,.3-1.25,.04-2.99-3.3-5.13-7.49-9.69-9.14Z"/><path class="cls-122" d="M533,37.87c-3.31,1.85-4.89-2.99-7.96-2.04-.67,.66-1.34,.58-2-.02,.33-1.65,.66-3.3,.99-4.95,2.37,3.12,6.25,4.32,8.97,7.01Z"/><path class="cls-122" d="M524.02,30.86c-4.86,2.23-4.84-.46-4.02-3.96,.96,1.71,2.25,3.08,4.02,3.96Z"/><path class="cls-83" d="M22.23,260.9c-.02,.69-.05,1.39-.07,2.08-4.1-3.82-6.55-8.61-8.13-13.9,.36-.02,.73-.03,1.09-.05,.39-.34,.82-.43,1.31-.26,2.84,3.28,4.34,7.24,5.71,11.26,.01,.29,.04,.58,.09,.87Z"/><path class="cls-148" d="M49.14,19.92c2.2-1.3,4.29-3.39,7.04-1.03-4.51,2.13-7.77,6.66-13.26,6.93-.38-.73-.33-1.43,.17-2.09,1.65-1.86,4.66-1.56,6.06-3.81Z"/><path class="cls-133" d="M43.09,23.73l.08,2.16c-.03,4.84-3.25,5.26-6.97,5-.42-.05-.85-.09-1.27-.14,1.37-1,2.73-2,4.1-3.01,.86-.86,1.18-2.08,2-2.97,.09-.25,.18-.5,.27-.75,.6-.1,1.19-.2,1.78-.29Z"/><path class="cls-156" d="M536.99,263.93c-1.77,.7-2.08,2.53-3.04,3.86-1.61,1.3-3.52,.65-5.23,.55-2.59-.15-4.09,.79-4.74,3.23-.78,1.73-2.52,2.35-3.93,3.35-.34,.33-.68,.66-1.02,.99-2.5,.06-5.21-.6-6.96,2.02-.53,.37-1,.31-1.42-.17-.76-1.26-.73-2.54-.05-3.82,4.38-1.93,6.43-7.03,11.44-8.23,1.78-.43,3.56-1.26,5.28-.63,2.97,1.09,4.64-.49,6.29-2.44,.46-.28,.95-.44,1.48-.5,.83,0,1.57,.22,2.11,.89-.06,.3-.13,.6-.2,.89Z"/><path class="cls-39" d="M520.05,274.92c.49-1.44,1.59-2.31,2.84-3.04,1.4-.61,.66-3.57,3.22-2.89,.16,4.19-1.74,6.29-6.06,5.93Z"/><path class="cls-142" d="M526.11,268.99c-1.39,.61-1.51,2.64-3.22,2.89,.03-2.79,1.35-4.11,4.25-3.98,2.26,.11,4.54-.06,6.81-.11,.02,.36,.03,.71,.05,1.07-2.63,.04-5.26,.08-7.89,.12Z"/><path class="cls-75" d="M335.04,11c2.23,1.23,4.54,1.92,7.07,.99,1.99,.29,3.99,1.71,5.96-.07,1.32-.68,2.17-.5,2.19,1.2-2.91,3.49-6.8,1.82-10.35,1.96-.57-.06-1.12-.19-1.67-.33-2.94-.81-5.96-.18-8.92-.49-1.66-.18-3.87,.41-4.25-2.26l.05-.07c2.61-.74,5.32-.54,7.97-.92l1.95,.02Z"/><path class="cls-66" d="M350.06,12.96c-.4-.84-1.19-.96-1.99-1.05,2.05-2.38,4.82,.4,7.01-.96,0,.66,0,1.33,0,1.99-1.67,2.38-3.35,1.37-5.02,.01Z"/><path class="cls-109" d="M374.06,288.84c3.66,.32,7.32,.65,10.99,.97-3.9,2.33-7.43,.53-10.99-.97Z"/><path class="cls-170" d="M389.83,288.99c.07-.37,.14-.75,.21-1.12,1.53-.75,2.83-.16,4.08,.7,.3,.44,.27,.87-.05,1.29-.71,1.21-1.96,.87-3.02,1.04-.36-.35-.72-.7-1.08-1.05-.26-.16-.37-.34-.32-.54,.05-.22,.11-.32,.19-.32Z"/><path class="cls-109" d="M389.83,288.99c.19,.27,.23,.56,.13,.87-1.65-.01-3.29-.03-4.94-.04,1-3.77,3.16-.8,4.81-.82Z"/><path class="cls-132" d="M523.04,35.81c.67,0,1.33,.01,2,.02-.03,.35-.05,.7-.08,1.06-5,.82-7.2-4.73-11.69-5.16-.1,0-.32-1.32-.07-1.82,1.7-3.5-1.1-4.55-3.18-5.99,1.33-1,2.65-.04,3.97,.04,4.21,3.05,3.49,9.84,9.06,11.86Z"/><path class="cls-124" d="M252.09,287.79c0,.36,.02,.73,.02,1.09-4.76,3.84-10,.46-14.98,1-1.34-.01-2.68-.03-4.03-.04,.09-2.55,2.36-2.91,3.88-2.87,5.03,.15,10.16-.89,15.1,.82Z"/><path class="cls-68" d="M41.03,24.78c.09,1.5,.3,3.07-2,2.97-.71-1.17-3.06-.7-2.82-2.81,1.61-.05,3.21-.11,4.82-.16Z"/><path class="cls-132" d="M537.03,48.78c.32,.01,.64,.03,.96,.04,.37,.64,.74,1.28,1.11,1.92-.85,4.98,1.05,9.15,3.88,13.04-.01,.35-.02,.7-.04,1.05-2.54,1.3-4.14,1.06-3.94-2.32,.12-1.98,.12-3.96-1-5.74-1.15-1.21-3.41-1.59-2.98-3.98h0c1.98-.69,1.06-2.82,2.01-4.02Z"/><path class="cls-81" d="M560,117.53c-3.71-1.43-1.29-4.63-2-6.92,1.99,1.93,1.25,4.64,2,6.92Z"/><path class="cls-131" d="M394,288.71c-1.46,.37-2.71-.24-3.97-.83h0c-1.27-2.53-3.05-2.94-5.61-1.72-3.11,1.48-6.36,1.97-9.54,0-1.99-2.05-5.17-.59-7.22-2.45-3.18-2.92-6.4,.63-9.59-.03-3.45-.89-6.91-1.89-10.41-.2-.83,.41-1.68,.74-2.6,.87-3.3,.37-6.73-1.25-9.94,.58h0c-5.19,2.09-10.25,3.49-15.49-.28-1.46-1.05-3.88-.7-5.75,.33-3.62,2.12-7.31,3.95-11.67,2.24-2.98-2.6-6.21-3.17-9.76-1.18-.43,.19-.87,.29-1.34,.29-1.33-.2-2.7-.52-3.51-1.59-2.25-2.99-4.88-2.84-7.79-1.19-1.19,1.3-2.5,1.84-4.37,1.37-3.98-.99-8.21-.2-12.14-1.2-2.82-.72-3.97,2.03-6.22,2.15-7.36,.2-14.56,2.15-21.98,1.95-2.46-.07-4.65,.15-7.01-1.37-3.05-1.96-6.5-2.06-9.14,1.27-1.34,1.21-3,1.66-4.71,1.98-.46-.01-.92-.08-1.36-.19-2.03-.34-3.96-1.67-6.14-.58-.74,.44-1.52,.79-2.36,.99-.85,.22-1.71,.45-2.58,.6-2.7,.65-6.07-3.28-8.19,1.23-.37,.32-.79,.5-1.28,.56-4.02-2.03-7.84,.19-11.7,.7-2.43,.32-4.5,.18-6.48-1.21l.02-.02c-1.35-1.66-2.74-1.03-4.14-.08-1.72,.03-3.43,.1-4.91,1.14-4.27-1.15-8.93,.34-13.03-1.94-.67-.34-1.33-.69-2-1.03h0c-2.58-1.84-4.97-2.1-7.19,.63-.87,1.07-2.1,1.47-3.49,.86-1.84-.43-3.69,.16-5.53,0-3.38,2.51-6.85,3.29-10.93,1.42-2.87-1.32-6.16,.53-9.18-.5-2.4-1.91-5.13,.52-7.6-.55-2.73-.65-5.43-1.06-7.9-2.81-3.04-2.16-5.01,2.76-8.11,1.89l.04-.03c-.32-.25-.63-.52-.91-.82-1.28-1.21-2.31,.05-3.45,.33-.66,.14-1.32,.33-2.01,.23-3.68-.48-7.24-.62-10.29,2.17-1.62,1.48-3.44,.6-5.14-.12-1.26-.93-2.55-1.6-4.05-.43-.43,.14-.86,.19-1.31,.15-1.62-.3-2.56-1.7-3.92-2.43l-.05,.07c-5.12-.83-10.11-1.95-13.7-6.16-.1-.6-.2-1.2-.3-1.8-2.6-4.48-5.31-8.77-10.35-11.07-3.75-1.71-8-3.51-7.07-8.79,.83-4.75-1.3-6.21-5.53-6.1-.74,.35-1.19-.04-1.58-.6-.58-1.28-.82-2.76-2.09-3.66-.97-1.4-1.58-3.02-2.74-4.29-.24-.38-.42-.79-.54-1.22-1.03-2.07-.7-4.54-1.95-6.54-.63-1.83-1.38-3.65-.63-5.63,.19-3.51-.44-7.03,0-10.54-2.39-3.9,.26-7.97-.41-11.93,.01-.46,.07-.92,.15-1.37,.87-1.96-.81-3.38-1.1-5.1-2.34-6.34-.88-13.52-4.38-19.59-.25-.43-.52-.95-.43-1.39,1.25-5.57-.6-10.78-1.84-16.06,1.42-5.19,1.71-10.41,.49-15.68-.26-.38-.52-.75-.79-1.12l-.2-3.9c.09-.2,.17-.39,.25-.59,1.04-1.39,1.62-2.97,1.92-4.67,.13-.44,.31-.84,.53-1.24,1.31-1.7,2.64-3.34,.56-5.45-1.37-1.38-1.21-3.24-1.2-5.02,.04-.48,.13-.95,.25-1.41,.47-1.88,.66-3.84,1.67-5.55h0c-1.51-6.29,1.65-12.57,.02-18.87-.62-1.02-1.25-2.05-1.87-3.07-2.48-3,1.41-5.98,.02-8.98-.06-1.61-.12-3.23-.18-4.84,.5-11.57,3.32-22.52,8.37-32.97,1.64-3.39,2.55-7.14,3.79-10.72,.35-.41,.71-.82,1.06-1.22,.28,.07,.57,.11,.87,.12,.66-.09,1.33-.21,1.86-.63,1.13-.9,2.06-2.36,3.84-1.27,1.62,.99,2.06,2.49,1.84,4.28-.18,1.46-.35,2.94,.55,4.49-.58-3.46,.8-5.22,4.58-4.98-.59-2.47-2.7-4.51-.97-6.71,1.46-1.86,3-.21,4.48,.22,.8,.03-2.01-.1-1.2-.17-.93-.02,1.76,.25,.84-.02-1.66-.98-2.99-2.1-1.88-4.28,.68-.98,1.36-1.97,2.04-2.95,2.61-1.27,6.01-1.45,6.97-5,4.45-2.12,7.47-6.9,13.01-7,3.82-.7,6.89-4.26,11.49-2.57,.95,.35,2.97-2.17,4.49-3.37,.66,0,1.33,0,1.99,0,1.59,1.04,3.5,.9,5.23,1.43,4.6,1.41,4.62,1.35,4.78-3.42h0c2.66-.8,5.32-.79,7.99,0h0c2.94,1.56,3.93,4.28,4.4,7.32-10.24,20.06-16.11,41.77-23.97,62.72-3.2,8.54-6.39,17.12-11.24,24.91-8.96,14.37-10.35,30.33-9.5,46.55,.51,9.68,.72,19.53,4.23,29.3,4.11-5.88,5.8-12.21,6.46-18.79,.99-9.79,.29-19.55-1.32-29.24-.33-2-1.41-3.7-2.41-5.44-.67-1.17-1.33-2.41-.06-3.61,1.31-1.25,2.72-.95,4.12-.12,5.22,3.09,8.17,8.18,9.49,13.56,4.02,16.43,4.54,33.1,1.35,49.8,2.89-13.71,6.26-27.34,8.98-41.09,1.24-6.3,3.43-12.15,6.37-17.72,7.73-14.63,17.86-27.57,29.06-39.67,3.95-4.27,7.71-8.72,11.93-12.73,1.41-1.34,3.21-3.2,5.14-1.62,1.87,1.52,.63,3.7-.38,5.43-6.43,11.04-13.85,21.53-18.87,33.34-7.02,16.53-11.13,33.66-10.51,51.75,.18,5.3,.21,10.6-.62,14.53,.24-5.38,2.65-11.58,5.06-17.69,3.47-8.78,6.33-17.83,10.94-26.14,.73-1.31,1.33-2.7,2.45-3.73,.86-.79,1.8-1.61,3.09-.96,1.2,.6,1.49,1.7,1.41,2.94-.09,1.33-.32,2.66-.76,3.9-4.02,11.31-5.78,23.02-6.06,34.75,4.98-9.17,12.11-17.07,19.16-25.02,8.83-9.95,18.27-19.29,28.33-28.02,1.64-1.42,3.27-2.83,5.5-3.28,2.29,.11,4.03,1.01,4.77,3.32-.2,3.21-2.46,5.38-4.17,7.75-5.46,7.54-10.6,15.36-14.68,23.63-5.85,11.85-11.47,23.93-14.19,37.04-.17,.8-.33,1.62-.67,2.39,4.71-8.63,10.91-16.06,18.41-22.38,1.31-1.1,2.86-3.29,4.61-2.05,2.17,1.54,.78,3.94-.11,5.88-4.55,9.94-9.46,19.73-12.94,29.59,8.17-12.86,16.97-25.93,26.94-38.16,.73-.9,1.47-1.81,2.3-2.62,1.28-1.26,2.66-3.2,4.59-2.02,1.98,1.21,.8,3.39,.15,4.98-3.87,9.52-8.79,18.57-12.75,28.06-2.02,4.85-3.07,10.08-5.11,13.46,2.06-4.57,5.47-9.96,8.67-15.47,.97-1.66,1.71-4.12,4.2-3.51,2.74,.67,1.4,3.27,1.61,5.07,.07,.62-.18,1.3-.07,1.96-.12,.44-.32,.86-.61,1.22,.01,0,.17-.02,.28-.19,.37-.54,.48-1.16,.41-1.81,.53-4.43,1.61-8.77,.72-13.33-.63-3.2,.92-4.12,4.09-2.99,8.14,2.9,9.5,10.04,10.9,17.08,.64,3.21,.13,6.52-.25,8.36,.53-4.76,2.77-10.56,3.88-16.62,.2-1.11,.6-2.38,2.02-2.54,1.64-.18,2.34,1.11,2.89,2.3,1.44,3.14,2.44,6.45,3.31,9.93,.29-12.25,3.98-23.56,7.73-34.91,4-12.11,10.91-22.7,17.17-33.63,.92-1.61,1.93-4.12,4.4-2.89,2.43,1.21,1.69,3.67,1.04,5.77-4.26,13.63-8.28,27.31-10.48,41.46-.77,4.97-.3,9.94-.44,14.97,2.98-9.69,6.45-19.17,11.47-28,1.41-2.48,2.73-6.49,6.16-5.15,3.09,1.21,1.52,5.11,.88,7.67-3.55,14.26-3.95,28.89-5.34,43.4-.09,.97-.36,2.2,.68,2.7,1.36,.65,2.06-.69,2.81-1.48,1.73-1.83,2.99-3.99,4.03-6.26,9-19.57,10.57-40.23,8.98-61.34-.19-2.51-1.61-4.7-2.23-7.11-.43-1.66-.68-3.49,.95-4.55,1.82-1.18,3.25,.35,4.26,1.52,6.02,7,11.25,14.43,12.01,24.05-.42,1.87-.38,3.66,1.06,5.17,2.61,7.27,1.74,14.71,.88,22.1-.36,3.11-.7,6.22-1.29,9.96,7.48-16.24,7.52-32.16,2.31-48.32-.45-1.41-1.3-3,.21-4.11,1.62-1.19,3.19-.23,4.52,.86,5.61,4.59,8.35,11.11,11.35,17.35,6.15,12.78,7.31,26.76,9.2,40.22,2.69-13.21,6.22-26.43,13.93-38.28,3.98-6.11,9.19-10.86,14.5-15.62,.91-.81,2.01-1.17,3.23-.56,1.16,1.46,.41,2.99,.21,4.5-1.62,4.76-5.08,8.48-7.36,12.88-5.68,10.94-8.16,22.27-4.79,34.43,.88,3.19,2.03,6.24,4.9,9.49,2.3-5.97,1.9-11.43,1.19-16.9-.27-2.1-1.38-4.12-.53-6.31,.91-1.15,2.09-1.62,3.54-1.44,6.42,5.09,7.34,12.65,9.06,19.04,.73-4.4,.16-9.71,.51-14.98,.09-1.41,0-3.35,1.92-3.56,1.44-.16,2.14,1.36,2.75,2.54,.85,1.62,1.71,3.22,2.59,4.82,.61,1.12,.79,2.89,2.29,2.98,1.63,.1,1.75-1.75,2.34-2.84,4.16-7.59,7.54-15.49,9.59-23.93,5.93-24.29,13.03-48.34,17.74-72.88,4.33-22.6,10.03-44.95,12.79-67.85,.22-1.84,.67-3.59,2.26-4.81,6.06-.39,12.15-.3,18.15-1.63,1.58-.35,3.41-.15,4.84-.9,5.83-3.03,12.01-1.63,18.1-1.83,8.99-.3,17.88,1.6,26.87,1.09,1.75-.1,3.73-.15,4.83,1.8,.45,4.22-1.43,8.08-1.87,12.16-1.98,18.2-3.51,36.41-3.14,54.77,.31,15.37,.64,30.78-.08,46.13-.61,13.07-1.44,26.06,.18,39.1,.9,7.25,4.49,13.33,8.29,20.29,3.77-9.81,7.28-18.93,11.55-27.73,8.22-16.96,19.17-32.02,32.3-45.41,3.53-3.6,7.7-7.13,12.86-8.79,.61,.66,.56,1.3-.05,1.92-16.89,18.9-32.41,51.55-34.86,67.68,4.81-9.86,9.99-17.88,15.13-25.9,3.29-5.13,7-10,10.7-14.85,.98-1.28,2.26-3.69,4.26-2.21,1.27,.94-.57,2.54-1.13,3.83-4.95,11.27-9.6,22.65-12.44,34.87,8.17-9.55,15.15-20.34,27.42-25.36,1.29-.42,2.79-1.41,3.07,1.06-12.66,12.29-17.51,27.52-17.14,45.73,3.44-4.58,4.18-9.33,6-13.61,3.88-9.12,8.6-17.8,13.96-26.13,4.42-6.86,7.85-14.14,10.11-21.97,2.46-.47,3.47,1.43,4.78,2.87,.94,2.06,1.9,4.11,2.13,6.41,.37,4.71,1.49,10.09,.5,14.01-2,7.94-.44,15.61-1.1,23.35-.03,.32-.22,.61-.37,.9-1.51,2.08-1.93,4.32-.94,6.75,.95,4.35,4.54,8.17,2.61,13.08-2.01,5.28-4.24,10.49-4.67,16.23h0c-.56,.77-.95,1.7-1.96,2.04-1.44,1.08-1.33,2.82-.96,4.06,1.84,6.17-.81,10.92-4.31,15.57-.62,.82-.55,2.15-.79,3.24-.64,2.21-.5,4.42-3.47,5.81-2.24,1.05-1.06,5.3-3.43,7.23-.03,.32-.04,.64-.03,.96-.57,.72-.26,1.74-.81,2.47-2.06,3.47-3.76,7.28-8.2,8.46-.33,0-.65,0-.98,.01-2.21,2.8-5.3,3.54-8.36,2.36-3.64-1.41-6.91,3.34-10.77-.68,1.93,5.19-1.56,6.94-3.87,9.28l-.09,3.91c-.25,.39-.54,.75-.87,1.07-1.76,1.48-3.41,2.71-4.66-.59-.25-.67-1.48-.42-2.24-.63-3.45,.53-1.81,3.8-2.99,5.54-.31,1.45-1,2.66-2.28,3.48l-1.67,.24c-2.27,2.28-3.98,1.72-5.27-.96-.04,2.41-1.75,3.51-3.74,4.37-1.32,1.21-3.01,1.53-4.67,1.94-3.11-1.06-6.39,1.06-9.47-.49l-.08,.07c-.29-.33-.56-.66-.83-1-.58-1.71-2.24-1.83-3.59-2.39-2.44-3.12-5.49-4.62-9.5-3.54-4.56-.02-9.06-1.69-13.66-.43-.81,.39-1.51,.98-2.41,1.2-.68,.37-1.35,.73-2.03,1.1-1.13,.8-2.75,1.29-3.71,.89-5.84-2.38-11.53,.35-17.28,.26-2.91-.05-5.44,2.12-8.39,2.4-4.91,1.4-9.53-.39-14.19-1.42-1.16-.26-2.25-.28-3.39-.23Z"/><path class="cls-40" d="M497.91,286.7c.39-1.23,.79-2.46,1.18-3.69,.31-.38,.67-.7,1.1-.93,2.83-.54,5.61-1.3,8.45-1.78,1.58,.27,2.34,1.6,3.38,2.57,0,.32-.02,.64-.07,.96-1.97,.8-3.97-2.22-5.93,.03-1.38,1.03-2.27,2.44-3.08,3.91-1.82,.35-3.33-.8-5.02-1.06Z"/><path class="cls-169" d="M487.03,289.85c.62-.51,1.5-.89,1.82-1.54,1.19-2.47,2.44-3.29,4.66-.94,.35,.38,1.79-.26,2.72-.43-.08,1.52-1.74,1.75-2.34,2.84-.27,.04-.55,.08-.82,.1-2.02,.71-4.03,.74-6.04-.02Z"/><path class="cls-86" d="M502.93,287.77c-1.18-3.04-.07-4.27,3.08-3.91,.96,.4,1.65,1.07,2.02,2.05-1.7,.62-3.4,1.24-5.1,1.86Z"/><path class="cls-66" d="M333.08,10.98c-2.47,1.9-5.32,.56-7.97,.93-1.58-1.98-4.46,.07-6.03-1.94,4.76-.93,9.31,1.04,14,1.02Z"/><path class="cls-33" d="M300.08,11.87c1.34,.03,2.67,.07,4.01,.1,.34,.65,.67,1.31,1.01,1.96-1.16,1.09-2.78,.89-4.14,1.47-5.17,2.22-6.07,1.93-9.95-2.68,1.49-2.3,2.8-1.24,4.08,.23,2.25,2.31,3.37-.51,4.99-1.08Z"/><path class="cls-75" d="M295.09,12.95c-1.33-.49-2.66-1.82-3.98,.02-.2,.18-.4,.36-.59,.54-3.04,.86-5.76,.02-8.35-1.53-.01-.31,0-.61,.04-.91,3.06-.03,6.13-.09,9.19-.08,1.54,0,3.41-.44,3.69,1.96Z"/><path class="cls-27" d="M512.01,282.87c-1.45,0-2.44-.67-2.99-2-.58-1.3,.51-2.02,1.03-2.94,.3-.02,.59-.06,.89-.09,.37,.03,.75,.07,1.13,.1-1.26,1.63,.36,3.3-.05,4.94Z"/><path class="cls-166" d="M487.03,289.85c2.01,0,4.02,.02,6.04,.02-.05,.28-.09,.55-.14,.82-3.62-.75-6.47,1.99-9.89,2.18-.55-.35-.57-.72-.04-1.11,1.34-.64,2.69-1.28,4.03-1.92Z"/><path class="cls-39" d="M542.95,253.98c.36-.65,.71-1.31,1.07-1.96l.99,.97c.39,3.45-1.73,6.06-3.02,8.94-.32,.35-.64,.71-.96,1.07-1,0-1.99,0-2.99-.01,1.1-3.29,4.04-5.59,4.91-9Z"/><path class="cls-29" d="M45.41,283.77c4.31,2.62,9.02,4.35,13.7,6.16-3.79,.07-7.64,.44-10.9-2.14-1.38-1.29-2.76-2.58-4.15-3.87,.45-.05,.9-.1,1.35-.15Z"/><path class="cls-36" d="M562.01,138.45c.13-2.26-1.09-4.06-2.04-5.95-.89-1.64-1.56-3.28-.02-4.93,.34-.02,.68-.03,1.03-.05,1.2,3.33,.91,7.08,2.86,10.2,.06,3.9,.12,7.8,.17,11.69-1.79,.09-1.55-1.14-1.58-2.3-.07-2.89,.59-5.82-.43-8.66Z"/><path class="cls-154" d="M542.95,253.98c1.08,4.47-2.98,6.16-4.91,9-.28,.05-.56,.07-.85,.06-.73-.03-1.45-.06-2.18-.09,3.56-2.19,4.76-6.45,7.94-8.97Z"/><path class="cls-78" d="M99.07,7.02l.05,2.96c-1.83,.4-2.71-1.1-3.93-1.94l-.1-.15c1.11-1.28,2.59-.85,3.97-.86Z"/><path class="cls-141" d="M200.09,15.91l1.02,.02c1.62,.76,3.07,1.83,2.08,3.77-.78,1.51-2.52,1.35-4.04,1.12-.99-.15-2.01-.39-2.83-.91-9.15-5.71-19.11-3.68-29.02-3.53-6.63,.1-13.64,1.67-19.98-2-.45-.44-.51-.92-.17-1.45,4.25-3.23,9.23-.88,13.32-.48,7.7,.77,15.12-1.48,22.66-.52,3.81-1.25,7.31,.96,11,1.01h0c.68,.74,.19,2.66,2.15,2.12,.39,.07,.76,.2,1.13,.35,.69,.27,1.36,.65,2.15,.55,.18-.03,.37-.05,.55-.07Z"/><path class="cls-61" d="M147.14,12.93v1.01c-1.83,1.75-4.3,1.87-6.47,1.77-4.42-.2-8.84,.17-13.24-.22-2.41-.28-4.82-.56-7.2,.18-.64,.3-1.29,.59-1.95,.86-1.14,.41-2.31,.48-3.5,.29-.46-.07-.91-.18-1.36-.3-2.3-.64-4.54-.46-6.71,.57-2.99,.79-6.17,2.19-7.63-2.22,.61-4.53-3.48-4.4-5.91-5.91,.68-.31,1.35-.62,2.03-.94,1.73-.2,2.59,1.35,3.93,1.95,.42,.99,2.18,1.09,1.72,2.68-.36,1.23,.58,2.34,1.39,2.07,4.88-1.64,10.05-.46,14.94-1.71,9.99-1.61,19.98-1.17,29.97-.08Z"/><path class="cls-48" d="M194.11,12.96c-3.75,.59-7.3-.97-11-1.01,0-.3,.04-.6,.1-.9,3.79-.23,7.45,.24,10.9,1.91Z"/><path class="cls-165" d="M127.15,13.95c6.66,.48,13.32,.48,19.99,0,9.43,1.44,18.79,1.27,28.33,.44,3.49-.3,7.38-.46,11.09-.47,1.8,0,3.02,.52,4.24,1.97,2.49,2.94,6.57,3.47,9.79,3.73,4.94,.4-.75-2.51,.52-3.69,8.27-4.49,16.56-3.73,24.7,.2,2.8,1.35,4.65-.36,6.85-1.21,2.8-1.08,5.85-5.57,8.24,.55,.04,.1,1.44-.34,2.21-.52,10.57-2.13,21.11-2.82,31.75-.19,2.38,.59,5.41,1.07,7.2-1.85l-.05-.04c3.05-1.43,6.04,1.97,9.09,.1h0c3.5,1.72,6.89,4.98,10.73,.4,.35-.42,2.13,.35,3.25,.57,4.14,4.91,7.4,.19,10.99-.99,7.69-.23,15.32,.7,22.99,1.01h0c5.21,1.84,10.46,.44,15.6-.19,4.72-.57,9.3-2.5,13.94,.28,1.04,.62,2.09,.55,3.04-.64,2.17-2.74,5.15-3.17,8.4-2.42h-.01c1.94,.16,.68,4.62,3.98,2.93,.35-.33,.69-.66,1.04-.99,1.51-1.12,3.51,.24,5-.97h0c2-1.63,3.98-.35,5.97,.04,.74,.38,1.47,.77,2.21,1.15,.54,.96,.67,1.9-.08,2.82-2.11,16.68-6.33,32.97-9.18,49.51-4.66,27.12-12.09,53.59-18.42,80.32-3.7,15.64-7.87,31-16.69,45.16-3.82-3.65-5.28-8.67-8.47-14.03-.8,8.59,.49,16.14-1.93,24.79-2.46-9.3-3.76-17.74-9.46-24.35-1.37-.89-2.23-.32-2.83,.98,2.28,7.54,2.76,15.15,.74,22.82-.27,1.02-.45,2.59-1.85,2.52-.69-.04-1.46-1.18-1.96-1.96-7.37-11.61-7.15-23.86-3.07-36.43,2.46-7.58,7.46-13.81,11.11-20.76,.32-1.31,2.31-2.27,.85-3.96-6.96,4.65-12.47,10.56-17.08,17.61-8.32,12.72-10.94,27.28-14.86,41.65-1.45-3.99-1.2-8.23-1.86-12.28-1.8-11.07-3.06-22.27-8.12-32.46-2.84-5.72-5.25-11.79-10.18-16.22-1.16-1.05-2.32-3.19-4.02-1.89-1.41,1.08,.55,2.58,.92,3.91,4.44,15.96,5.51,31.73-2.55,47.02-.7,1.32-1.37,2.63-3.24,3.15,1.73-11.62,4.2-23.08,1.04-34.68-1.16-1.14-.36-2.73-.94-4.01-1.11-10.77-7-18.94-14.09-26.57-1.37,1.08-1.69,2.07-1.08,3.28,4.49,9.03,3.32,18.75,3.06,28.24-.42,14.94-3.28,29.46-9.97,43.01-1.31,2.65-2.7,5.33-5.22,7.16-1.01,.73-1.5,2.79-2.99,2.12-1.6-.71-2.06-2.7-1.64-4.31,1.36-5.21,.59-10.54,1.18-15.8,1.2-10.8,2.45-21.59,4.83-32.22,.31-1.38,.86-2.8-.42-5.01-9.47,11.52-12.6,25.34-17.31,38.48-2.14-.44-1.22-2.09-1.31-3.16-1.16-14.59,2.33-28.52,6.21-42.38,1.56-5.55,3.35-11.03,5.06-16.54,.49-1.58,1.45-3.65-.5-4.35-1.73-.62-1.93,1.83-2.67,2.97-11.03,17.07-19.46,35.25-23.33,55.3-1.06,5.48-1.47,11.08-2.31,17.68-2.45-6.01-3.26-11.84-6.7-17.91-1.98,9-3.39,16.84-7.14,25.3,.41-12.84,2.2-24.96-13.44-31.58,2.88,6.96,1.64,12.59-.4,18.12-.34,.37-.67,.38-.99-.02l-1.07-8.33c-5.13,8.62-9.62,16.17-14.12,23.73,3.51-17.68,12.98-33.04,18.74-49.91-14.09,13.74-24.05,30.43-35.31,46.23,2.96-13.69,10.34-25.63,14.88-38.71-10.55,7.09-18,16.68-24.28,28.41,.34-14.3,11.87-44.73,34.38-75.03,1.26-3.73,2.91-7.24,5.87-10.01-3.67,1.81-6.15,5.35-9.99,6.91-15.74,12.28-29.16,26.87-42,42.03-4.56,5.38-8.26,11.37-12.75,18.24,.49-14.26,1.85-27.07,6.3-39.44,.64-1.79,2.59-4.89,.44-5.73-2.76-1.08-3.16,2.61-4.08,4.47-7.41,14.85-13.06,30.38-17.4,46.42-1.38-19.31-.69-38.38,5.09-57.05,5.67-18.29,16.66-33.96,26.63-51.11-4.89,.37-6.04,3.27-7.92,5.21-14.35,14.74-27.77,30.18-37.79,48.29-4.64,8.38-6.42,17.59-8.4,26.78-2.22,10.29-4.62,20.54-6.8,30.84-.46,2.16-1.38,3.82-3.32,5.18,1.63-8.77,2.12-17.54,2.24-26.37,.09-6.97-1.04-13.71-1.95-20.54-.69-5.17-2.21-9.81-5.08-14.11-.73-1.09-1-2.69-2.36-3.05-2-.52-3.12-4.27-5.32-2.37-2.21,1.9,1.28,3.07,1.94,4.69,1.67,4.1,1.77,8.41,2.14,12.61,1.13,12.89,1.63,25.8-4.94,37.73-.86,1.56-1.94,3.01-3.27,5.04-2.14-7.02-3.54-13.55-4.14-20.19-1.31-14.61-1.93-29.21,1.88-43.65,1.58-6,4.3-11.39,7.34-16.73,8.74-15.33,13.49-32.27,19.52-48.7,4.76-12.97,8.29-26.46,16.02-38.19,.66-.97,.61-2.48,2.13-2.81,.3-.02,.6-.06,.9-.1,2.34,2.97,5.22,1.88,8.07,1.06,2.33-.75,4.66-.76,6.99,0h0c1.33,1.09,2.66,1.13,3.99-.01l1.01-1c2.55-1.29,5.46,.38,8.01-.98Z"/><path class="cls-47" d="M282.06,12.91c-.96,3.55-3.89,3.2-6.45,2.96-6.51-.61-12.99-1.5-19.49-2.19-.94-.1-2.38-.1-2.82,.46-3.17,4.02-6.71,1.67-10.18,.82,0-.34-.01-.68-.02-1.02-.57-3.21,1.91-4.36,3.74-3.24,3.47,2.12,6.31,.64,9.42-.17,.63-.16,1.32-.07,1.83,.46,5.45,.88,10.9,1.72,16.34,2.64,2.62,.44,5.2,.71,7.63-.71Z"/><path class="cls-44" d="M258.09,10.97c-2.03-.35-3.33,1.32-5.02,1.77-1.75,.47-3.41,2.24-5.44-.76-1.89-2.79-3.5,.02-4.53,1.94-3.43-.49-.52-2.65-1.04-3.91,2.35-.03,4.71-.05,7.07-.08h0c1.66,1.67,3.33,1.54,5.01,.04,1.32,0,2.63,0,3.95,0,.02,.33,.03,.66,.01,.99Z"/><path class="cls-44" d="M224.09,12.01c4.29,.59,8.64,1.42,11.88-2.7,.04-.05,.74,.43,1.13,.66-1.78,1.12-3.09,2.74-5.03,3.8-3.48,1.91-5.92,1.53-7.98-1.77Z"/><path class="cls-115" d="M195.2,12.88c1.4,1.13,2.33,.55,3.61-.49,1.1-.89,2.19-.44,1.35,1.33-.02,.73-.05,1.45-.07,2.18h0c-.98,.87-1.97,.73-2.97,.02h0c-.91-.82-3.37-.55-2.07-2.92l.14-.13Z"/><path class="cls-33" d="M291.1,12.96c-3.06,2.47-6.06-.12-9.09-.1,.01-.3,.06-.6,.14-.89,2.98,.33,5.96,.66,8.94,.99Z"/><path class="cls-48" d="M195.06,13.01c-.13,1.55,1.42,1.92,2.07,2.92-1.87-.12-5.09,1.13-3.02-2.97,.32-.02,.63,0,.95,.05Z"/><path class="cls-110" d="M254.13,9.99c-1.69,2.58-3.36,2.7-5.01-.04,1.67,.5,3.34,.44,5.01,.04Z"/><path class="cls-166" d="M139.1,290.9c1.42-.14,2.57-.1,3.68-1.72,2.25-3.3,4.92-2.87,7.34,.7-3.33,1.01-6.66,2.02-9.99,3.03-.39-.32-.78-.63-1.17-.95-.28-.4-.24-.75,.14-1.07Z"/><path class="cls-49" d="M113.26,291.71c4.52,.36,9.1-1.59,13.62,.98,2.53,1.44,4.74-1.49,7.26-1.88,.33,.23,.44,.45,.33,.68-.11,.23-.22,.35-.33,.35-.97,.68-1.95,1.36-2.92,2.05-2.39,.68-4.78,.65-7.17,.01-3.65-.19-7.38,.45-10.88-1.14l-.34-.56,.44-.49Z"/><path class="cls-49" d="M106.2,291.73c2.35,.17,4.7-3.98,7.06-.02l-.2,.22c-1.17,.88-2.84-.47-3.91,.86-.99-.01-1.98-.02-2.97-.04,0-.34,.02-.68,.02-1.02Z"/><path class="cls-123" d="M124.05,293.9c2.39,0,4.78-.01,7.17-.01-2.39,1.5-4.78,1.3-7.17,.01Z"/><path class="cls-123" d="M134.14,291.84v-1.03c1.65,0,3.31-.71,4.95,.08-.04,.35-.09,.71-.13,1.06-1.61-.04-3.21-.08-4.82-.12Z"/><path class="cls-123" d="M109.15,292.79c.85-2.32,2.51-1.03,3.91-.86,.05,.28,.09,.55,.11,.83-1.34,0-2.68,.02-4.02,.03Z"/><path class="cls-57" d="M174.16,291.8c4.07,.37,8.06,.64,11.93-1.34,2.47-1.26,4.4,2.03,6.96,1.33,.28,.22,.37,.44,.28,.66-.09,.22-.18,.33-.28,.33v-.02c-4.83-.45-9.28,1.69-13.99,2.04-2.42,.27-3.91-.95-4.9-2.99Z"/><path class="cls-57" d="M152.11,290.9c4.34,.69,8.84,.29,13.03,1.94-4.37-.48-9.15,1.79-13.03-1.94Z"/><path class="cls-160" d="M170.04,291.7c1.13-.58-.2-2.98,1.93-2.73,1.53,.18,2.07,1.4,2.21,2.8-1.38-.03-2.76-.05-4.14-.08Z"/><path class="cls-76" d="M202.11,289.84c.59-.15,1.18-.3,1.77-.46,3.14,.89,6.26-1.56,9.4-.06,.95,.18,2.03-.27,2.85,.57-1.39,2.46-3.1,2.95-6.06,2.26-3.56-.83-7.41,.8-11.12-.25,.11-.18,.23-.37,.34-.56,.8-.77,2.05-.69,2.82-1.52Z"/><path class="cls-55" d="M193.05,292.77c.05-.33,.05-.66,0-.99l.07,.04c2.76-3.09,3.71-3.09,6.07-.03l-.22,.11c-1.97,.29-3.94,.58-5.91,.87Z"/><path class="cls-88" d="M224.08,290.81c-1.99,.34-4.24-.77-5.98,1.03-.81-.46-.99-1.25-1.06-2.08,.22-.18,.43-.37,.64-.56,2.24-.82,4.43-1.06,6.42,.64l.03,.03c-.02,.32-.03,.63-.05,.95Z"/><path class="cls-158" d="M216.14,289.89c-1-.04-1.99-.07-2.99-.11-.25-.22-.34-.43-.25-.65,.09-.21,.17-.32,.26-.32,1.74,.26,3.18-.71,4.75-1.16,.15,.19,.29,.38,.44,.57-.07,.82-.66,1.21-1.3,1.56v-.03c-.31-.02-.61,.03-.9,.14Z"/><path class="cls-158" d="M217.9,287.65c2.66-4.39,8.47-5.31,11.51-1.76,.63,.74,1.34,1.01,2.15,.93,5.54-.55,11.23,1.17,16.67-1.41,2.74-1.3,5.9-.39,8.86-.55,.53,.75,1.71,.2,2.18,1.07-.44,.56-.88,1.12-1.32,1.68-1.98-.59-3.97-1.72-5.87,.17-3.49,.59-7.02,1.01-10.53,.38-3.09-.56-5.91-.29-8.45,1.67-2.34,.37-4.2-.65-5.95-2.01-3.01-1.89-5.93,1.47-8.93,.16l-.32-.33Z"/><path class="cls-116" d="M218.23,287.99c2.97-.61,5.88-4.15,8.93-.16-1.44,.03-2.48,.67-3.05,2-2.36-.02-4.71-.03-7.07-.05,.4-.6,.79-1.2,1.19-1.8Z"/><path class="cls-31" d="M562.01,138.45c2.55,3.31-.66,7.67,2.01,10.96,2.22,4.16-.68,7.96-.85,11.95-1.23,1.46-1.4,3.14-1.07,4.94,2.55,2.74,1.2,5.95,1.08,9.02-.27,.65,1.1,1.42-.14,2.01-.7,.52-1.39,.6-2.07-.04,1.68-2.54,1.28-6.03,.5-7.93-1.64-4-.58-7.11,.41-10.78,1.78-6.61-.71-13.4,.13-20.12Z"/><path class="cls-77" d="M562.08,178.4c-.14,2.72,2.67,3.18,3.81,4.93-1.14,1.88-2.87,1.76-4.68,1.38-.42-.32-.65-.75-.71-1.28-.69-2.05-1.56-4.16,1.57-5.03Z"/><path class="cls-28" d="M562.08,178.4c-2.43,1.15-1.22,3.14-1.14,4.88-.31,.47-.62,.49-.92,0-2.09-2.38-.66-4.2,.96-5.99,.69,.01,1.38,.03,2.07,.04-.32,.36-.64,.72-.96,1.08Z"/><path class="cls-71" d="M561.16,184.25c1.66,.13,3.27-.03,4.73-.92,.04,.64,.08,1.27,.13,1.91-.16,.7,.09,1.81-1.31,.79-1.36-1-1.52,.27-1.7,1.22-2.29,.03-2.27-1.36-1.85-2.99Z"/><path class="cls-83" d="M563.18,175.31c-.58-2.98,.52-6.16-1.08-9.02,3.63,2.62,1.8,5.88,1.08,9.02Z"/><path class="cls-166" d="M558.97,213.12c-2.76-6.34,2.34-10.75,3.99-16,.85,1.68,.76,3.36,.04,5.05-3.31,2.55-.09,5.98-1.2,8.82-.94,.71-1.88,1.42-2.83,2.13Z"/><path class="cls-24" d="M563,202.17c-.01-1.68-.03-3.36-.04-5.05,1.88-5.22-2.91-9.04-2.94-13.86,.31,0,.61,0,.92,0,.07,.32,.15,.65,.22,.97,.62,1,1.23,1.99,1.85,2.99,2.91,2.84,2.5,6.28,1.79,9.77-1.66,1.35,0,3.86-1.8,5.16Z"/><path class="cls-73" d="M558.93,224.21c-1.61-1.67-2.18-3.67-1.86-5.94,.18-.49,.47-.58,.87-.22,.33,2.05,.66,4.11,.99,6.16Z"/><path class="cls-166" d="M557.95,218.04c-.29,.06-.59,.13-.87,.22-.02-1.03-.04-2.07-.06-3.1,.4-.92,.98-1.67,1.96-2.03-.34,1.64-.68,3.28-1.02,4.92Z"/><path class="cls-41" d="M302.07,285.89c4.22,2.25,7.63,.19,11.01-2.05,4.88-1.58,8.6,.78,12.2,3.56-.11,.21-.23,.42-.34,.64-1.63-.15-3.26-.14-4.61-1.38-1.23-1.13-2.76-1.12-4.12-.23-4.82,3.18-9.77,2.91-15.09,1.28-2.83-.87-6.01-.61-9.04-.85-.32-.22-.43-.44-.32-.66,.11-.22,.21-.33,.32-.33h0c3.34-2.2,6.66-.98,9.99,.04Z"/><path class="cls-37" d="M292.08,285.85c0,.33,0,.67,0,1-1.29-.08-2.59-.16-3.88-.24q-4.24-4.43-9.11,.24c-1.06-1.65-.67-3.3,.02-4.95,5.35-2.03,8.58,2.83,12.97,3.95Z"/><path class="cls-41" d="M330.22,288.88c-.84,.98-2.04,.82-3.14,1.01-.71-.62-1.43-1.23-2.14-1.85l.28-.38c1.72-.96,3.39-1.19,4.95,.31,0,.3,.01,.61,.05,.91Z"/><path class="cls-149" d="M279.11,281.9c0,1.65-.01,3.3-.02,4.95-.66,.08-1.32,.17-1.97,.25-.99-.42-1.98-.84-2.97-1.26-4.97-1.91-9.91-.44-14.87,.1-.85-.09-1.71-.18-2.18-1.07,5.69-4.83,11.9-.5,17.84-.81,2.14-.11,3.17-.66,4.17-2.16Z"/><path class="cls-167" d="M330.17,287.97c-1.65-.1-3.3-.21-4.95-.31-3.73-2.28-7.61-4.07-12.14-3.82,2.8-1.66,5.95-1.79,8.3,.11,3.04,2.46,6.12,2.13,9.35,1.45,1.48-.31,2.89-.63,4.39-.48-1.04,.6-2.08,1.21-3.12,1.81-.61,.41-1.22,.83-1.83,1.24Z"/><path class="cls-161" d="M398.16,15.96c.03-.94,.05-1.88,.08-2.82,.26-.06,.53-.09,.8-.09,2.7,2.03,5.89,1.06,8.67,.81,5.18-.47,10.61-.12,15.41-2.82,3.39-1.5,6.84-1.59,10.53-1.12,8,1.02,16.07,.3,24.11,.36,.77,0,1.54,.44,2.31,.67,1.53,1.61,3.26,.84,5,.49,2.47-.49,4.86-.59,5.84,2.49-4.75-1.21-9.52-2.1-14.28-.09-.61,.26-1.06,.57-1.81,.3-11.1-4.08-22.22-2.41-33.48-.54-7.64,1.27-15.21,4.11-23.19,2.36Z"/><path class="cls-140" d="M508.02,21.92c.36,.65,.71,1.29,1.07,1.94-4.13,.22-7.98-2.79-11.18-2.84-6.07-.1-9.08-5.52-14.48-5.85-1.36-.08-2.59,.32-3.84,.36-3.36,.11-7.22,.63-7.59-4.46,3.56,2.03,7.44,2.33,11.46,2.64,5.98,.48,11.09,3.91,16.55,6.07,2.68,1.06,5.66,.38,8.02,2.14Z"/><path class="cls-26" d="M537.03,48.78c-.23,1.56,.69,3.69-2.01,4.02,.59-1.63,2.58-3.91-1.58-3.33-.81,.11-1.18-.44-1.06-1.2,.67-4.37-3.08-5.98-5.33-8.54,5.28,.88,8.23,4.31,9.98,9.05Z"/><path class="cls-151" d="M559.96,127.57c0,1.64,.01,3.29,.02,4.93-1.31-.99-2.63-1.99-3.94-2.98,.34-2.65,.67-5.29,1.01-7.94,2.65-.31,.66,2.33,1.89,2.93,.13,1.09-.02,2.27,1.03,3.06Z"/><path class="cls-23" d="M536.51,84.34c.86,1.59,.58,2.87-.87,3.79-.26,.16-1.2-.18-1.2-.27,.04-1.5,.45-2.83,2.07-3.51Z"/><path class="cls-26" d="M535.03,52.8c.99,1.33,1.99,2.65,2.98,3.98-3.81-1.39-4.52-2.35-2.98-3.98Z"/><path class="cls-178" d="M543.1,145.5c-.72-1.21-1.94-1.02-3.07-1.06,1.35-1.33,3.04-1.64,4.31-.35,.84,.84-.52,1.16-1.24,1.41Z"/><path class="cls-58" d="M558.93,124.51c-.63-.98-1.26-1.95-1.89-2.93,.33-1,.66-1.99,.99-2.99,1.97,1.72,.79,3.92,.9,5.92Z"/><path class="cls-157" d="M530.96,106.38c.02-.64,.03-1.28,.05-1.92,.39-.6,1.13-1.04,1.48-.39,.8,1.46-.5,1.87-1.53,2.32Z"/><path class="cls-70" d="M417.99,10.93c1.45-1.54,3.36-.72,5.06-.95,0,.31-.03,.61-.07,.91-1.66,.01-3.33,.03-4.99,.04Z"/><path class="cls-134" d="M444.08,283.91c4.06-1.86,8.18-1.41,12.21-.08,1.05,.35,1.82,.43,2.75,.05,2.72-.91,4.82,1.27,7.36,1.51,1.2,.11,1.67,1.79,.3,2.57-2.46,1.41-.38,2.29,.2,3.37,.09,.21,.18,.43,.26,.65-2.62,1.94-4.3-.28-5.08-1.86-1.78-3.65-3.23-2.68-5.04-.27-.29-.03-.59-.06-.88-.08-.65-.59-1.08-1.4-1.85-1.88-1.9-3.51-5.76-1.6-8.42-3.01-.7-.13-1.32-.43-1.8-.96Z"/><path class="cls-177" d="M394,288.71c2.41-3.92,7.36-.72,7.77-.3,2.96,3.02,6.27,.72,9.22,1.41,1.77-.6,3.53-.82,5.26,.15-.05,.3-.11,.6-.16,.9-7.42,1.42-14.75,.84-22.02-.99-.02-.39-.04-.77-.06-1.16Z"/><path class="cls-145" d="M416.25,289.96c-1.75-.05-3.51-.1-5.26-.15,9.63-4.64,19.85-3.43,29.99-3-.28,.96-1.09,1.03-1.89,1.1-1.7,.67-3.4,.65-5.1,.02-6.28-2.48-11.65,2.91-17.74,2.04Z"/><path class="cls-72" d="M444.08,283.91c.65,0,1.29,.01,1.94,.02,2.89,1.6,6.44,1.65,9.04,3.9,.36,.65,.73,1.29,1.09,1.94-4.38-1.35-8.77-2.7-13.15-4.05,.36-.6,.72-1.2,1.08-1.8Z"/><path class="cls-62" d="M433.99,287.92c1.7,0,3.4-.01,5.1-.02-1.7,1.29-3.4,1.31-5.1,.02Z"/><path class="cls-136" d="M483,291.77c.01,.37,.03,.74,.04,1.11-3.22-1.29-7.06,3.14-9.96-1.08,3.31-.82,6.61-.88,9.92-.03Z"/><path class="cls-43" d="M473.04,290.84c-.02,.34-.03,.69-.05,1.03-.63,.02-1.25,.05-1.88,.07-.38-.05-.76-.1-1.14-.15-.87-.54-1.65-1.13-1.48-2.33,.12-.5,.43-.84,.9-1.03,2.16-.62,3,.74,3.64,2.41Z"/><path class="cls-134" d="M469.07,288.88c.3,.97,.61,1.94,.91,2.91-.94,.06-1.88,.12-2.82,.19l-.21-.27c-.16-1.59-.13-3.04,2.13-2.83Z"/><path class="cls-30" d="M4.33,151.29c.29,.01,.57,.06,.85,.12,1.84,5.33,1.07,10.67,.04,16.01-.04,1.65-.08,3.25,1.13,4.68,.73,.86,1.76,2.2,1.53,3.01-1.8,6.41,2.66,11.98,2.27,18.11-.29,4.52,3.14,8.35,2.09,12.93-.51,.33-.98,.27-1.39-.17-.32-1.56,.01-3.15-.27-4.71-1.95-2.85-3.74-5.69-2.05-9.37,.4-.87,.51-2.21-.25-2.82-4.4-3.51-2.78-7.79-1.73-12.02,.17-.68,.12-1.27-.51-1.71-3.52-3.11-1.32-7.56-2.64-11.19-.66-4.36,1.11-8.55,.94-12.87Z"/><path class="cls-137" d="M7.21,141.45c-.02,.31-.04,.63-.07,.94-.81,.92-1.69,1.68-3.05,1.23-.29-.43-.28-.84,.09-1.23,.35-5.63,.71-11.25,1.06-16.88,.07-.32,.17-.64,.28-.94,.55-.03,1.09-.06,1.64-.09,.85,1.66,.04,3.34,.04,5-.01,.32-.03,.65-.05,.97-.58,2.39-1.05,4.55,1.35,6.56,2.22,1.85-.97,2.89-1.28,4.44Z"/><path class="cls-30" d="M4.17,142.39l.08,1.12c1.23,1.28,.9,2.62,.14,3.97l-.25-.09c-1.46-1.68-1.44-3.34,.03-5Z"/><path class="cls-40" d="M6.04,175.36c1.67,1.06,.95,2.47,.7,3.92-.53,3.08-2.01,6.33,1.82,8.66,1.17,.71,.85,2.52,.5,3.7-1.09,3.64,.19,6.66,2.06,9.61-.34,.44-.67,.44-1,0-2.86-1.03-.94-5.06-3.84-6.06,.93-2.73,2.48-4.81-.53-8.08-2.71-2.94-.59-7.78,.29-11.74Z"/><path class="cls-49" d="M90.17,289.83c.1,.31,.12,.62,.06,.93-4.47,.1-8.58,1.3-12.2,4-4.24-.96-8.78,2.17-12.87-.92-1.31-.02-2.62-.03-3.93-.05-.34-.67-.68-1.33-1.02-2,.99-.71,2-.55,3.01-.05,.28-.01,.56-.03,.84-.06,.71-.43,1.46-.56,2.26-.33,2.91,1.9,5.6,2.45,9.03,.48,2.52-1.45,5.66-2.34,8.84-2.03,.62-.04,1.25-.08,1.87-.12,1.39-.51,2.82-2.05,4.12,.15Z"/><path class="cls-34" d="M63.21,291.74c-1,.02-2.01,.04-3.01,.05-.35-.65-.7-1.3-1.05-1.95,1.62,.05,2.93,.77,4.06,1.89Z"/><path class="cls-149" d="M8.14,104.6c.35,.71,1.02,1.44,.99,2.13-.26,5.58-.66,11.16-1.01,16.74-2.13-6.29,.32-12.58,.02-18.87Z"/><path class="cls-149" d="M7.18,129.48c-1.39-1.66-.14-3.33-.04-5,.32-.34,.65-.68,.97-1.02-.21,2.02,.85,4.24-.94,6.02Z"/><path class="cls-135" d="M14.18,223.11l-1.03,10.94c-.38,.33-.72,.32-1.03-.09,.58-3.18-.67-5.7-2.86-7.88,.11-2.06-.76-4.23,.71-6.13,.19,.08,.39,.15,.58,.23,.73,1.57,2,2.46,3.62,2.93Z"/><path class="cls-162" d="M12.12,233.96c.34,.03,.69,.06,1.03,.09,.35,1.99,.69,3.99,1.04,5.98,.77,2.3,.49,4.89,2.01,6.98h0c.55,.71,.57,1.42-.07,2.1-.34-.03-.67-.05-1.01-.08-2.05-3-1.65-7.02-4.54-9.85-1.06-1.04,.29-3.64,1.54-5.21Z"/><path class="cls-135" d="M10.12,201.23c.33-.03,.67-.02,1,0,.04,1.63,.08,3.25,.12,4.88,.93,1.16,3.28,1.66,1.87,3.93l.1,.13c-1.13,1.81-.15,3.85-.59,5.71-.39,1.6,.15,3.77-2.28,4.33l-.35-.27c.12-1.24,.24-2.47,.36-3.71,1.18-1.23,1.37-3.13,.73-4.15-2.23-3.56-.36-7.28-.95-10.86Z"/><path class="cls-138" d="M380.05,10.98c-3.01,.59-6.27,.38-8.43,3.3-.74,1-2.38,1.03-3.25,.46-5.2-3.38-10.22,.33-15.21,.06-4.67-.26-9.71,3.62-14.08-.85,3.66-.38,7.46,.84,10.99-.99,1.67-.33,3.35,1.05,5.02-.01,1.27-.33,2.53-.89,3.81-.96,5.88-.29,12.01,2.27,17.57-1.87,.88-.65,2.63-.47,3.59,.85Z"/><path class="cls-138" d="M384.02,13.92q-2.72,1.08-3.98-2.93c2.74-.93,1.81,3.1,3.98,2.93Z"/><path class="cls-138" d="M390.06,11.95c-1.4,1.69-3.31,.79-5,.97,1.42-1.59,3.32-.71,5-.97Z"/><path class="cls-155" d="M84.17,10.97c-.24,1.84,3.48,2.93,1.09,5.11-1.89,1.72-3.57,.42-5.37-.59-1.81-1.02-4.33-.53-5.74-2.53,1.45,.09,3.1-.24,4.32,.34,2.98,1.43,4.45,.02,5.7-2.33Z"/><path class="cls-155" d="M98.18,14.97c-.7,.94-.8,2.33-2.13,2.81-1.3-2.28-2.6-4.55-3.9-6.82,3.56-.98,3.54,3.39,6.03,4.01Z"/><path class="cls-155" d="M92.15,10.96c-2.66,0-5.32,0-7.99,0,2.66-1.55,5.32-1.56,7.99,0Z"/><path class="cls-138" d="M339.07,13.96c-7.69,.38-15.38,.48-22.99-1.01,2.81-1.98,6-.56,8.98-.97,2.64,1.94,5.66,.55,8.48,.97,1.85,.27,3.94-.7,5.53,1.01Z"/><path class="cls-147" d="M16.13,249.1c.02-.7,.04-1.4,.07-2.1,.99,1.34,1.97,2.69,2.96,4.03,1.13,1.08,1.25,2.69,2.03,3.95,.33,.34,.65,.68,.98,1.02,0,1.34-.01,2.68-.02,4.03-2.53-3.36-4.53-7-6.01-10.93Z"/><path class="cls-129" d="M36.18,38.84c-1.24,.31-2.62-1.59-3.63-.06-.95,1.44-.05,2.82,1.05,3.98,.79,.83,1.89,1.7,1.28,2.98-.79,1.64-2.02,.04-3.04,.19-6.23,.91-.39,4.14-1.27,6.37-3.18-.53-4.7-2.19-4.38-5.57,.52-5.54,.48-5.53-4.75-3.23-.27,.12-.81-.38-1.22-.58,2.12-1.52,2.72-4.81,5.93-5.05,1.67,.99,3.33,1.32,4.99-.02,1.01-1.33,2.02-2.66,3.03-4-.13,1.73,1.44,2.62,2.01,4,.35,.22,.47,.44,.35,.66-.12,.22-.23,.33-.35,.33Z"/><path class="cls-159" d="M31.13,37.84l-.18,1.91c-1.09-1.93-4.37,1.7-4.8-1.89,1.66,0,3.32-.01,4.99-.02Z"/><path class="cls-153" d="M544.05,251.06c-.02-5.56,4.83-8.57,6.89-13.04,0,1.64,0,3.28,0,4.92-1.64,1.11-4.63,.84-3.65,4.5,.33,1.21-1.07,3.36-3.24,3.62Z"/><path class="cls-146" d="M347.09,282.88c3.66-3.66,7.32-.48,10.98,0,3.33,1.04,6.66-2.44,9.99,0,2.01,1.79,5.39,.34,7.06,2.94-.34,.45-.72,.48-1.15,.11-5.77-2.26-12.08-.04-17.87-2.17-2.91-1.27-6.12,.56-9.01-.88Z"/><path class="cls-170" d="M373.97,285.94c.38-.04,.76-.07,1.15-.11,3,1.19,5.91,.94,8.89-.27,2.6-1.06,5.3-1.76,6.04,2.31-1.73-1.48-3.3-1.73-5.7-.81-3.39,1.3-7.24,2.13-10.37-1.12Z"/><path class="cls-171" d="M347.09,282.88c3,.32,6.16-.93,9.01,.88-2.34,.46-4.94-.86-7.06,1.03-1.32,.02-2.63,.05-3.95,.07-.35-.22-.46-.44-.35-.66,.11-.22,.23-.34,.34-.34,.67-.33,1.34-.66,2.01-.99Z"/><path class="cls-167" d="M345.08,283.87c0,.33,0,.67,0,1-3.32,.02-6.65,.03-9.97,.05,3.07-2.72,6.56-1.53,9.97-1.05Z"/><path class="cls-125" d="M511.03,273.92c-.02-2.12,1.76-3.06,2.9-4.43,.64-.76,1.37-1.54,.75-2.62-.46-.79-3.5,.4-1.76-2.03,.99-1.37,2.8-1.21,4.1-.33,3.66,2.48,4.9,.13,5.81-3.19,1.82,4.51,3.65,4.71,11.21,1.63-.89,3.5-2.7,4.53-6.45,3.45-4.25-1.23-7.8,.86-10.64,4.08-1.58,1.79-2.82,4.2-5.9,3.44Z"/><path class="cls-126" d="M174.05,117.48c3.15-4.35,7.8-6.79,12.55-9.37-3.24,3.92-5.14,8.64-8.43,12.47-.75-1.86-2.61-2.24-4.12-3.1Z"/><path class="cls-144" d="M84.18,289.81c-3.49,2.23-7.58,2.8-11.47,3.79-2.18,.56-5.02,1.11-6.6-1.74,.68-.55,1.36-.62,2.05-.02,2.49,.36,4.31,.55,6.61-1.93,1.37-1.48,6.21-2.3,9.41-.1Z"/><path class="cls-172" d="M469.07,288.88c-.71,.94-1.42,1.89-2.13,2.83-2.11-.1-3.57-1.24-3.68-3.26-.13-2.51,2.32-.77,3.69-1.85-2.82-.97-5.37-1.84-7.92-2.72,4.36-1.21,7.95-.5,10.02,3.99,.31,.22,.41,.44,.31,.67-.1,.23-.2,.34-.3,.34h-.01Z"/><path class="cls-150" d="M510.05,277.92c-.34,.98-.69,1.96-1.03,2.94-3.01,.64-5.68,2.76-9,2,.76-2.1,2.42-3.75,3.01-5.95,.94,1.22,4.91-2.58,3.92,2.38-.11,.55,1.82-1.36,3.1-1.37Z"/><path class="cls-30" d="M5.22,167.43c-.01-5.34-.02-10.67-.04-16.01,3.36,5.33,2.49,10.67,.04,16.01Z"/><path class="cls-130" d="M503.03,276.92c1.08,3.03,.27,5.11-3.01,5.95-.31,.03-.63,.08-.94,.15,.33-1.87,.57-3.76,1.01-5.6,.55-2.27,1.53-2.86,2.93-.49Z"/><path class="cls-163" d="M199.18,291.8c-2.03-1.98-4.05-1.57-6.07,.03,0-3.53,1.54-4.61,4.87-3.2,1.31,.55,2.75,.81,4.12,1.2-.49,1.37-1.5,1.99-2.93,1.96Z"/><path class="cls-149" d="M7.21,141.45c-.31-1.49,3.06-3.93-1.14-4.43,.28-2.2-.57-4.58,1.07-6.57,.16,1.44-.37,3.15,.96,4.18,3.69,2.86,1.98,4.88-.89,6.82Z"/><path class="cls-164" d="M10.33,220.22c2.67-2.86,.86-6.99,2.88-10.04-.23,3.23,.63,6.55-.49,9.68-.64,1.79,.95,2.19,1.46,3.25-2.05,.05-3.92-.14-3.85-2.89Z"/><path class="cls-37" d="M302.07,285.89c-3.33-.01-6.66-.03-9.99-.04,3.35-4.32,6.67-2.15,9.99,.04Z"/><path class="cls-163" d="M213.15,288.81c-.02,.32-.02,.65,0,.97-3.03-1.32-6.33,3.16-9.26-.41,.75-.5,1.5-1,2.26-1.5,2.46-.64,4.64,.82,7,.94h.02Z"/><path class="cls-139" d="M368.05,282.89c-3.33-.75-6.66,1.36-9.99,0,3.33,.28,6.66-4.28,9.99,0Z"/><path class="cls-149" d="M4.39,147.48c-.05-1.32-.09-2.65-.14-3.97,.96-.37,1.93-.75,2.89-1.12,0,2.19-.19,4.27-2.75,5.09Z"/><path class="cls-127" d="M139.01,273.47c3.88-1.11,4.37,1.13,5.85,3.14-3.03,.45-3.18-2.58-5.85-3.14Z"/><path class="cls-147" d="M16.2,247.01c-2.34-1.85-1.99-4.47-2.01-6.98,1.32,2.14,1.78,4.53,2.01,6.98Z"/><path class="cls-152" d="M331.19,178.35c-.32-.82-1.2-1.74,.01-2.45,1.6-.94,2.24,.27,2.82,1.46-.94,.33-1.89,.66-2.83,.99Z"/><path class="cls-158" d="M213.14,288.82c-2.42,.32-4.69-.41-7-.94,2.62-1.79,4.75,.02,7,.94Z"/><path class="cls-34" d="M68.16,291.84c-.68,0-1.37,.02-2.05,.02-.69-.06-1.37-.12-2.06-.18,1.47-2.67,2.84-2.69,4.11,.16Z"/><path class="cls-144" d="M90.17,289.83c-1.34-.93-2.75,.02-4.12-.15,1.42-1.25,2.92-4.81,4.12,.15Z"/><path class="cls-40" d="M13.11,210.05c.19-1.7-1.46-2.52-1.87-3.93,.33,.03,.67,.04,1,.02,1.41,1.05,2.89,2.09,.87,3.9Z"/><path class="cls-128" d="M276.12,152.36c1.41,1.08,.91,2.61,.94,4.01-2.13-.92-1.96-2.36-.94-4.01Z"/><path class="cls-134" d="M469.08,288.89c0-.34-.01-.68-.02-1.01,2.21-.19,4.3-.23,3.98,2.96-1.13-1.03-2.09-2.42-3.96-1.95Z"/><path class="cls-173" d="M337.01,140.57c2.05,1.82,.48,2.86-.85,3.96,.28-1.32,.57-2.64,.85-3.96Z"/><path class="cls-168" d="M21.18,254.98c-1.3-1-1.83-2.39-2.03-3.95,1.88,.7,2.11,2.25,2.03,3.95Z"/><path class="cls-174" d="M184.95,194.19c.33,.01,.66,.02,.99,.02-.38,1.07-.76,2.14-1.29,3.63-.69-1.58-.8-2.66,.3-3.65Z"/><path class="cls-48" d="M197.13,15.93c.99,0,1.98-.02,2.97-.02-.96,3.25-1.97,1.55-2.97,.02Z"/><path class="cls-141" d="M127.15,13.95c-2.47,1.97-5.35,.56-8.01,.98,2.47-1.96,5.35-.56,8.01-.98Z"/><path class="cls-141" d="M114.14,15.94c-2.33,0-4.66,0-6.99,0,2.33-1.56,4.66-1.57,6.99,0Z"/><path class="cls-141" d="M118.13,15.93c-1.32,2.43-2.65,2.38-3.99,.01,1.33,0,2.66,0,3.99-.01Z"/><path class="cls-25" d="M304.91,19.5c-.06,.83-.63,1.22-1.29,.93-.49-.22-1.02-.85-1.11-1.37-.14-.86,.65-.98,1.32-.92,.79,.07,1.01,.68,1.07,1.36Z"/><path class="cls-52" d="M455.06,287.83c-3.24-.78-6.46-1.62-9.04-3.9,2.4-.4,4.49,1.34,7.16,.56,2.19-.64,.39,2.64,1.88,3.34Z"/></svg>