<?xml version="1.0" encoding="UTF-8"?><svg id="Layer_2" xmlns="http://www.w3.org/2000/svg" viewBox="0 0 569.47 299.74"><defs><style>.cls-1{fill:#253e3c;}.cls-2{fill:#28403e;}.cls-3{fill:#273f3d;}</style></defs><path class="cls-1" d="M159.55,68.29c2.29,.12,6.34,.42,10.4,.54,2.85,.09,3.92,2.26,2.32,3.69-8.05,7.19-4.07,16.39-4.57,24.76-.42,6.92-.03,13.88-.06,20.82,0,1.07,.6,2.75-.7,3.05-1.04,.24-2.8-.35-3.48-1.18-2.82-3.45-4.73-1.79-7.77,.14-11.15,7.11-27.89,6.05-38.02-7.19-9.37-12.25-14.39-26.02-13.61-41.58,.63-12.48,4.97-23.59,12.92-33.29,5.15-6.29,10.85-11.23,19.45-12.69,7.62-1.29,14.16,.8,19.76,5.01,3,2.26,4.18,1.7,6.31-.2,1.17-1.04,2.39-2.96,4.14-1.98,1.57,.88,1.96,2.85,1.94,4.77-.09,7.85-.11,15.7-.12,23.55,0,1.3,.41,2.48-1.38,3.18-1.63,.64-2.5-.09-3.48-.99-3.87-3.56-7.37-7.42-10.14-11.92-2.76-4.49-6.84-7.59-12.06-7.07-5.41,.54-9,4.1-10.66,9.63-1.91,6.33-2.69,12.81-2.9,19.31-.29,9.4-1.99,18.95,2.03,28.09,1.65,3.75,3.44,7.37,6.42,10.27,3.1,3.03,5.83,2.73,8.74-.31,4.33-4.53,5.15-9.81,4.27-15.67-.29-1.95-.62-3.96-.45-5.9,.39-4.26-1.26-7.53-4.13-10.48-1.2-1.23-3.42-2.29-2.57-4.38,.74-1.83,2.92-.71,4.4-1.1,3.7-.97,7.47-.64,13-.88Z"/><path class="cls-1" d="M435.15,90.27c-6.47,0-13.21,0-19.94,0-.87,0-1.88,.7-2.55-.49-.53-.95-.08-1.76,.67-2.03,7.91-2.87,6.32-9.88,6.55-15.72,.47-11.64,.26-23.3,.48-34.95,.07-3.81-3.43-4.48-5.22-6.64-.69-.83-2.11-1.34-1.46-2.79,.49-1.1,1.6-.98,2.59-1,13.02-.24,26.04,.47,39.05-.4,5.02-.34,8.18,1.04,8.06,7.3-.09,4.46,.59,9.03,.57,13.57,0,1.2-.13,2.42-1.24,3.04-1.82,1.02-2.3-1.05-2.91-1.8-2.49-3.03-4.73-6.26-6.91-9.53-2.27-3.4-9.31-5.37-13.03-3.7-1.53,.68-1.75,1.62-1.73,3.04,.06,3.96-.05,7.93,.01,11.89,.06,3.73,2.32,4.99,5.71,3.25,1.02-.53,1.96-1.21,2.95-1.8,4.91-2.91,5.08-2.93,5.78,2.9,.45,3.7,.31,7.46,.44,11.2,.04,1.08-.43,2.08-1.26,2.55-1.09,.62-1.82-.44-2.47-1.14-1.69-1.8-3.43-3.58-4.93-5.54-1.45-1.89-3.36-1.1-5.01-.98-2.06,.15-1.13,2.05-1.15,3.16-.11,5.45,.05,10.91-.13,16.36-.09,2.6,.75,3.3,3.33,3.25,5.32-.11,9.03-1.88,11.31-7.14,1.8-4.15,4.74-7.81,7.21-11.66,.79-1.22,1.71-2.88,3.32-2.32,1.36,.47,.89,2.32,.88,3.54-.08,6.7-.24,13.4-.5,20.09-.08,2.14-1.08,3.32-3.59,3.7-8.2,1.23-16.42,.14-24.87,.8Z"/><path class="cls-1" d="M345.25,55.73c1.83,0,2.82,.02,3.8,0,6.3-.12,5.92-.14,5.64,5.99-.38,8.38-.04,16.78-.15,25.17-.02,1.34,.77,3.18-.83,4-1.67,.86-2.73-.7-3.68-1.75-1.55-1.71-2.83-1.58-4.97-.6-21.46,9.83-40.94-6.51-40.69-27.24,.16-13.1,4.88-23.98,16.25-31.29,7.43-4.77,15.12-4.92,22.69-.35,2.55,1.54,4.62,2.09,6.61-.64,.8-1.1,2.06-2.01,3.31-1.34,1.18,.64,1.33,2.18,1.25,3.56-.26,4.93-.48,9.86-.78,14.78-.05,.88,.29,2.2-.94,2.41-1.03,.17-2.17,.17-3.04-1.04-1.82-2.52-3.72-5.03-5.89-7.24-6.9-7.02-14.49-6.21-18.81,2.64-5.09,10.44-6.81,21.45-1.19,32.39,2.01,3.91,5.63,7.6,9.97,6.6,4.76-1.1,5.65-6.17,5.95-10.81,.25-3.89-.19-7.52-2.59-10.71-2.64-3.5-.35-4.38,2.55-4.45,2.11-.05,4.25-.65,5.53-.07Z"/><path class="cls-1" d="M392.92,26.67c.67,1.64-.14,2.3-.74,2.61-6.97,3.64-6.49,10.33-6.63,16.55-.24,10.57-.13,21.15-.07,31.72,.01,1.79-.75,4.55,2.26,4.57,2.88,.02,6.24,1.46,8.29-2.43,3.2-6.06,6.84-11.88,10.15-17.88,.7-1.27,1.36-2.48,2.84-2.14,1.35,.31,1.26,1.77,1.26,2.92,.01,8.1-.03,16.2,.04,24.3,.02,2.31-.89,3.27-3.22,3.26-14.08-.05-28.16-.04-42.25-.05-1.15,0-2.6,.06-2.8-1.34-.11-.78,.54-2.18,1.23-2.49,8.74-4.02,7.66-11.59,7.38-19.12-.35-9.2-.45-18.42-.17-27.61,.1-3.33-1.12-5.4-3.61-6.84-1.06-.61-1.64-1.56-2.56-2.21-.91-.65-2.03-1.36-1.59-2.77,.49-1.56,1.89-1.02,2.94-1.03,9.1-.04,18.21-.02,27.27-.02Z"/><path class="cls-1" d="M234.05,44.6c-5.54-12.41-15.98-18.69-29.37-20.09-3.63-.08-8.31-.44-9.41,2.78-.82,2.4-2.32,3.4-3.62,4.75-3.77,3.92-8.07,7.43-10.88,12.12-4,6.68-6.65,13.83-4.12,21.8,2.56,8.06,7.56,14.53,14.18,19.56,6.2,4.71,13.35,7.42,21.01,4.07,6.6-2.89,12.61-6.98,16.97-12.97,7.13-9.79,10.35-20.59,5.23-32.04Zm-19.45,28.33c-1.16,4.79-5,6.39-9.4,6.26-4.77-.14-8.63-4.2-9.75-9.6-.4-1.92-.8-3.85-.96-5.8-.16-1.97-.04-3.96-.04-6.4-.38-3.84,.54-8.03,1.08-12.24,.59-4.61,6.28-10.98,9.72-10.51,4.71,.64,7.83,3.19,9.57,8.23,3.52,10.19,2.19,20.09-.22,30.06Z"/><path class="cls-1" d="M297.43,47.72c-3.41-13.63-14.14-21.91-28.8-21.91-4.44,0-9.7-1.31-11.41,5.21-.27,1.04-1.83,1.77-2.82,2.6-5.11,4.26-9.95,8.65-12.22,15.26-4.62,13.5-.49,24.68,8.87,34.52,7.05,7.41,15.71,8.92,25.13,5.89,14.15-4.55,21.22-15.21,21.54-31.72,.21-3.29,.54-6.58-.28-9.85Zm-17.27,23.04c-1.18,5.39-4.69,9.73-9,9.92-6.97,.32-10.88-2.88-12.45-9.6-.81-3.46,.22-6.91-.52-10.3-.78-5.78,.75-11.43,1.09-17.13,.27-4.49,3.71-7.51,8.27-8.55,4.38-.99,8.16,1.24,10.61,5.84,2.11,3.97,2.71,8.32,2.81,12.65,.13,5.71,.43,11.43-.82,17.15Z"/><path class="cls-2" d="M213.26,59.82c-.04,1.42-5.57,7.16-6.96,7.22-1.79,.08-8.57-6.33-8.59-8.12-.02-1.82,6.57-7.56,8.44-7.34,1.61,.19,7.16,6.63,7.11,8.24Z"/><path class="cls-3" d="M269.76,68.04c-1.27-.02-7.5-7.76-7.58-9.41-.1-2.27,5.48-7.23,8.03-7.14,2.31,.08,6.9,4.82,6.75,6.96-.09,1.26-6.36,9.61-7.21,9.59Z"/></svg>