<?xml version="1.0" encoding="UTF-8"?><svg id="Layer_4" xmlns="http://www.w3.org/2000/svg" viewBox="0 0 569.47 299.74"><defs><style>.cls-1{fill:#eee;}.cls-2{fill:#e6e8e8;}.cls-3{fill:#7e8e8c;}.cls-4{fill:#7c8a89;}.cls-5{fill:#8c9d9b;}.cls-6{fill:#b3bcbc;}.cls-7{fill:#667776;}.cls-8{fill:#667876;}.cls-9{fill:#304846;}.cls-10{fill:#bbc3c2;}.cls-11{fill:#a6b6b5;}.cls-12{fill:#c0c7c6;}.cls-13{fill:#aab4b3;}.cls-14{fill:#aabab7;}.cls-15{fill:#ccd1d1;}.cls-16{fill:#cfd4d4;}.cls-17{fill:#dce0e0;}.cls-18{fill:#415e5b;}.cls-19{fill:#415755;}.cls-20{fill:#35504c;}.cls-21{fill:#445a57;}.cls-22{fill:#9ba6a5;}.cls-23{fill:#6e7f7d;}.cls-24{fill:#465b59;}.cls-25{fill:#6f807e;}.cls-26{fill:#80908e;}.cls-27{fill:#28413e;}.cls-28{fill:#2b4341;}.cls-29{fill:#557572;}.cls-30{fill:#557471;}.cls-31{fill:#29423f;}.cls-32{fill:#2c3f3c;}.cls-33{fill:#344c49;}.cls-34{fill:#547471;}.cls-35{fill:#4c605e;}.cls-36{fill:#4f6765;}.cls-37{fill:#273f3d;}.cls-38{fill:#27403e;}.cls-39{fill:#27403d;}.cls-40{fill:#516563;}</style></defs><path class="cls-36" d="M376.21,257.6c3.31,2.98,4.34,7.48,7.18,10.77,1.09,1.12,1.64,2.49,1.94,3.99-2.28,1.84-3.21,4.72-5.62,6.65-2.87,2.29-5.78,3.38-9.28,3.45-1.83,.59-2.31-.77-2.68-2-.74-2.42-2.42-4.67-4.72-4.07-3.04,.79-2.99,3.84-2.33,6.58-.78,1.62-2.33,1.56-3.77,1.74-.49,.05-.97,.07-1.46,.09-2.52-.07-4.47,2.03-7.02,1.86-1.28,.04-2.54-.04-3.73-.55-.68-.35-1.18-.88-1.47-1.6-.13-1.8,2.2-2.51,1.9-4.76-1.77,.56-2.48,3.42-4.6,2.6-1.95-.75-2.56-2.94-4.43-5.08-.74,8.36-6.47,8.49-12.43,8.24-2.25,.31-4.5,.35-6.73-.08-4.6-.6-9.23-1.85-13.69,.62-1.66,1.7-3.47,.76-5.25,.29-1.85-.66-3.71-1.38-5.37,.43-.42,.18-.85,.24-1.3,.21-2.7-1.6-5.2-4.35-8.71-1.58-3.01,.62-6.03,.4-9.04,.22-3.24-.87-6.4-2.73-9.83-.69-.52,.29-.95,.63-.69,1.35,.11,.41,.1,.81-.05,1.21-.31,.31-.68,.53-1.1,.65-1.47,.26-2.6-.4-3.67-1.28-1.54-1.61-3.7-1.01-5.54-1.56-2.33-.39-3.87-5.28-7.12-1.04-.66,.87-1.75-.91-2.26-1.89-1.05-2.02,0-4.08,.08-6.23-3.15,.86-3.36,4.45-5.84,5.76-4.04-.69-5.24-3.64-5.75-7.16,.71-4.35,3.59-7.12,6.96-9.54,17.83-.69,35.67-1.57,53.53-1.15,8.82,.21,17.56-.53,25.92-3.42,8.83-3.05,17.87-4.8,27.14-5.6,9.23-2.07,18.4-.65,27.57,.5,1.39,.17,2.43,.96,3.27,2.05Z"/><path class="cls-32" d="M345.46,256.59c-9.1,.27-17.87,2.15-26.43,5.2-8.6,3.06-17.61,4.02-26.61,3.58-10.78-.53-21.49,.53-32.22,.41-7.08-.08-14.19,.77-21.26-.31-.82,.13-1.64,.08-2.43-.13-6.95-1.81-12.2,.29-15.54,6.76-6.17,4.02-13.05,2.52-19.73,2.48-2.47-.01-4.9-.65-7.37-.82-2.66-.18-4.27-1.51-4.58-4.24-3.35-8.36-.5-15.26,8.66-18.96,1.98-1.78,4.55-1.98,6.95-2.13,9.37-.56,18.7-1.66,28.07-2.21,13.7-2.49,27.44-4.7,41.43-3.98,10.91,.56,21.73,2.48,32.69,2.22,9.44-.22,18.87-.27,28.27,.72,4.48,.47,8.88,1.1,12.78,3.57,2.57,3.78-1.33,5.37-2.67,7.83Z"/><path class="cls-20" d="M348.46,249.64c-12.26-3.79-24.75-3.87-37.48-3.5-9.94,.29-20.03-.38-29.97-1.84-7.73-1.14-15.51-1.01-23.24-.07-8.32,1.01-16.6,2.24-24.9,3.38-4.42-3.3-9.54-5.19-14.59-7.24-1.33-.54-3.58-.26-3.35-2.78,4.96-9.5,14.36-8.91,22.91-9.62,5.03-.42,10.17,.46,15.25,.81,3.57,.24,7.13,.58,10.69,.87,1.31-.75,2.7-1.29,4.21-1.28,11.21,.04,22.36-1.76,33.59-1.12,1.83,.1,3.64,.21,5.11,1.49,12.41,1.39,25.15-.64,37.3,3.1,9.07,2.79,18.24,5.82,23.51,14.8-1.08,1.24-2.59,1.42-4.05,1.38-5.07-.14-10.07,.23-14.97,1.62Z"/><path class="cls-20" d="M189.28,269.53c2.32,5.03,7.39,3.03,10.96,3.53,5.52,.77,11.36,1.13,17.04-.43,1.56-.43,2.57-1.22,3.68-2.11,2.09,1.66,4.69,1.31,7.07,1.81,1.77,.38,3.57,.73,4.87,2.16,.02,3.47,2.29,5.34,4.96,6.92,.9,2.25-.14,3.69-2.02,4.81,1.41,.3,3.03-.17,4.16,1.12-1.64,4.12-4.91,2.19-7.69,2.07-.74-.21-1.38-.58-1.93-1.12-.84-1.13-2.05-2.12-1.5-3.79,.4-.49,.85-.95,1.1-1.56-.87,.15-.59,1.12-1.09,1.54-1.77,1.69-4.54,2.04-5.82,4.38-.4,.58-.84,1.12-1.36,1.59-.37,.3-.78,.53-1.23,.7-.68,.2-1.38,.26-2.09,.22-6.87-1.48-13.68,.02-20.52,.39-.48,.08-.96,.12-1.44,.11-1.47-.16-3,.38-4.4-.43-6.55-.08-12.16-2.92-17.4-6.4-3.08-2.05-2.87-6.51,.35-8.45,3.08-1.85,5.7-4.73,10-4.31,1.27,.12,4.13,.07,4.3-2.76Z"/><path class="cls-29" d="M306.67,228.74c-14.33-.81-28.58,1.67-42.91,.91,.1-8.81,2.14-10.84,10.91-10.84,8.07,0,16.15,0,24.22,0,6.71,0,7.51,.77,7.73,7.46,.03,.82,.03,1.64,.04,2.47Z"/><path class="cls-36" d="M214.91,237.59c4.56,1.96,9.1,3.98,13.69,5.85,2.04,.83,3.7,1.89,4.25,4.16-11.64,.99-23.28,1.98-34.92,2.97-.78-5.38,2.81-9.95,9.57-11.81,2.4-.66,4.94-.8,7.41-1.17Z"/><path class="cls-30" d="M348.46,249.64c2.01-2.51,4.66-3.17,7.79-3.03,3.74,.17,7.49,.03,11.23,.02,4.51,2.39,10.03,3.97,8.73,10.97-10.21-1.58-20.39-3.88-30.75-1.01,.05-2.73,2.86-4.27,3-6.96Z"/><path class="cls-2" d="M348.53,288.48c-7.48,1.69-14.52,5.74-22.8,2.82-2.75-.97-6.57-.19-9.54,.37-5.5,1.03-10.45-.2-15.58-1.24-4.23-.85-8.34-1.33-12.72-.24-2.55,.63-5.59,.97-8.23-.59,3.85-1.14,7.11-4.79,11.71-2.71,2.01,.5,3.94-.35,5.92-.35,5.69,1.85,11.48,2.86,17.49,2.07,9.04-1.31,18.21,1.05,27.24-1.01,2.19-.5,4.57-1.13,6.51,.87Z"/><path class="cls-15" d="M348.53,288.48c-3.67-.67-7.23,.57-10.74,1.09-4.82,.71-9.38,.56-14.07-.54-3.03-.71-5.94,3.35-9.17,.44,.23-.41,.54-.76,.92-1.05,2.72-2.25,5.42-4.61,9.35-2.71,5.18,3.24,9.91,2.04,14.41-1.47,1.44-.83,2.87-1.16,4.26,.09,.37,.33,.73,.67,1.1,1,1.1,1.24,2.45,1.2,3.88,.75,.61-.16,1.23-.16,1.85-.02,.36,.27,.52,.63,.51,1.07-.23,.66-.9,.85-1.36,1.27-.31,0-.62,.03-.93,.08Z"/><path class="cls-28" d="M360.55,282.56c-4.64-2.45-.39-4.58,.49-6.51,.73-1.59,1.85-2.05,4.41-.72,3.41,1.78,2.19,5.67,4.98,7.12,.05,.32,.09,.65,.14,.97-1.9,1.83-4.17,1.3-6.41,1.04-1.35-.35-2.65-.82-3.61-1.91Z"/><path class="cls-17" d="M239.89,292.4c-10.42-.93-20.28,3.99-30.7,2.98-1.74-.17-3.7,.7-5.13-1.02,3.14-3.21,7.02-1.52,10.6-1.49,2.52,.02,4.96,.33,6.2-2.56l-.03-.05c6.43-3.41,12.61-.37,18.87,.74,.46,.41,.53,.88,.19,1.4Z"/><path class="cls-1" d="M349.46,288.4c.35-.34,.69-.67,1.04-1.01,4.1-2.45,8.32-3.76,13.03-1.64,1.41,.64,2.91,.15,4.34-.22,1.71-.58,3.66,.15,5.27-.97,1.99-.18,2.37,.72,1.48,2.33-.85,1.53-1.42,3.26-3.93,2.75-7-1.43-14.13-1.12-21.22-1.24Z"/><path class="cls-6" d="M291.79,287.33c-4.4-1.13-7.73,3.39-12.13,2.28-.34-.34-.68-.69-1.01-1.03-2.4-1.5-5.66,.7-7.82-1.83-.54-1.35,.21-1.75,1.37-1.82,2.65,0,5.3-.11,7.85,.89,1.59,.63,2.94,.45,3.63-1.37,3.22-2.36,3.85-2.21,8.01,1.98,.33,.16,.45,.35,.38,.56-.08,.22-.17,.33-.27,.33Z"/><path class="cls-10" d="M220.86,290.3c1.37,2.09,.83,3.46-1.67,3.58-3.31,.16-6.71,.44-9.94-.1-1.97-.33-3.46,.5-5.19,.58-2.35-.68-4.7-1.36-7.06-2.03-.29-.22-.38-.43-.27-.62,.11-.18,.22-.28,.33-.28,.28-.06,.57-.11,.86-.16,5.4-1.7,10.89,.74,16.31-.32,1.56-.31,3.24,.36,4.77-.46l1.86-.18Z"/><path class="cls-2" d="M239.89,292.4l-.04-1.09c.36-2.2,2.04-1.76,3.42-1.55,2.28,.35,4.56,.28,6.85,.27,2.36-.04,4.45-1.17,6.71-1.62,1.58-.35,3.13-.02,4.69,.17,.52,.14,.96,.43,1.29,.85-7.45,2.47-14.82,5.5-22.92,2.98Z"/><path class="cls-16" d="M262.81,289.42c-.34,0-.68-.01-1.01-.02-.33-.24-.44-.57-.33-.96,.37-.46,.93-.64,1.4-.94h0c.96-1.25,2.2-2.01,3.8-2.15,1.01-.12,2.01-.08,2.99,.23,.46,.21,.86,.52,1.19,.9,2.61,.65,5.51,.22,7.79,2.1-5.19,2.01-10.63-.73-15.84,.84Z"/><path class="cls-25" d="M373.13,284.57c-.82,2.72-2.88,1.63-4.63,1.51-1.38-.12-2.81,.68-4.16-.18-.79-.63-1.39-1.34-.91-2.45,2.38,0,4.76-.01,7.14-.02,.85,.38,1.71,.76,2.56,1.14Z"/><path class="cls-18" d="M385.33,272.36c-1.6-.87-1.42-2.6-1.94-3.99,.79,.07,1.59,.18,2.38,.22,1.66,.07,3.23,1.44,3.12,2.41-.18,1.57-2.05,1.63-3.56,1.36Z"/><path class="cls-26" d="M197.06,291.43c-.02,.3-.04,.6-.06,.89-1.72,.09-3.48,.37-4.97-.87l5.04-.02Z"/><path class="cls-34" d="M232.91,274.5c-3.12,0-5.94-1.88-9.23-1.19-1.79,.38-2.61-1.06-2.71-2.78,2.66-6.93,10.45-9.01,17.96-5.05-1.46,3.37-5.54,5-6.02,9.02Z"/><path class="cls-27" d="M239.93,287.45c-2.03-.35-4.26,.65-6.66-1.32,2.99-.47,3.88-2.52,4.6-4.72,.23-1.86,1.09-3.41,2.37-4.74,1.36-1.41,3.12-3.54,4.84-2.56,2,1.13-.63,2.67-.96,4.1-.46,1.97-.42,3.87,1.38,5.71,1.13-4.44,2.82-5.77,5.39-1.01,.36,.66,1.22,1.05,1.84,1.57,.3,2.79-1.92,3.12-3.74,3.85-2.18,.56-4.25-.38-6.37-.51-.91-.01-1.86,.18-2.69-.38Z"/><path class="cls-39" d="M343.48,284.34c-1.33,.42-2.94-.21-4.04,1.06-1.56,1.41-3.77,.7-5.47,1.65-2.1,.03-4.19,.39-6.31,.27-1.19-.23-2.28-.65-3.12-1.57-.31-.42-.31-.84-.02-1.27,.76-1.1,1.65-.49,2.62-.32,4.46,.74,6.92-1.2,7.39-5.58,.13-1.22-.74-3.07,.86-3.49,1.91-.51,2.06,1.71,2.86,2.82,.94,1.3,1.78,2.66,2.9,4.35,.71-1,1.05-1.78,1.64-2.26,1.12-.91,1.44-3.94,3.26-2.55,1.8,1.39,.72,3.92-.53,5.7-.41,.59-1.36,.81-2.06,1.2Z"/><path class="cls-38" d="M352.39,279.38c-1.16-.98-1.9-2.17-2.33-3.65-.32-1.08-.43-1.95,.54-2.63,1.1-.77,2.13-.53,3.18,.27,1.6,1.23,3.33,4.83,3.63,8.11-1.69-.32-3.31-.63-4.92-.94-.26-.24-.36-.49-.3-.76,.07-.27,.14-.41,.22-.41Z"/><path class="cls-19" d="M302.68,285.47c-.7-.7-.92-1.76,.2-1.79,4.56-.11,9.19-1.1,13.67,.61-1.01,3.53-3.92,4.02-6.95,4.34-2.64-.32-5.41-.38-6.92-3.16Z"/><path class="cls-4" d="M309.64,287.46c2.8,.02,4.84-1.61,6.91-3.18,2.66,.06,5.32,.13,7.98,.19,.07,.29,.14,.58,.2,.87,.3,.46,.25,.85-.23,1.17-4.03-2.56-5.79,1.99-8.75,2.78-1.93-1.47-4.29,1.07-6.2-.65-.28-.41-.24-.81,.08-1.18Z"/><path class="cls-35" d="M248.82,287.4c1.4-.85,3.28-1.05,3.92-2.91,2.03,.61,4.98-1.68,6.08,1.9-.38,.86-1.12,1.37-1.87,1.87-2.23,1.16-4.43,2.47-7.07,1.18-.43-.19-.81-.46-1.16-.78-.25-.44-.22-.86,.11-1.26Z"/><path class="cls-14" d="M364.71,285.29c1.29,.15,2.71-.33,3.8,.79-1.03,.9-2.54,1.83-3.55,1.21-4.92-3.03-9.66-.2-14.46,.11-.04-.29-.09-.58-.16-.87,1.55-1.3,3.69-1.63,5.11-3.14,.35,.07,.71,.14,1.06,.22,2.68,.82,5.8-.52,8.19,1.69Z"/><path class="cls-40" d="M283.68,284.45c.82,3.48-.86,4.56-3.57,2.85-2.39-1.52-4.81-1.62-7.36-1.82-.33-.23-.44-.46-.33-.69,.11-.23,.23-.34,.34-.34,3.64,0,7.28,0,10.92,0Z"/><path class="cls-8" d="M272.76,284.44c0,.34,0,.69-.01,1.03-.74,.14-1.54,.14-1.89,1-.37-.04-.73-.07-1.1-.11-.83-.93-1.94-.95-3.06-.92-1.33-.16-2.58,1.16-3.95,.21-.3-.42-.28-.82,.05-1.21,3.32-2.78,6.64-2.14,9.97,0Z"/><path class="cls-23" d="M309.64,287.46c0,.33,0,.67,0,1-4.21,1.18-8.09-.14-11.96-1.55-.58,.01-.98-.25-1.22-.77,.11-.6,.47-.87,1.08-.79,1.72-.59,3.38,1.77,5.13,.12,2.3,.75,4.44,2.04,6.96,2Z"/><path class="cls-11" d="M355.45,283.38c-.52,2.97-2.94,2.85-5.11,3.14-.59,0-1.19,0-1.78-.01-.28-.22-.39-.45-.32-.7,.07-.26,.15-.38,.23-.38,2.7,.58,4.28-2.63,6.98-2.04Z"/><path class="cls-11" d="M364.71,285.29c-2.68-.82-5.62-.35-8.19-1.69,1.41-.1,2.92,.2,4.03-1.04,1.02,.12,2.19-.27,2.89,.89,.42,.62,.85,1.23,1.27,1.85Z"/><path class="cls-9" d="M297.55,285.35c-.36,.28-.73,.56-1.09,.83-1.19,1.3-2.4,1.35-3.65,.09-.08-2.82,.1-2.85,4.75-.92Z"/><path class="cls-23" d="M292.8,286.27c1.22-.03,2.44-.06,3.66-.09,.13,.15,.27,.3,.41,.45,.21,.33,.14,.59-.2,.79-1.65,1.22-3.28,1.42-4.88-.09-.04-.3-.08-.6-.11-.9,.37-.05,.74-.11,1.11-.16Z"/><path class="cls-3" d="M262.96,285.52l3.87-1.08c.55,.62,.56,1.25,.02,1.89-1.33,.39-2.65,.78-3.98,1.16-.04-.36-.08-.72-.13-1.08-.28-.38-.21-.68,.21-.89Z"/><path class="cls-5" d="M348.47,285.42c.03,.36,.06,.72,.09,1.08-1.99,1.88-3.11,.78-3.98-1.17,1.3,.03,2.59,.05,3.89,.08Z"/><path class="cls-3" d="M256.84,287.43c.66-.35,1.32-.7,1.97-1.05,1.25,.75,2.58,1.17,4.05,1.1-.34,.38-.67,.76-1.01,1.15-.88,.4-1.81,.24-2.72,.21-.87-.31-1.79-.52-2.29-1.42Z"/><path class="cls-21" d="M262.96,285.52c-.07,.3-.14,.59-.21,.89-.99-.11-2.11-.12-2.13-1.44,0-.16,1.42-.35,2.18-.52,.05,.36,.11,.72,.16,1.07Z"/><path class="cls-33" d="M352.39,279.38c.03,.39,.05,.77,.08,1.16-.39,.65-1.07,1.79-1.62,1.01-.95-1.35,.35-1.89,1.54-2.17Z"/><path class="cls-37" d="M221.81,279.45c-1.89,2.31-2.1,5.72-3.7,8.5-.53,.92-2.12,.44-3.19-.1-.88-.44-1.74-.86-1.79-2.08-.08-1.97,5.45-7.91,7.48-7.92,.76,0,1.18,.43,1.2,1.6Z"/><path class="cls-13" d="M250.85,291.39c-3.67,.72-7.32-1.36-11-.09-3.32-.11-6.42,.2-9.84-1.58-1.95-1.02-5.98,1-9.19,.53,.4-.58,.8-1.16,1.19-1.74,2.74-2.09,5.46-4.49,8.82-.98l1.06,.91c3.74,2.63,7.5-.42,11.25,.03,1.96,.6,3.96,.86,6.02,.81,.44-.11,.89-.16,1.35-.14,.96,.62,1.12,1.36,.34,2.24Z"/><path class="cls-26" d="M219,290.48c-2.48,2.81-6.01,2.33-8.81,1.72-4.12-.9-8.22-.35-12.27-.93,.33-.53,.79-1.58,.96-1.53,6.66,1.76,13.54-2.31,20.13,.75Z"/><path class="cls-39" d="M209.34,281.99c.81,.99-.05,1.87-.29,2.72-.41,1.43,.96,3.91-1.28,4.13-1.91,.19-2.86-2.1-3.34-3.8-.78-2.76,2.17-1.64,3.15-2.63,.44-.45,1.04-.83,1.76-.43Z"/><path class="cls-38" d="M192.68,280.88c6.51,.22,6.8,2.96,4.71,7.1-3.41-1.17-2.02-4.88-4.71-7.1Z"/><path class="cls-7" d="M243.87,289.41c-2.48-.32-4.83,.22-7.23,.83-1.82,.46-3.54-.2-4.75-1.8,2.68-.31,5.61,1.44,8.03-.99,.59-.28,1.17-.56,1.76-.84,2.28,.89,4.66,1.35,7.08,1.67,.33,.03,.66,.06,.99,.09,.63,.3,.64,.63,.03,.97h.03c-1.98,.88-3.96,.81-5.95,.07Z"/><path class="cls-7" d="M230.84,287.53c-3.27-2.67-5.89,.54-8.82,.98,1.42-2.82,3.79-4.01,6.87-4.01h-.02c.66,1.01,1.32,2.02,1.98,3.03Z"/><path class="cls-31" d="M228.89,284.5c-.24-1.28-1.96-2.75,.1-3.75,1.4-.67,2.92,.52,3.01,1.66,.13,1.81-1.8,1.77-3.13,2.09h.02Z"/><path class="cls-6" d="M296.67,287.42c0-.28,.07-.54,.19-.79,4.26,.61,8.52,1.22,12.77,1.83,1.96,.84,4.39-1.73,6.11,.83-.4,.06-.8,.12-1.2,.19-6.24,1.7-12.11,.25-17.88-2.06Z"/><path class="cls-36" d="M324.5,286.51c.07-.39,.15-.78,.22-1.17,.94,.36,1.89,.73,2.83,1.09,2,1.18,3.99-.13,5.98-.02,1.82-1.22,3.87-1.08,5.91-1.01-5.86,4.53-8.75,4.74-14.94,1.11Z"/><path class="cls-22" d="M249.79,289.34c0-.32-.01-.65-.03-.97,2.53,1,4.88,.61,7.08-.94,.8,.04,1.55,.18,2,.96-.5,.73-1.48,.38-2.08,.89-1.88,.96-3.77,1.89-5.91,2.11-.03-.85-.27-1.59-1.06-2.05Z"/><path class="cls-12" d="M256.76,289.28c.69-.3,1.39-.59,2.08-.89,1.01,.08,2.01,.16,3.02,.25-.02,.25-.04,.51-.06,.76-1.68-.04-3.36-.08-5.04-.12Z"/><path class="cls-36" d="M266.84,286.33c0-.63-.01-1.26-.02-1.89,1.41-.01,2.86-.08,2.93,1.93-.97-.01-1.94-.03-2.91-.04Z"/><path class="cls-20" d="M248.77,288.28c-2.57,.33-5,.07-7.08-1.67,2.38,.27,4.75,.53,7.13,.79,0,.29,0,.59-.05,.88Z"/><path class="cls-24" d="M333.54,286.42c-1.99,1.55-3.98,1.47-5.98,.02,1.99,.28,3.98-1.58,5.98-.02Z"/><path class="cls-22" d="M243.87,289.41c1.98-.02,3.97-.03,5.95-.05-1.97,1.63-3.96,1.52-5.95,.05Z"/></svg>